<svg class="mr-2" width="25" height="24" viewBox="0 0 25 24" fill="none" xmlns="http://www.w3.org/2000/svg">
<path d="M18.97 16.83L19.36 19.99C19.46 20.82 18.57 21.4 17.86 20.97L14.4 18.91C14.16 18.77 14.1 18.47 14.23 18.23C14.73 17.31 15 16.27 15 15.23C15 11.57 11.86 8.59 8 8.59C7.21 8.59 6.44 8.71 5.72 8.95C5.35 9.07 4.99 8.73 5.08 8.35C5.99 4.71 9.49 2 13.67 2C18.55 2 22.5 5.69 22.5 10.24C22.5 12.94 21.11 15.33 18.97 16.83Z" fill="#141414"/>
<path d="M13.5 15.2301C13.5 16.4201 13.06 17.5201 12.32 18.3901C11.33 19.5901 9.76 20.3601 8 20.3601L5.39 21.9101C4.95 22.1801 4.39 21.8101 4.45 21.3001L4.7 19.3301C3.36 18.4001 2.5 16.9101 2.5 15.2301C2.5 13.4701 3.44 11.9201 4.88 11.0001C5.77 10.4201 6.84 10.0901 8 10.0901C11.04 10.0901 13.5 12.3901 13.5 15.2301Z" fill="#141414"/>
</svg>