<svg width="74" height="64" viewBox="0 0 74 64" fill="none" xmlns="http://www.w3.org/2000/svg">
<g id="Group 1">
<circle id="Ellipse 1" cx="32" cy="32" r="32" fill="#1C4144"/>
<circle id="Ellipse 2" cx="67" cy="7" r="7" fill="white"/>
<path id="Subtract" fill-rule="evenodd" clip-rule="evenodd" d="M32 64C49.6731 64 64 49.6731 64 32C64 14.3269 49.6731 0 32 0C14.3269 0 0 14.3269 0 32C0 49.6731 14.3269 64 32 64ZM6.85653 24.4545H3.41193L8.71733 33.858V39H11.7713V33.858L17.0767 24.4545H13.6321L10.3153 30.7188H10.1733L6.85653 24.4545ZM18.5238 28.0909V39H21.5494V28.0909H18.5238ZM18.886 26.2372C19.208 26.5355 19.5939 26.6847 20.0437 26.6847C20.4935 26.6847 20.877 26.5355 21.1942 26.2372C21.5162 25.9342 21.6772 25.572 21.6772 25.1506C21.6772 24.7339 21.5162 24.3764 21.1942 24.0781C20.877 23.7751 20.4935 23.6236 20.0437 23.6236C19.5939 23.6236 19.208 23.7751 18.886 24.0781C18.5688 24.3764 18.4102 24.7339 18.4102 25.1506C18.4102 25.572 18.5688 25.9342 18.886 26.2372ZM24.0298 24.4545V39H30.2443C31.3333 39 32.2495 38.8248 32.9929 38.4744C33.7363 38.1241 34.2973 37.6482 34.6761 37.0469C35.0597 36.4408 35.2514 35.7519 35.2514 34.9801C35.2514 34.2652 35.0999 33.6496 34.7969 33.1335C34.4938 32.6127 34.0985 32.2079 33.6108 31.919C33.1278 31.6302 32.6094 31.474 32.0554 31.4503V31.3082C32.562 31.1946 33.0118 31.0028 33.4048 30.733C33.8026 30.4583 34.1151 30.108 34.3423 29.6818C34.5696 29.2509 34.6832 28.7514 34.6832 28.1832C34.6832 27.4541 34.5033 26.8101 34.1435 26.2514C33.7836 25.688 33.2462 25.2476 32.5312 24.9304C31.8163 24.6132 30.9238 24.4545 29.8537 24.4545H24.0298ZM29.6122 36.4858H27.1051V32.6222H29.6832C30.1757 32.6222 30.5994 32.7098 30.9545 32.8849C31.3144 33.0601 31.5914 33.3016 31.7855 33.6094C31.9796 33.9171 32.0767 34.2723 32.0767 34.6747C32.0767 35.224 31.8802 35.6643 31.4872 35.9957C31.0942 36.3224 30.4692 36.4858 29.6122 36.4858ZM29.3849 30.5412H27.1051V26.9403H29.4418C30.1236 26.9403 30.6491 27.1013 31.0185 27.4233C31.3925 27.7453 31.5795 28.169 31.5795 28.6946C31.5795 29.0781 31.4825 29.4072 31.2884 29.6818C31.099 29.9564 30.8385 30.1695 30.5071 30.321C30.1804 30.4678 29.8063 30.5412 29.3849 30.5412ZM37.1957 28.0909V39H40.2212V28.0909H37.1957ZM37.5579 26.2372C37.8799 26.5355 38.2657 26.6847 38.7156 26.6847C39.1654 26.6847 39.5489 26.5355 39.8661 26.2372C40.1881 25.9342 40.3491 25.572 40.3491 25.1506C40.3491 24.7339 40.1881 24.3764 39.8661 24.0781C39.5489 23.7751 39.1654 23.6236 38.7156 23.6236C38.2657 23.6236 37.8799 23.7751 37.5579 24.0781C37.2407 24.3764 37.082 24.7339 37.082 25.1506C37.082 25.572 37.2407 25.9342 37.5579 26.2372ZM43.206 38.6875C43.5421 39.0189 43.9446 39.1847 44.4134 39.1847C44.7211 39.1847 45.0028 39.1089 45.2585 38.9574C45.5142 38.8011 45.7202 38.5952 45.8764 38.3395C46.0374 38.0791 46.1179 37.7926 46.1179 37.4801C46.1179 37.0161 45.9474 36.6184 45.6065 36.2869C45.2656 35.9555 44.8679 35.7898 44.4134 35.7898C43.9446 35.7898 43.5421 35.9555 43.206 36.2869C42.8745 36.6184 42.7088 37.0161 42.7088 37.4801C42.7088 37.9489 42.8745 38.3513 43.206 38.6875Z" fill="white"/>
</g>
</svg>
