<svg width="222" height="147" viewBox="0 0 222 147" fill="none" xmlns="http://www.w3.org/2000/svg">
<g id="Amazon_(company)-Logo.wine">
<path id="Vector" fill-rule="evenodd" clip-rule="evenodd" d="M131.557 87.9158C121.634 95.1809 107.25 99.0571 94.8657 99.0571C77.501 99.0571 61.8685 92.6779 50.0417 82.0683C49.1127 81.2338 49.9452 80.0969 51.0601 80.7467C63.8234 88.1225 79.6047 92.5599 95.9064 92.5599C106.9 92.5599 118.995 90.3006 130.115 85.6122C131.795 84.9034 133.2 86.7049 131.557 87.9158Z" fill="#FF9900"/>
<path id="Vector_2" fill-rule="evenodd" clip-rule="evenodd" d="M135.683 83.2272C134.419 81.6176 127.298 82.4666 124.101 82.8432C123.128 82.9614 122.979 82.1196 123.856 81.5143C129.528 77.5495 138.835 78.6939 139.92 80.0228C141.005 81.3592 139.637 90.6251 134.308 95.0477C133.49 95.727 132.709 95.3652 133.074 94.4644C134.27 91.4965 136.954 84.8441 135.683 83.2272Z" fill="#FF9900"/>
<path id="Vector_3" opacity="0.6" fill-rule="evenodd" clip-rule="evenodd" d="M124.324 53.5246V49.6706C124.324 49.0873 124.77 48.6959 125.306 48.6959H142.678C143.235 48.6959 143.681 49.0945 143.681 49.6706V52.9708C143.674 53.5246 143.206 54.2481 142.373 55.3925L133.371 68.1581C136.716 68.0771 140.247 68.5716 143.28 70.2698C143.964 70.6537 144.15 71.2149 144.202 71.7686V75.8811C144.202 76.4421 143.577 77.0992 142.923 76.7597C137.578 73.9763 130.479 73.6735 124.57 76.7892C123.968 77.1142 123.336 76.4644 123.336 75.9033V71.9975C123.336 71.37 123.343 70.2994 123.975 69.347L134.404 54.4919H125.328C124.77 54.4919 124.324 54.1006 124.324 53.5246ZM60.9542 77.5718H55.6689C55.1634 77.535 54.7621 77.1584 54.7248 76.6784V49.737C54.7248 49.198 55.1782 48.7697 55.7431 48.7697H60.6715C61.1845 48.7918 61.5934 49.1833 61.6306 49.6704V53.1925H61.7272C63.0131 49.7888 65.429 48.2015 68.6849 48.2015C71.9927 48.2015 74.0593 49.7888 75.5461 53.1925C76.8246 49.7888 79.7311 48.2015 82.8458 48.2015C85.0608 48.2015 87.4842 49.1096 88.9634 51.1474C90.6359 53.414 90.294 56.7069 90.294 59.5937L90.2865 76.5973C90.2865 77.1364 89.8331 77.572 89.2682 77.572H83.9904C83.4627 77.5351 83.0389 77.1143 83.0389 76.5973V62.3181C83.0389 61.181 83.1431 58.3457 82.8903 57.268C82.4964 55.459 81.3145 54.9495 79.783 54.9495C78.5045 54.9495 77.1665 55.7986 76.6238 57.1572C76.0812 58.5158 76.1333 60.7897 76.1333 62.3181V76.5972C76.1333 77.1362 75.6798 77.5718 75.1149 77.5718H69.8371C69.3019 77.535 68.8855 77.1142 68.8855 76.5972L68.8782 62.3181C68.8782 59.313 69.3762 54.8906 65.6223 54.8906C61.8239 54.8906 61.9725 59.2023 61.9725 62.3181V76.5972C61.9725 77.1362 61.5191 77.5718 60.9542 77.5718ZM158.637 48.2013C166.48 48.2013 170.724 54.8905 170.724 63.396C170.724 71.6135 166.034 78.133 158.637 78.133C150.936 78.133 146.744 71.4437 146.744 63.108C146.744 54.7207 150.988 48.2013 158.637 48.2013ZM158.682 53.7018C154.787 53.7018 154.542 58.9735 154.542 62.2589C154.542 65.552 154.49 72.5807 158.637 72.5807C162.733 72.5807 162.926 66.9104 162.926 63.455C162.926 61.181 162.83 58.4639 162.139 56.3081C161.544 54.4327 160.362 53.7018 158.682 53.7018H158.682ZM180.893 77.5718H175.63C175.103 77.535 174.679 77.1142 174.679 76.5972L174.671 49.6483C174.716 49.1537 175.155 48.7697 175.69 48.7697H180.588C181.049 48.7918 181.428 49.1022 181.532 49.5228V53.6428H181.629C183.108 49.9586 185.182 48.2013 188.832 48.2013C191.203 48.2013 193.515 49.0503 195.002 51.376C196.385 53.5319 196.385 57.1572 196.385 59.7635V76.7227C196.325 77.1952 195.887 77.5718 195.366 77.5718H190.066C189.583 77.535 189.182 77.1805 189.129 76.7227V62.0891C189.129 59.1432 189.472 54.8313 185.822 54.8313C184.536 54.8313 183.354 55.6878 182.767 56.9873C182.023 58.6339 181.926 60.2729 181.926 62.0893V76.5972C181.919 77.1362 181.458 77.5718 180.893 77.5718ZM110.476 64.7029C110.476 66.7479 110.528 68.4536 109.487 70.2697C108.647 71.7465 107.309 72.6545 105.83 72.6545C103.801 72.6545 102.611 71.1189 102.611 68.8522C102.611 64.3779 106.648 63.5658 110.476 63.5658V64.7029ZM115.806 77.498C115.456 77.8081 114.951 77.8303 114.557 77.6235C112.803 76.1764 112.483 75.5045 111.524 74.1238C108.625 77.0624 106.566 77.941 102.812 77.941C98.3593 77.941 94.9027 75.2165 94.9027 69.7605C94.9027 65.5003 97.222 62.5986 100.537 61.181C103.407 59.9258 107.413 59.7043 110.476 59.3573V58.6782C110.476 57.4303 110.573 55.9536 109.829 54.8757C109.19 53.9086 107.956 53.5098 106.863 53.5098C104.849 53.5098 103.057 54.536 102.619 56.6624C102.529 57.135 102.18 57.6001 101.697 57.6223L96.5753 57.076C96.1442 56.98 95.661 56.6329 95.7873 55.9758C96.9619 49.8035 102.582 47.9429 107.607 47.9429C110.179 47.9429 113.539 48.6222 115.568 50.5566C118.14 52.9414 117.895 56.1234 117.895 59.5863V67.7668C117.895 70.2256 118.921 71.3033 119.887 72.6324C120.222 73.105 120.296 73.6735 119.865 74.0278C118.787 74.9212 116.869 76.5824 115.813 77.5128L115.806 77.498H115.806ZM41.1885 64.7029C41.1885 66.7479 41.2406 68.4536 40.1997 70.2697C39.3599 71.7465 38.0293 72.6545 36.5425 72.6545C34.5133 72.6545 33.3312 71.1189 33.3312 68.8522C33.3312 64.3779 37.3677 63.5658 41.1885 63.5658V64.7029ZM46.5182 77.498C46.169 77.8081 45.6635 77.8303 45.2695 77.6235C43.5152 76.1764 43.2029 75.5045 42.2367 74.1238C39.3375 77.0624 37.2861 77.941 33.5245 77.941C29.0794 77.941 25.6154 75.2165 25.6154 69.7605C25.6154 65.5003 27.9421 62.5986 31.2499 61.181C34.1193 59.9258 38.1259 59.7043 41.1885 59.3573V58.6782C41.1885 57.4303 41.2851 55.9536 40.5491 54.8757C39.9024 53.9086 38.6686 53.5098 37.5832 53.5098C35.5688 53.5098 33.7699 54.536 33.3312 56.6624C33.2421 57.135 32.8927 57.6001 32.4169 57.6223L27.2879 57.076C26.8567 56.98 26.3811 56.6329 26.4999 55.9758C27.6818 49.8035 33.2942 47.9429 38.3192 47.9429C40.891 47.9429 44.2511 48.6222 46.2805 50.5566C48.8523 52.9414 48.607 56.1234 48.607 59.5863V67.7668C48.607 70.2256 49.6329 71.3033 50.5992 72.6324C50.9413 73.105 51.0156 73.6735 50.5844 74.0278C49.5065 74.9212 47.5887 76.5824 46.5332 77.5128L46.5184 77.498" fill="black"/>
</g>
</svg>
