<svg width="222" height="147" viewBox="0 0 222 147" fill="none" xmlns="http://www.w3.org/2000/svg">
<g id="BBC_World_Service-Logo.wine">
<path id="Vector" opacity="0.6" d="M45.7889 122.5H176.211V24.5H45.7889V122.5Z" fill="#C0311A"/>
<g id="Group">
<path id="Vector_2" d="M124.228 41.7657H144.186V60.5037H124.228V41.7657ZM136.802 44.3732C136.715 44.3587 136.626 44.3441 136.533 44.3296L136.424 44.3151C136.271 44.2934 136.117 44.277 135.962 44.2607C135.853 44.2517 135.748 44.2444 135.644 44.2372C135.453 44.2263 135.266 44.2208 135.088 44.2208C135.004 44.2208 134.959 44.2227 134.877 44.2245C134.728 44.2263 134.583 44.2335 134.434 44.2408C134.354 44.2462 134.272 44.2553 134.192 44.2607C134.074 44.2713 133.957 44.2846 133.84 44.3006L133.745 44.3133L133.636 44.3278L133.505 44.3478C133.447 44.3587 133.391 44.3677 133.332 44.3786C133.255 44.3924 133.177 44.4081 133.1 44.4257C132.651 44.5191 132.211 44.6495 131.784 44.8156C131.581 44.8928 131.381 44.98 131.186 45.0767C131.029 45.1507 130.876 45.2318 130.726 45.3197C130.587 45.3986 130.451 45.4827 130.317 45.5717C130.242 45.6204 130.167 45.6712 130.094 45.724C130.032 45.7693 129.97 45.8147 129.912 45.8582C129.785 45.9579 129.663 46.0558 129.547 46.1574C129.442 46.2501 129.34 46.3456 129.24 46.4439C129.155 46.526 129.073 46.6113 128.994 46.6995C128.913 46.7887 128.835 46.88 128.758 46.9733C128.678 47.0749 128.595 47.1801 128.516 47.287C128.458 47.3686 128.404 47.4502 128.349 47.5336C128.311 47.588 128.275 47.646 128.237 47.7041C128.026 48.0513 127.846 48.4159 127.699 48.7938C127.506 49.2957 127.373 49.8185 127.302 50.3514C127.279 50.5278 127.262 50.705 127.252 50.8827C127.235 51.1283 127.233 51.3747 127.244 51.6207C127.252 51.7295 127.261 51.8383 127.273 51.9434L127.281 52.0196C127.297 52.1447 127.317 52.2698 127.341 52.3931C127.352 52.4421 127.359 52.4892 127.37 52.5364C127.393 52.6397 127.415 52.7394 127.444 52.841C127.479 52.9679 127.515 53.0948 127.557 53.2181C127.61 53.3723 127.664 53.5191 127.722 53.6642C127.82 53.8927 127.926 54.1139 128.039 54.3206C128.108 54.4421 128.175 54.5617 128.248 54.6742C128.304 54.7648 128.36 54.8537 128.42 54.9389C128.498 55.0513 128.58 55.1583 128.658 55.2616C128.742 55.3704 128.831 55.4738 128.914 55.5699C129.022 55.6932 129.129 55.8038 129.233 55.9072L129.289 55.9616C129.374 56.0432 129.467 56.1338 129.574 56.2227C129.649 56.2843 129.721 56.3496 129.805 56.4149C129.879 56.4747 129.961 56.5364 130.045 56.598C130.145 56.6687 130.252 56.7413 130.365 56.8156C130.483 56.8918 130.61 56.9679 130.743 57.0404C131.025 57.1983 131.317 57.3382 131.617 57.4593C131.735 57.5064 131.859 57.5518 131.989 57.5953C132.115 57.6388 132.244 57.6787 132.38 57.7186C132.609 57.7839 132.849 57.8419 133.103 57.8908C133.309 57.9307 133.521 57.9634 133.741 57.9906C133.959 58.016 134.183 58.0359 134.417 58.0486C134.534 58.054 134.648 58.0577 134.766 58.0613H134.928C135.348 58.0613 135.737 58.0468 136.097 58.016L136.166 58.0105C136.309 57.9978 136.447 57.9833 136.582 57.9652C136.787 57.9416 136.985 57.9108 137.169 57.8763C137.289 57.8564 137.402 57.8328 137.512 57.8092C137.683 57.773 137.849 57.7331 138.003 57.6914C138.119 57.6624 138.23 57.6297 138.336 57.5953C138.465 57.5572 138.588 57.5173 138.706 57.4774L138.819 57.4375C138.875 57.4176 138.952 57.3886 139.044 57.3541C139.164 57.307 139.31 57.2508 139.475 57.1801C139.573 57.1383 139.68 57.0912 139.79 57.0404C139.888 56.9969 139.988 56.9461 140.091 56.8954C140.135 56.8754 140.177 56.8537 140.222 56.8319V54.2771C140.195 54.297 140.162 54.3151 140.133 54.3333L139.955 54.4403C139.787 54.543 139.616 54.6416 139.442 54.7358C138.973 54.9923 138.484 55.2123 137.981 55.394C137.423 55.5953 136.909 55.7222 136.456 55.8002C136.404 55.8093 136.351 55.8183 136.298 55.8256C136.175 55.8455 136.055 55.8618 135.94 55.8727C135.776 55.891 135.611 55.9031 135.446 55.909C135.356 55.9139 135.266 55.9163 135.175 55.9162C134.992 55.9162 134.805 55.9108 134.616 55.8981C134.392 55.88 134.167 55.8564 133.936 55.8201C133.565 55.7567 133.193 55.6624 132.831 55.53C132.778 55.5119 132.722 55.4901 132.673 55.4702C132.635 55.4557 132.6 55.4412 132.566 55.4267C132.506 55.4013 132.446 55.3759 132.387 55.3487C132.26 55.2907 132.137 55.2254 132.017 55.1565C131.957 55.122 131.897 55.0876 131.837 55.0495C131.775 55.0114 131.713 54.9715 131.655 54.9298C131.579 54.8772 131.506 54.8247 131.433 54.7685C131.364 54.7122 131.293 54.6542 131.232 54.6034L131.148 54.5273L131.106 54.4874L131.081 54.4656L131.05 54.433C130.935 54.3206 130.83 54.2045 130.734 54.0903C130.679 54.025 130.63 53.9597 130.581 53.8945C130.534 53.8328 130.49 53.7675 130.448 53.7059C130.355 53.5606 130.269 53.4105 130.192 53.2562C130.154 53.1801 130.118 53.1039 130.087 53.0277C130.032 52.899 129.985 52.7684 129.947 52.6451C129.914 52.549 129.889 52.4548 129.867 52.3623C129.796 52.0957 129.763 51.851 129.743 51.6442C129.738 51.5645 129.732 51.4901 129.729 51.423C129.721 51.3197 129.721 51.2308 129.721 51.1601C129.721 51.113 129.721 51.0604 129.723 50.9987C129.73 50.8519 129.741 50.6669 129.774 50.4566C129.792 50.3278 129.818 50.1918 129.85 50.0468C129.876 49.9525 129.901 49.8546 129.932 49.7549C129.961 49.6642 129.994 49.5735 130.029 49.4792C130.054 49.414 130.079 49.3523 130.108 49.2888C130.145 49.2018 130.187 49.1166 130.232 49.0277C130.265 48.9625 130.303 48.8972 130.341 48.8301C130.427 48.685 130.519 48.54 130.63 48.3967C130.668 48.3442 130.708 48.2934 130.752 48.2426C130.805 48.1773 130.861 48.1102 130.923 48.0468C130.952 48.0141 130.983 47.9815 131.015 47.9489C131.482 47.481 132.011 47.1311 132.558 46.8827C132.642 46.8428 132.729 46.8083 132.816 46.7757C132.902 46.7394 132.987 46.7104 133.076 46.6796C133.169 46.6488 133.267 46.6198 133.362 46.5926C133.451 46.5672 133.541 46.5454 133.632 46.5237C133.721 46.5037 133.814 46.4856 133.903 46.4674C134.001 46.4511 134.101 46.4348 134.198 46.4221C134.297 46.4094 134.397 46.3985 134.492 46.3913C134.679 46.375 134.863 46.3677 135.043 46.3677C135.101 46.3677 135.159 46.3659 135.219 46.3677C135.352 46.3713 135.482 46.375 135.608 46.384C135.699 46.3895 135.782 46.3949 135.866 46.404C136.029 46.4185 136.184 46.4366 136.329 46.462C136.464 46.4801 136.589 46.5037 136.711 46.5255C136.894 46.5635 137.063 46.6053 137.213 46.6433C137.311 46.6687 137.402 46.6959 137.481 46.7195C137.607 46.7558 137.714 46.7884 137.796 46.8174C137.938 46.8682 138.016 46.8954 138.016 46.8954C138.141 46.9407 138.265 46.9897 138.387 47.0368C138.55 47.1021 138.705 47.1746 138.854 47.2417C138.977 47.2961 139.095 47.3541 139.206 47.4103C139.297 47.4538 139.382 47.4974 139.462 47.5391C139.602 47.6116 139.72 47.6769 139.819 47.7295L140.078 47.8709V45.3614C140.078 45.3614 139.922 45.2979 139.651 45.1945C139.531 45.151 139.39 45.0966 139.23 45.0404C139.139 45.0078 139.046 44.9751 138.946 44.9389C138.866 44.9135 138.785 44.8845 138.699 44.8573C138.603 44.8265 138.503 44.7938 138.401 44.763C138.328 44.7412 138.252 44.7177 138.174 44.6959L138.107 44.676C138.032 44.656 137.956 44.6343 137.879 44.6143C137.787 44.5889 137.694 44.5654 137.6 44.5418C137.54 44.5273 137.481 44.5128 137.418 44.4983C137.32 44.4765 137.22 44.4529 137.118 44.433C137.014 44.4112 136.907 44.3931 136.802 44.3732ZM108.891 52.099V55.7817H111.288C111.288 55.7817 111.335 55.7799 111.414 55.7781C111.495 55.7762 111.61 55.7708 111.746 55.7581C112.008 55.7345 112.35 55.6874 112.682 55.575C112.984 55.4734 113.276 55.3229 113.498 55.0981C113.585 55.0129 113.658 54.924 113.714 54.8334C113.903 54.5378 113.951 54.2368 113.958 54.0664C113.967 53.9938 113.965 53.9503 113.965 53.9503C113.965 53.9503 113.967 53.9177 113.965 53.8596C113.962 53.7392 113.945 53.6194 113.916 53.5024C113.871 53.3284 113.787 53.1253 113.636 52.9403C113.607 52.9059 113.576 52.8714 113.545 52.837C113.477 52.7696 113.404 52.7072 113.327 52.6502C113.198 52.5541 113.047 52.4707 112.884 52.4018C112.669 52.3075 112.429 52.2386 112.164 52.1897C112.028 52.1643 111.884 52.1425 111.737 52.128C111.648 52.1208 111.555 52.1135 111.461 52.1099C111.379 52.1044 111.292 52.1008 111.206 52.1008C110.358 52.1008 108.891 52.099 108.891 52.099ZM108.891 46.5012V49.9917H110.052C110.052 49.9917 110.129 49.9916 110.23 49.9898C110.312 49.9844 110.407 49.9808 110.492 49.9771C110.732 49.959 111.061 49.9264 111.39 49.8339C111.455 49.8158 111.521 49.7958 111.584 49.7723C111.844 49.6816 112.091 49.5474 112.284 49.357C112.439 49.2065 112.539 49.0379 112.606 48.8765C112.688 48.6752 112.718 48.4848 112.729 48.3507C112.738 48.2292 112.738 48.1512 112.738 48.1512C112.738 48.1512 112.74 48.0932 112.737 48.0025C112.729 47.852 112.698 47.6036 112.577 47.3661C112.514 47.2434 112.431 47.1319 112.331 47.0361C112.201 46.9073 112.042 46.8094 111.873 46.7351C111.546 46.59 111.172 46.532 110.856 46.512C110.721 46.503 110.596 46.5012 110.489 46.5012H108.891Z" fill="white"/>
<path id="Vector_3" d="M101.233 41.7657H121.191V60.5037H101.233V41.7657ZM106.47 44.3931V57.889H111.561C111.561 57.889 114.043 57.9579 115.415 56.5889C116.529 55.4774 116.451 54.1882 116.451 54.1882C116.451 54.1882 116.529 52.8428 115.497 51.8129C114.617 50.9334 113.494 50.6995 113.494 50.6995C113.494 50.6995 113.999 50.462 114.39 50.074C114.574 49.8908 115.224 49.3052 115.224 47.8836C115.224 46.4511 114.268 45.6279 114.268 45.6279C114.268 45.6279 113.222 44.3931 110.859 44.3931H106.47ZM85.8956 52.099V55.7817H88.2909C88.2909 55.7817 88.34 55.7799 88.4181 55.7781C88.4999 55.7762 88.6126 55.7708 88.7507 55.7581C89.0124 55.7345 89.3541 55.6874 89.6866 55.575C89.9883 55.4734 90.2791 55.3229 90.5044 55.0981C90.5898 55.0129 90.6607 54.924 90.7189 54.8334C90.9079 54.5378 90.9533 54.2368 90.9642 54.0664C90.9697 53.9938 90.9697 53.9503 90.9697 53.9503V53.8596C90.966 53.7889 90.9569 53.6511 90.9206 53.5024C90.8694 53.297 90.7739 53.1051 90.6407 52.9403C90.6118 52.9037 90.5802 52.8691 90.5462 52.837C90.48 52.7696 90.409 52.7072 90.3336 52.6502C90.2009 52.5541 90.0501 52.4707 89.8902 52.4018C89.6739 52.3075 89.4304 52.2386 89.1669 52.1897C89.0324 52.1643 88.887 52.1425 88.7416 52.128C88.6507 52.1208 88.558 52.1135 88.4654 52.1099C88.3813 52.1041 88.297 52.1011 88.2128 52.1008C87.3604 52.1008 85.8956 52.099 85.8956 52.099ZM85.8956 46.5012V49.9917H87.0551C87.0551 49.9917 87.1332 49.9916 87.235 49.9898C87.3168 49.9844 87.4113 49.9808 87.4967 49.9771C87.7348 49.959 88.0655 49.9264 88.3963 49.8339C88.4599 49.8158 88.5253 49.7958 88.5871 49.7723C88.847 49.6816 89.096 49.5474 89.2886 49.357C89.4413 49.2065 89.5431 49.0379 89.6121 48.8765C89.6921 48.6752 89.7212 48.4848 89.7339 48.3507C89.7448 48.2292 89.743 48.1512 89.743 48.1512C89.743 48.1512 89.7466 48.0932 89.7411 48.0025C89.7339 47.852 89.7012 47.6036 89.5812 47.3661C89.5231 47.2518 89.4431 47.1431 89.3359 47.0361C89.205 46.9073 89.0469 46.8094 88.8779 46.7351C88.5508 46.59 88.1764 46.532 87.862 46.512C87.7398 46.5044 87.6174 46.5007 87.4949 46.5012H85.8956Z" fill="white"/>
<path id="Vector_4" d="M78.2377 41.7657H98.1958V60.5037H78.2377V41.7657ZM83.4735 44.3931V57.889H88.5639C88.5639 57.889 91.0482 57.9579 92.4185 56.5889C93.5343 55.4774 93.4544 54.1882 93.4544 54.1882C93.4544 54.1882 93.5343 52.8428 92.5021 51.8129C91.6206 50.9335 90.4957 50.6996 90.4957 50.6996C90.4957 50.6996 91.0046 50.462 91.3953 50.074C91.577 49.8908 92.2276 49.3052 92.2276 47.8836C92.2276 46.4511 91.2717 45.6279 91.2717 45.6279C91.2717 45.6279 90.2249 44.3931 87.8624 44.3931H83.4735ZM85.3873 83.6584H84.9184L79.3973 69.934L73.8253 83.6584H73.3565L66.5523 66.7355H68.9694L73.6036 78.2967L78.2633 66.7355H80.555L85.2401 78.2967L89.8253 66.7355H92.2169L85.3873 83.6584ZM101.391 81.5177C105.162 81.5177 107.948 78.7888 107.948 75.1224C107.948 71.4343 105.162 68.7289 101.391 68.7289C97.6441 68.7289 94.8581 71.4343 94.8581 75.1224C94.8581 78.7888 97.6441 81.5177 101.391 81.5177ZM101.391 66.515C106.938 66.515 110.438 70.4497 110.438 75.1224C110.438 79.6501 107.036 83.7317 101.342 83.7317C95.8449 83.7317 92.3683 79.6736 92.3683 75.1224C92.3683 70.4751 95.943 66.515 101.391 66.515ZM115.862 74.0657H117.416C120.004 74.0657 120.743 72.7384 120.72 71.3349C120.694 69.761 119.757 68.8018 117.416 68.8018H115.862V74.0657ZM117.687 66.7365C121.089 66.7365 123.21 68.5317 123.21 71.4347C123.21 73.3766 122.197 74.829 120.398 75.5416C121.927 76.5498 122.863 78.1001 124.146 80.1908C124.86 81.3458 125.28 81.9115 126.439 83.5108H123.553L121.334 80.0675C119.117 76.6241 118.107 76.2307 116.873 76.2307H115.862V83.5108H113.447V66.7365H117.687ZM130.679 81.3462H138.271V83.5112H128.262V66.7351H130.679V81.3462ZM142.807 81.3462H146.652C152.124 81.3462 153.382 77.1902 153.382 75.1231C153.382 71.7541 151.237 68.9001 146.529 68.9001H142.807V81.3462ZM140.39 66.7351H146.923C153.136 66.7351 155.872 71.163 155.872 75.1231C155.872 79.4278 152.495 83.5112 146.948 83.5112H140.39V66.7351ZM77.6834 91.7271C76.2531 90.3745 74.8738 89.981 73.7397 89.981C72.1859 89.981 71.0773 90.7915 71.0773 91.9737C71.0773 95.1959 78.3485 95.1469 78.3485 100.483C78.3485 103.116 76.3531 105.035 73.6398 105.035C71.817 105.035 70.3377 104.541 68.931 103.484V100.434C70.165 102.008 71.717 102.869 73.369 102.869C75.2427 102.869 76.1059 101.689 76.1059 100.755C76.1059 97.2865 68.8329 96.8931 68.8329 92.2929C68.8329 89.5621 70.8538 87.816 73.936 87.816C75.2172 87.816 76.5003 88.2095 77.6834 88.9964V91.7271ZM90.5268 90.2017H83.4028V95.2697H90.2796V97.4329H83.4028V102.648H90.7485V104.813H80.9857V88.0367H90.5268V90.2017ZM95.7778 95.3669H97.3317C99.9196 95.3669 100.659 94.0396 100.634 92.6379C100.61 91.0622 99.6724 90.103 97.3317 90.103H95.7778V95.3669ZM97.6025 88.0377C101.005 88.0377 103.124 89.8329 103.124 92.7358C103.124 94.6778 102.113 96.1302 100.314 96.8428C101.842 97.8528 102.778 99.4013 104.061 101.492C104.776 102.647 105.195 103.215 106.353 104.812H103.469L101.25 101.369C99.0327 97.9253 98.0204 97.5319 96.7883 97.5319H95.7778V104.812H93.3626V88.0377H97.6025ZM112.151 104.96H111.657L104.386 88.0372H106.801L111.855 99.8196L116.883 88.0372H119.275L112.151 104.96ZM123.564 104.812H121.149V88.0359H123.564V104.812ZM141.61 91.7768C139.54 90.571 137.764 90.0307 135.816 90.0307C131.971 90.0307 129.112 92.7596 129.112 96.4495C129.112 100.214 131.872 102.819 135.914 102.819C137.813 102.819 139.885 102.156 141.782 100.926V103.559C140.13 104.421 138.331 105.033 135.694 105.033C129.383 105.033 126.622 100.188 126.622 96.6708C126.622 91.5556 130.491 87.8167 135.841 87.8167C137.566 87.8167 139.316 88.2338 141.61 89.193V91.7768ZM154.281 90.2017H147.157V95.2697H154.034V97.4329H147.157V102.648H154.503V104.813H144.74V88.0367H154.281V90.2017Z" fill="white"/>
</g>
</g>
</svg>
