<svg width="222" height="147" viewBox="0 0 222 147" fill="none" xmlns="http://www.w3.org/2000/svg">
<g id="Bench_(Philippine_clothing_brand)-Logo.wine">
<g id="Group" opacity="0.6">
<path id="Vector" d="M25.6154 51.1778H196.385V95.6446C180.845 95.5965 165.305 95.638 149.766 95.6247C110.442 95.623 71.1199 95.6247 31.7978 95.6247C29.7376 95.6496 27.6756 95.5649 25.6154 95.6396V51.1778ZM92.8236 62.1248C92.8336 69.6662 92.8203 77.206 92.8303 84.7474C93.8546 84.7706 94.8789 84.7872 95.9015 84.7391C95.9282 79.7369 95.8747 74.7331 95.9299 69.731C96.8104 70.4828 97.5106 71.4138 98.3043 72.252C101.8 76.1903 105.324 80.1054 108.828 84.0387C109.408 84.6694 109.932 85.3565 110.584 85.9208C110.654 78.0076 110.591 70.0911 110.616 62.1763C109.491 62.163 108.368 62.1613 107.244 62.1779C107.242 67.0772 107.296 71.9814 107.217 76.879C106.363 76.1604 105.71 75.2493 104.938 74.4493C100.901 70.0347 96.9391 65.5503 92.8687 61.1656C92.842 61.4842 92.8253 61.8045 92.8236 62.1248ZM126.603 61.8477C123.758 62.4003 121.163 64.0649 119.442 66.3768C117.737 68.6074 116.927 71.4653 117.104 74.2518C117.303 76.5986 118.163 78.9088 119.655 80.751C122.036 83.7997 126.013 85.5374 129.883 85.1938C132.826 85.0279 135.646 83.6371 137.661 81.5194C136.978 80.6332 136.214 79.8066 135.427 79.0117C134.132 80.3278 132.497 81.3617 130.657 81.7003C128.958 81.9874 127.16 81.858 125.577 81.1476C122.92 80.0075 120.939 77.435 120.571 74.5788C120.242 72.4179 120.843 70.1442 122.167 68.4016C123.43 66.6772 125.383 65.5105 127.482 65.1055C129.4 64.8367 131.427 65.0707 133.121 66.0532C133.987 66.4897 134.662 67.1884 135.396 67.8041C136.27 67.1303 137.026 66.3237 137.833 65.5752C135.155 62.4269 130.643 60.973 126.603 61.8477ZM69.2651 62.168C69.2718 69.6911 69.2534 77.2159 69.2752 84.7391C71.7649 84.7989 74.2562 84.7491 76.7459 84.7657C79.9591 84.7491 83.1723 84.7989 86.3855 84.7408C86.3905 83.6504 86.3939 82.5617 86.3788 81.4713C81.7537 81.4646 77.1269 81.4862 72.5017 81.4613C72.5251 79.2473 72.5134 77.035 72.5051 74.8211C76.3348 74.7829 80.1663 74.8244 83.9961 74.7978C84.0261 73.7191 84.0261 72.6387 83.9944 71.5599C80.1747 71.5317 76.3549 71.5649 72.5335 71.5433C72.5067 69.4322 72.48 67.3178 72.5519 65.2084C77.167 65.1869 81.7821 65.2549 86.3955 65.1736C86.3822 64.1728 86.3922 63.1721 86.3905 62.1713C80.6826 62.1647 74.973 62.173 69.2651 62.168ZM157.365 62.1779C157.362 65.4192 157.413 68.6622 157.34 71.9018C154.93 72.0362 152.513 71.9283 150.1 71.9632C148.781 71.93 147.456 72.0462 146.143 71.8868C146.136 68.6555 146.146 65.4242 146.138 62.1945C145.027 62.1481 143.914 62.1647 142.805 62.1829C142.781 65.8175 142.801 69.4521 142.794 73.0851C142.82 76.9819 142.744 80.8804 142.833 84.774C143.922 84.7574 145.013 84.7723 146.103 84.764C146.195 81.5559 146.11 78.3445 146.145 75.1364C149.888 75.1497 153.63 75.1281 157.373 75.1447C157.392 78.3528 157.338 81.5609 157.4 84.769C158.508 84.7474 159.616 84.8071 160.722 84.7275C160.732 77.2093 160.719 69.6911 160.729 62.1746C159.607 62.1663 158.486 62.1597 157.365 62.1779ZM178.902 62.1796C176.374 67.4141 173.834 72.6436 171.299 77.8765C170.235 80.1751 169.001 82.4023 168.044 84.7474C169.189 84.7773 170.333 84.7706 171.479 84.7574C174.729 78.1453 177.911 71.4985 181.136 64.8732C181.545 63.9737 182.053 63.1173 182.386 62.1829C181.223 62.158 180.061 62.1597 178.902 62.1796ZM43.7199 62.1829C43.7049 69.1352 43.7183 76.0891 43.7116 83.0429C43.7116 83.6155 43.7099 84.1881 43.7417 84.7607C47.9491 84.774 52.1548 84.759 56.3622 84.7673C58.1718 84.7524 60.0249 84.1084 61.3082 82.8106C62.6232 81.541 63.4336 79.7303 63.345 77.8964C63.4202 75.6808 62.1737 73.6062 60.446 72.2785C61.6574 71.1782 62.3007 69.5534 62.289 67.9352C62.2556 65.0375 59.811 62.314 56.8585 62.1713C52.479 62.1763 48.0994 62.153 43.7199 62.1829Z" fill="#DE1F27"/>
<path id="Vector_2" d="M46.9649 65.235C49.8188 65.1902 52.6761 65.2383 55.5301 65.2101C56.5059 65.1769 57.5001 65.6101 58.1016 66.3818C58.8586 67.3062 58.9254 68.6953 58.2971 69.7044C57.7324 70.6504 56.6179 71.1848 55.5267 71.1665C52.6895 71.1649 49.8523 71.1699 47.015 71.1632C46.8863 69.1916 46.9749 67.21 46.9649 65.235ZM46.9582 74.3232C50.0361 74.2585 53.1139 74.3132 56.1918 74.295C58.1217 74.2219 59.791 76.0177 59.7575 77.8981C59.7291 79.3005 58.8335 80.663 57.5151 81.1941C56.6212 81.5675 55.6337 81.458 54.6896 81.4729C52.1147 81.453 49.5381 81.5061 46.9649 81.4464C46.9448 79.0731 46.9565 76.6981 46.9582 74.3232Z" fill="#DE1F27"/>
</g>
<path id="Vector_3" d="M25.6154 95.6396C27.6756 95.5649 29.7376 95.6496 31.7978 95.6247C71.1199 95.6247 110.442 95.623 149.766 95.6247C165.305 95.638 180.845 95.5965 196.385 95.6446V95.8222H25.6154V95.6396Z" fill="#C62C33"/>
</g>
</svg>
