<svg width="222" height="147" viewBox="0 0 222 147" fill="none" xmlns="http://www.w3.org/2000/svg">
<g id="Booking.com-Logo.wine">
<g id="Group">
<g id="Group_2">
<path id="Vector" opacity="0.6" d="M92.5979 61.9932C92.5979 60.5644 93.7591 59.4088 95.1884 59.4088C96.6227 59.4088 97.7883 60.5644 97.7883 61.9932C97.7883 63.4205 96.6227 64.5773 95.1884 64.5773C93.7591 64.5773 92.5979 63.4203 92.5979 61.9932Z" fill="#273B7D"/>
<path id="Vector_2" d="M133.549 79.1845C133.549 77.7551 134.71 76.598 136.139 76.598C137.573 76.598 138.738 77.7551 138.738 79.1845C138.738 80.6103 137.573 81.7686 136.139 81.7686C134.71 81.7686 133.549 80.6104 133.549 79.1845Z" fill="#499FDD"/>
<path id="Vector_3" opacity="0.6" d="M50.0014 78.0673C47.7661 78.0673 46.2127 76.3042 46.2127 73.7845C46.2127 71.2654 47.7661 69.5034 50.0014 69.5034C52.2495 69.5034 53.82 71.2654 53.82 73.7845C53.82 76.344 52.2822 78.0675 50.0014 78.0675V78.0673ZM50.0014 65.7392C45.2723 65.7392 41.8403 69.1237 41.8403 73.7845C41.8403 78.4454 45.2723 81.8291 50.0014 81.8291C54.7481 81.8291 58.1944 78.4454 58.1944 73.7845C58.1944 69.1237 54.7481 65.7392 50.0014 65.7392ZM87.5713 74.1868C87.3874 73.8432 87.1766 73.5524 86.9522 73.3215L86.8092 73.1707L86.9597 73.0274C87.1767 72.8002 87.3986 72.5307 87.6126 72.2183L91.7859 66.0565H86.7197L83.5841 70.8765C83.4066 71.1351 83.0483 71.2654 82.5118 71.2654H81.7972V62.1527C81.7972 60.3299 80.6539 60.0818 79.4189 60.0818H77.3045L77.308 81.5921H81.7972V75.1399H82.2177C82.7294 75.1399 83.0779 75.1986 83.2377 75.4749L85.714 80.1175C86.4058 81.3772 87.0952 81.5921 88.392 81.5921H91.8322L89.2701 77.3827L87.5713 74.1868ZM109.364 65.7048C107.081 65.7048 105.624 66.7123 104.807 67.5643L104.535 67.8381L104.439 67.4657C104.199 66.553 103.39 66.0509 102.174 66.0509H100.162L100.174 81.5867H104.633V74.4263C104.633 73.7262 104.725 73.1186 104.911 72.5645C105.407 70.887 106.792 69.8439 108.522 69.8439C109.914 69.8439 110.457 70.5733 110.457 72.4585V79.2249C110.457 80.834 111.207 81.5867 112.828 81.5867H114.95L114.942 71.7056C114.942 67.7799 113.015 65.7048 109.365 65.7048H109.364ZM95.2477 66.0577H93.1345L93.1489 78.0698H93.1475V81.5903H95.4032C95.4315 81.5903 95.4543 81.5933 95.4827 81.5933L96.5334 81.5903H97.5792V81.5842H97.5865L97.5955 68.4161C97.5955 66.8273 96.8308 66.0577 95.2493 66.0577H95.2477ZM67.5141 78.0673C65.279 78.0673 63.7225 76.3042 63.7225 73.7845C63.7225 71.2654 65.279 69.5034 67.5141 69.5034C69.7575 69.5034 71.3324 71.2654 71.3324 73.7845C71.3324 76.344 69.7951 78.0675 67.5141 78.0675V78.0673ZM67.5141 65.7392C62.7803 65.7392 59.3476 69.1237 59.3476 73.7845C59.3476 78.4454 62.7803 81.8291 67.5141 81.8291C72.256 81.8291 75.708 78.4454 75.708 73.7845C75.708 69.1237 72.256 65.7392 67.5141 65.7392Z" fill="#273B7D"/>
</g>
</g>
<g id="Group_3">
<g id="Group_4">
<g id="Group_5">
<path id="Vector_4" d="M163.083 78.0673C160.849 78.0673 159.292 76.3042 159.292 73.7845C159.292 71.2654 160.849 69.5034 163.083 69.5034C165.327 69.5034 166.903 71.2654 166.903 73.7845C166.903 76.344 165.365 78.0675 163.083 78.0675V78.0673ZM163.083 65.7392C158.351 65.7392 154.918 69.1237 154.918 73.7845C154.918 78.4454 158.351 81.8291 163.083 81.8291C167.826 81.8291 171.277 78.4454 171.277 73.7845C171.277 69.1237 167.826 65.7392 163.083 65.7392Z" fill="#499FDD"/>
<path id="Vector_5" opacity="0.6" d="M124.343 77.3838C121.906 77.3838 121.038 75.2715 121.038 73.2921C121.038 72.4199 121.26 69.5775 124.109 69.5775C125.525 69.5775 127.412 69.9805 127.412 73.4384C127.412 76.6998 125.742 77.3838 124.343 77.3838ZM129.727 66.0159C128.881 66.0159 128.229 66.3511 127.903 66.9629L127.78 67.2004L127.573 67.0223C126.854 66.4037 125.563 65.6699 123.468 65.6699C119.299 65.6699 116.492 68.78 116.492 73.4084C116.492 78.0312 119.396 81.2619 123.552 81.2619C124.971 81.2619 126.093 80.9331 126.982 80.2643L127.326 80.0076V80.4395C127.326 82.5145 125.975 83.6592 123.526 83.6592C122.336 83.6592 121.252 83.3714 120.528 83.1103C119.582 82.8269 119.027 83.0615 118.644 84.004L118.29 84.8736L117.789 86.144L118.099 86.3081C119.667 87.1342 121.707 87.6274 123.552 87.6274C127.349 87.6274 131.782 85.697 131.782 80.2643L131.799 66.0159H129.727" fill="#273B7D"/>
</g>
</g>
</g>
<g id="Group_6">
<g id="Group_7">
<path id="Vector_6" opacity="0.6" d="M33.3966 77.8892L29.7672 77.8856V73.5757C29.7672 72.6546 30.1267 72.1756 30.9215 72.0654H33.3966C35.1632 72.0654 36.3047 73.1722 36.306 74.9624C36.3047 76.7997 35.1916 77.8881 33.3966 77.8892ZM29.7672 66.2627V65.1285C29.7672 64.1357 30.1902 63.6636 31.1183 63.6029H32.9754C34.5682 63.6029 35.5221 64.5497 35.5221 66.1335C35.5221 67.3413 34.8691 68.7506 33.034 68.7506H29.7672V66.2627ZM38.0319 70.5642L37.3757 70.1979L37.9485 69.7114C38.6145 69.1425 39.7313 67.8637 39.7313 65.6541C39.7313 62.2731 37.0909 60.091 33.0044 60.091H28.3409V60.0897H27.8099C26.5984 60.1339 25.629 61.1125 25.6155 62.3234V81.5138H27.7557C27.7611 81.5149 27.7629 81.5138 27.7647 81.5149L33.0965 81.5138C37.6393 81.5138 40.5713 79.0579 40.5713 75.2538C40.5713 73.2057 39.6236 71.4546 38.0309 70.5642" fill="#273B7D"/>
<path id="Vector_7" d="M191.194 65.755C189.344 65.755 187.555 66.6155 186.407 68.0585L186.084 68.4652L185.831 68.0102C185.005 66.5146 183.584 65.755 181.607 65.755C179.535 65.755 178.145 66.9035 177.499 67.5862L177.077 68.0408L176.914 67.4429C176.679 66.5825 175.907 66.1085 174.739 66.1085H172.865L172.847 81.5842H177.105V74.7527C177.105 74.1543 177.179 73.5621 177.33 72.9431C177.737 71.2923 178.854 69.5168 180.732 69.6944C181.89 69.8046 182.455 70.6934 182.455 72.4101V81.5842H186.743V74.7527C186.743 74.005 186.813 73.4452 186.983 72.8835C187.328 71.3076 188.494 69.692 190.306 69.692C191.617 69.692 192.102 70.4294 192.102 72.4101V79.3218C192.102 80.8855 192.804 81.5842 194.377 81.5842H196.381L196.385 71.7045C196.385 67.7578 194.635 65.755 191.193 65.755H191.194ZM152.452 76.211C152.44 76.2262 150.607 78.1452 148.195 78.1452C145.998 78.1452 143.777 76.8058 143.777 73.8158C143.777 71.2342 145.499 69.4299 147.963 69.4299C148.763 69.4299 149.673 69.7147 149.816 70.1936L149.837 70.2744C150.165 71.3604 151.158 71.4185 151.354 71.4185L153.686 71.4211V69.3956C153.686 66.7241 150.265 65.7552 147.963 65.7552C143.04 65.7552 139.467 69.1597 139.467 73.8482C139.467 78.5348 143.001 81.9346 147.873 81.9346C152.1 81.9346 154.398 79.1748 154.42 79.1473L154.543 78.9978L152.695 75.9539L152.452 76.2112" fill="#499FDD"/>
</g>
</g>
</g>
</svg>
