<svg width="223" height="147" viewBox="0 0 223 147" fill="none" xmlns="http://www.w3.org/2000/svg">
<g id="Cultuzz-Logo.wine">
<path id="Vector" d="M188.348 83.4491C188.348 82.3247 188.797 81.2463 189.598 80.4512C190.398 79.6561 191.484 79.2094 192.616 79.2094C193.748 79.2094 194.834 79.6561 195.634 80.4512C196.435 81.2463 196.885 82.3247 196.885 83.4491C196.885 84.5736 196.435 85.6519 195.634 86.447C194.834 87.2421 193.748 87.6888 192.616 87.6888C191.484 87.6888 190.398 87.2421 189.598 86.447C188.797 85.6519 188.348 84.5736 188.348 83.4491Z" fill="#009CDC"/>
<path id="Vector_2" opacity="0.6" d="M46.7181 80.3683C45.7506 81.5271 44.3562 83.1665 41.5959 83.1665C37.6973 83.1665 35.933 79.6617 35.933 76.1003C35.933 72.002 38.3803 69.3168 41.7097 69.3168C44.2708 69.3168 45.5514 70.6735 46.7181 71.9172L49.3646 69.9952C47.9987 67.8188 45.6083 64.0879 38.8925 64.0879C32.4897 64.0879 26.1154 68.4406 26.1154 76.4112C26.1154 82.2903 30.64 88.3671 38.551 88.3671C45.6937 88.3671 48.3117 84.0144 49.3361 82.2903L46.7181 80.3683ZM66.581 65.0772V80.6227C66.0118 81.2727 65.1866 82.1772 63.8206 82.1772C61.3164 82.1772 61.3164 79.6334 61.3164 78.8137V65.0489H51.9257V78.9268C51.9257 81.2162 51.9542 83.3926 53.3485 85.258C54.6291 86.9539 56.8487 88.0845 59.666 88.0845C63.593 88.0845 65.5281 85.7103 66.6094 84.3536V87.5192H76.114V65.0772H66.581ZM81.2647 58.5481H90.7692V87.5192H81.2647V58.5481ZM96.2899 66.9992H93.7572V72.3694H96.2899V80.4248C96.2899 82.3468 96.4037 84.5232 98.1965 86.3038C99.7616 87.8301 102.038 88.4519 104.201 88.4519C107.644 88.4519 109.608 87.1518 110.974 86.2756L109.864 83.223C109.38 83.336 108.925 83.4208 108.412 83.4208C105.766 83.4208 105.766 80.9618 105.766 79.9726V72.3694H109.693V66.9992H105.766V61.4876H96.2899V66.9992ZM128.503 65.0772V80.6227C127.934 81.2727 127.109 82.1772 125.743 82.1772C123.238 82.1772 123.238 79.6334 123.238 78.8137V65.0489H113.848V78.9268C113.848 81.2162 113.905 83.3926 115.271 85.258C116.551 86.9539 118.771 88.0845 121.588 88.0845C125.515 88.0845 127.45 85.7103 128.531 84.3536V87.5192H138.036V65.0772H128.503ZM141.792 70.5322H149.817L141.166 83.8165V87.5192H161.94V82.2337H152.976L161.484 68.8081V65.0206H141.792V70.5322ZM165.041 70.5322H173.066L164.415 83.8165V87.5192H185.16V82.2337H176.197L184.705 68.8081V65.0206H165.041" fill="#004990"/>
</g>
</svg>
