<svg width="223" height="147" viewBox="0 0 223 147" fill="none" xmlns="http://www.w3.org/2000/svg">
<g id="Disney+-Logo.wine">
<g id="Group">
<path id="Vector" opacity="0.6" d="M103.607 89.8775C103.702 89.8904 103.723 89.8941 103.815 89.906C105.36 90.1136 106.878 90.3889 108.04 90.9025C109.117 91.3727 109.748 91.9677 110.325 93.0283C111.201 94.6366 111.258 96.8897 110.466 98.595C109.875 99.8639 108.576 100.928 107.39 101.492C106.159 102.082 104.946 102.363 103.554 102.52C101.121 102.785 98.4928 102.287 96.3031 101.24C95.0077 100.614 93.4257 99.5367 92.6277 98.1489C92.0409 97.1323 92.0596 95.8095 92.7735 94.8432C93.9115 93.303 96.3489 92.964 98.1847 93.0283C99.5843 93.0819 102.104 93.5096 103.433 93.9771C103.802 94.1087 105.16 94.632 105.397 94.872C105.564 95.0389 105.672 95.2814 105.597 95.5057C105.294 96.424 103.037 96.908 102.385 97.0052C100.641 97.2695 99.7354 96.6166 97.7521 95.8424C97.2598 95.6517 96.6036 95.4402 96.1024 95.3944C95.202 95.3096 94.1145 95.5589 93.9426 96.5308C93.8571 97.0317 94.4512 97.5002 94.9042 97.6971C95.9681 98.1489 96.833 98.3114 97.8801 98.3254C100.973 98.3757 104.449 97.8721 106.979 96.0997C107.326 95.8552 107.666 95.4975 107.67 95.0465C107.681 94.1359 106.066 93.579 106.066 93.579C104.362 92.8765 101.213 92.5345 99.5905 92.4024C97.8881 92.2567 95.2095 92.0387 94.5665 91.9451C93.9043 91.8517 93.1851 91.7195 92.6116 91.4654C92.0356 91.2081 91.4721 90.6323 91.3048 89.9952C91.0082 88.8468 91.3867 87.4376 92.0316 86.5201C93.7221 84.117 97.6821 83.2043 100.64 82.8419C103.504 82.4896 108.133 82.4931 110.945 83.9708C111.379 84.201 111.601 84.4151 111.51 84.874C111.327 85.7357 110.672 86.291 109.878 86.5344C109.045 86.7964 107.323 86.8986 106.566 86.9457C103.175 87.1336 99.0781 87.0351 95.8485 87.9059C95.5955 87.9773 95.1584 88.0938 95.0164 88.2507C94.5109 88.7933 95.9547 88.9484 96.264 89.0104C96.3559 89.0321 96.3738 89.0352 96.4697 89.0455L103.607 89.8775ZM83.4362 74.9281C83.4362 74.9281 83.9877 74.1103 84.4498 73.4898C85.2912 72.3598 86.814 70.7928 87.9607 69.8226C88.3115 69.5262 88.7251 69.1906 88.7251 69.1906C88.7251 69.1906 88.0782 69.2567 87.7116 69.3308C86.8416 69.4983 85.5658 70.3367 84.9284 70.8784C83.8765 71.7687 82.7199 73.216 83.2432 74.5021C83.3192 74.6837 83.4362 74.9281 83.4362 74.9281ZM89.2836 76.4754C90.9453 76.3621 92.5018 75.889 93.951 75.0942C95.3722 74.3079 97.4625 72.7745 97.2457 70.972C97.1798 70.3886 96.7935 69.9481 96.3059 69.7425C95.672 69.4709 95.3415 69.5147 94.5318 69.7527C93.9436 69.9228 93.6786 70.0261 93.1231 70.3404C91.493 71.2768 89.1817 73.281 87.9269 74.8805C87.6373 75.2577 87.344 75.6795 87.1145 75.9687C86.9697 76.147 86.8572 76.3107 86.8713 76.3543C86.9213 76.5356 88.6347 76.519 89.2836 76.4754ZM85.0528 79.5481C84.8814 79.7274 84.7001 80.1596 84.5121 80.4725C84.4116 80.6399 84.2255 80.8555 84.1023 80.942C83.6698 81.2565 83.3034 81.2711 82.8859 80.9078C82.3005 80.3957 81.9618 79.6038 81.9378 78.8334C81.9253 78.4972 81.9836 78.1252 81.9193 77.8418C81.8128 77.3633 81.3285 76.8704 81.0674 76.413C80.7609 75.8741 80.5129 74.9344 80.482 74.3277C80.3768 72.436 81.3853 70.6934 82.6953 69.319C84.0146 67.9291 85.7406 66.7741 87.6178 65.9877C89.3922 65.2487 91.9924 64.745 93.9409 65.4122C94.5752 65.6271 95.459 66.1609 95.9031 66.7201C95.9974 66.8361 96.0743 66.9617 96.171 67.0231C96.2577 67.0777 96.4843 67.0992 96.6645 67.132C97.286 67.2385 98.1808 67.7037 98.5463 68.0136C99.2807 68.64 99.6829 69.2387 99.869 70.1077C100.242 71.8561 99.2241 73.7743 98.0643 74.9417C96.0784 76.951 94.1172 78.3637 91.5767 79.3471C90.4609 79.7781 88.723 80.1808 87.4571 80.0682C87.0639 80.0359 86.6601 79.9335 86.2772 79.9084C86.0818 79.8918 85.3676 79.7096 85.2912 79.6582C85.1965 79.5863 85.0742 79.5237 85.0528 79.5481ZM87.3217 83.4245C87.3991 83.4374 87.5183 83.4716 87.6209 83.5107C88.5115 83.8456 88.8779 84.6607 89.0973 85.5559C89.6057 87.6347 89.8227 92.2336 89.9073 94.0337C89.9694 95.3849 90.0035 96.7142 90.0608 98.0497C90.1094 99.1807 90.2006 100.684 89.9622 101.744C89.8756 102.125 89.6177 102.568 89.2486 102.795C88.8258 103.063 87.8633 103.083 87.3342 102.975C86.0302 102.709 85.6065 101.88 85.4204 100.604C84.978 97.5617 85.191 91.5901 85.4521 89.0703C85.5389 88.238 85.8559 85.5713 86.2954 84.4532C86.4455 84.0762 86.7651 83.3168 87.3217 83.4245ZM47.6511 88.487C47.6511 88.487 45.7103 88.6229 44.3746 88.7694C42.6751 88.9504 39.482 89.4955 37.6388 90.1463C37.0859 90.3421 35.9629 90.8068 35.8653 91.3689C35.7627 91.9516 36.1284 92.4071 36.5351 92.8785C36.7703 93.1523 38.1014 94.4184 38.4747 94.7261C40.0393 96.0177 43.2119 98.0097 45.5486 98.977C46.3514 99.3054 47.6794 99.7756 47.6794 99.7756C47.6794 99.7756 47.5808 96.0366 47.5985 92.3535C47.6088 90.4106 47.6511 88.487 47.6511 88.487ZM83.2374 89.975C83.3485 90.9795 83.0875 92.8787 83.0422 93.1292C82.9595 93.7066 82.5192 95.0384 82.4461 95.2009C82.0907 96.0103 81.7402 96.6735 81.3688 97.335C80.7324 98.4675 79.2191 100.263 78.3208 101.031C74.9801 103.886 69.8085 105.512 65.3719 106.047C62.3614 106.407 58.9021 106.354 55.7122 105.771C54.6144 105.573 52.9806 105.201 52.9806 105.201C52.9806 105.201 52.986 105.847 52.9336 106.301C52.9082 106.508 52.7504 107.054 52.6619 107.23C52.43 107.704 52.0492 107.949 51.4955 108.054C50.8272 108.176 50.1184 108.217 49.5008 107.956C48.4869 107.534 48.1228 106.596 47.9462 105.515C47.8033 104.649 47.6537 103.145 47.6537 103.145C47.6537 103.145 46.8952 102.79 46.2627 102.478C44.32 101.532 42.475 100.385 40.8608 99.2057C40.4136 98.8756 38.4924 97.2846 38.0683 96.8896C36.8792 95.7733 35.8095 94.6629 34.9957 93.2379C34.3631 92.1247 34.1809 91.1367 34.6621 89.9572C35.3256 88.3131 37.7095 87.0753 39.341 86.3699C40.5385 85.8471 44.262 84.6449 45.8088 84.422C46.5394 84.3187 47.6726 84.1181 47.7422 84.0733C47.7707 84.0517 47.7904 84.0334 47.811 84.0102C47.8467 83.9605 47.9069 82.333 47.8952 81.7377C47.8801 81.1523 48.3333 77.3078 48.479 76.4949C48.555 76.0552 48.8917 74.3628 49.2354 73.9186C49.4603 73.6184 49.858 73.6426 50.1822 73.8397C51.9562 74.9305 52.4952 78.7134 52.6271 80.6382C52.706 81.8109 52.7453 83.5749 52.7453 83.5749C52.7453 83.5749 54.7804 83.5154 56.0323 83.5505C57.2488 83.5785 58.5898 83.7683 59.8525 83.9673C61.469 84.2236 64.62 84.9032 66.4272 85.8091C67.9153 86.5551 69.3082 87.8119 69.7595 89.1421C70.1787 90.3614 70.1159 91.2053 69.4773 92.3057C68.7592 93.5483 67.401 94.4719 66.0239 94.549C65.6141 94.5724 64.0716 94.3698 63.597 94.0064C63.4108 93.8616 63.4204 93.6002 63.5548 93.423C63.6057 93.3607 64.3267 92.9816 64.7523 92.7605C64.9533 92.6542 65.1402 92.5238 65.3087 92.372C65.6623 92.0642 65.9805 91.7253 65.945 91.3281C65.8961 90.8124 65.3442 90.4944 64.8183 90.2898C62.3506 89.3205 57.4235 88.5158 55.0425 88.3766C54.1106 88.3225 52.7849 88.2762 52.7849 88.2762L53.0652 101.276C53.0652 101.276 54.1612 101.483 55.0249 101.621C55.5204 101.696 57.6202 101.883 58.1782 101.896C62.4269 102.007 67.1689 101.631 71.068 99.8115C72.7797 99.015 74.3502 98.0233 75.5391 96.6808C77.1061 94.9044 77.9267 92.4733 77.7096 89.934C77.4715 87.1608 75.4976 83.8687 73.9213 81.8642C69.7566 76.5683 62.6176 72.2119 56.337 69.6579C49.9249 67.0521 43.5876 65.553 36.7825 65.302C35.0281 65.2377 31.203 65.3252 29.2694 65.8541C28.9933 65.9311 28.7149 66.023 28.4584 66.08C28.2558 66.129 27.9366 66.2617 27.8489 66.3317C27.8146 66.3603 27.7823 66.3912 27.7524 66.4243C27.7524 66.4243 27.8716 66.4895 27.9855 66.5371C28.1903 66.6255 29.0524 66.6784 29.4986 66.7591C29.8978 66.8334 30.3134 67.0407 30.4779 67.3299C30.6342 67.6048 30.6538 67.8216 30.4669 68.0509C30.0288 68.5778 28.3798 68.4889 27.6537 68.3752C26.8991 68.2563 25.9596 68.028 25.787 67.3784C25.5869 66.6133 25.9545 65.8632 26.3516 65.1698C27.1494 63.7826 28.2922 63.061 29.9657 62.6092C32.3427 61.9624 35.3441 61.5102 37.5887 61.4254C42.669 61.2356 47.4772 62.1141 52.3995 63.5918C55.2166 64.4341 58.9049 65.8475 61.6051 67.133C63.5426 68.0567 66.5953 69.7554 68.3101 70.8655C68.851 71.2185 72.0161 73.518 72.5077 73.9222C73.5333 74.7512 74.8747 75.9429 75.8462 76.896C77.7255 78.7375 80.0631 81.5603 81.1987 83.8007C81.4719 84.3372 81.6836 84.865 82.0361 85.4868C82.1574 85.6999 82.6761 86.974 82.7624 87.3421C82.8478 87.7063 82.973 88.2416 82.9907 88.2628C83.0158 88.4583 83.2563 89.553 83.2374 89.975ZM147.105 87.1006C144.726 87.643 138.47 87.9442 138.47 87.9442L137.681 90.3877C137.681 90.3877 140.807 90.1238 143.082 90.3587C143.082 90.3587 143.819 90.2741 143.905 91.1859C143.935 92.0364 143.832 92.9489 143.832 92.9489C143.832 92.9489 143.785 93.501 142.994 93.6414C142.136 93.7827 136.255 94.0076 136.255 94.0076L135.303 97.1927C135.303 97.1927 134.949 97.929 135.742 97.7188C136.479 97.5238 142.641 96.3804 143.444 96.5449C144.304 96.7561 145.256 97.8899 144.981 98.9232C144.653 100.204 138.502 104.083 134.757 103.812C134.757 103.812 132.788 103.937 131.125 101.311C129.576 98.8081 131.712 94.069 131.712 94.069C131.712 94.069 130.733 91.8567 131.442 91.1069C131.442 91.1069 131.865 90.728 133.096 90.6423L134.603 87.5585C134.603 87.5585 132.886 87.6754 131.865 86.4263C130.913 85.2414 130.833 84.6968 131.563 84.3696C132.343 83.9886 139.494 82.6982 144.414 82.8619C144.414 82.8619 146.124 82.6958 147.608 85.6288C147.608 85.629 148.326 86.8151 147.105 87.1006ZM128.598 98.9577C127.967 100.424 126.301 101.99 124.232 101.017C122.189 100.042 118.935 93.4565 118.935 93.4565C118.935 93.4565 117.7 91.001 117.462 91.0643C117.462 91.0643 117.195 90.5848 117.032 93.2681C116.861 95.9401 117.064 101.15 115.986 101.97C114.965 102.792 113.729 102.465 113.088 101.504C112.505 100.558 112.262 98.3091 112.58 94.3592C112.954 90.4018 113.884 86.1913 115.072 84.8801C116.258 83.5778 117.21 84.5233 117.581 84.8662C117.581 84.8662 119.168 86.2883 121.785 90.464L122.247 91.2365C122.247 91.2365 124.624 95.1815 124.873 95.1724C124.873 95.1724 125.067 95.3537 125.24 95.2234C125.49 95.1529 125.389 93.8879 125.389 93.8879C125.389 93.8879 124.896 89.5885 122.727 82.3113C122.727 82.3113 122.399 81.4039 122.62 80.5536C122.841 79.6943 123.712 80.0977 123.712 80.0977C123.712 80.0977 127.074 81.7692 128.706 87.1818C130.327 92.5961 129.238 97.48 128.598 98.9577ZM164.783 95.716C163.252 98.3564 158.932 103.885 153.189 102.58C151.293 107.127 149.7 111.726 148.789 118.608C148.789 118.608 148.589 119.946 147.465 119.481C146.351 119.096 144.516 117.264 144.145 114.731C143.746 111.403 145.244 105.777 148.307 99.3257C147.413 97.8899 146.804 95.8386 147.326 92.9177C147.326 92.9177 148.095 87.4936 153.604 82.6048C153.604 82.6048 154.265 82.0408 154.648 82.2145C155.069 82.3893 154.874 84.1544 154.539 85.0126C154.192 85.8659 151.739 90.0644 151.739 90.0644C151.739 90.0644 150.209 92.9009 150.64 95.1381C153.529 90.7456 160.097 81.888 164.168 84.6812C165.536 85.6487 166.166 87.7531 166.166 90.0207C166.167 92.0124 165.681 94.1294 164.783 95.716ZM163.595 88.7594C163.595 88.7594 163.368 87.013 161.641 88.937C160.156 90.5605 157.477 93.6024 155.321 97.7341C157.584 97.4829 159.766 96.2691 160.426 95.6509C161.499 94.7097 163.998 92.1561 163.595 88.7594ZM196.414 88.3618H185.891C185.681 84.8252 185.249 81.3801 184.571 77.8321C184.537 77.6544 184.442 77.4939 184.302 77.3782C184.161 77.2625 183.984 77.199 183.802 77.1986H181.376C181.271 77.1989 181.167 77.2221 181.072 77.2666C180.978 77.3111 180.894 77.3758 180.828 77.4561C180.76 77.5366 180.712 77.6309 180.686 77.7321C180.66 77.8333 180.657 77.9389 180.677 78.0414C181.366 81.4748 181.803 84.854 182.018 88.3652H171.894C171.422 88.3652 171.039 88.7429 171.039 89.2075V91.3711C171.039 91.5953 171.13 91.8103 171.29 91.9688C171.45 92.1274 171.667 92.2167 171.894 92.2172H182.163C182.17 92.7511 182.175 93.2293 182.175 93.6779C182.175 96.7961 182.039 99.3647 181.721 102.263C181.709 102.374 181.721 102.485 181.755 102.591C181.79 102.696 181.848 102.793 181.924 102.875C181.998 102.957 182.088 103.022 182.189 103.067C182.29 103.112 182.399 103.135 182.51 103.135H184.76C184.972 103.135 185.175 103.058 185.332 102.918C185.489 102.777 185.587 102.584 185.607 102.376C185.915 99.4577 186.046 96.8572 186.046 93.6777C186.046 93.2308 186.042 92.751 186.035 92.217H196.415C196.885 92.217 197.269 91.8366 197.269 91.371V89.2074C197.269 88.9833 197.179 88.7684 197.019 88.6099C196.858 88.4515 196.641 88.3622 196.414 88.3618Z" fill="#101C50"/>
<path id="Vector_2" opacity="0.6" d="M55.7009 59.369C55.6275 59.4764 55.5803 59.5992 55.563 59.7277C55.5457 59.8562 55.5589 59.9869 55.6014 60.1096C55.6441 60.2323 55.7144 60.3438 55.8071 60.4357C55.8997 60.5277 56.0123 60.5976 56.1362 60.6403L58.0226 61.268C58.1321 61.3028 58.2463 61.321 58.3613 61.3218C58.5335 61.3221 58.7032 61.2804 58.8553 61.2004C59.0074 61.1205 59.1373 61.0047 59.2334 60.8633C65.4125 51.8875 73.7753 44.4141 83.4192 39.251C93.3753 33.92 104.655 31.1001 116.044 31.1001C129.799 31.1001 143.071 35.1122 154.426 42.7018C165.505 50.1048 174.109 60.4334 179.309 72.5712C179.384 72.7485 179.511 72.8997 179.673 73.006C179.836 73.1123 180.026 73.1689 180.22 73.1687H182.473C182.602 73.1683 182.728 73.1367 182.842 73.0768C182.955 73.0168 183.052 72.9304 183.124 72.8249C183.196 72.7194 183.241 72.5979 183.255 72.4712C183.268 72.3444 183.25 72.2163 183.201 72.0983C177.839 59.0476 168.773 47.9224 156.978 39.9296C144.904 31.7469 130.749 27.4208 116.044 27.4208C91.7331 27.4208 69.1743 39.3645 55.7009 59.369Z" fill="url(#paint0_linear_1_212)"/>
</g>
</g>
<defs>
<linearGradient id="paint0_linear_1_212" x1="185.348" y1="57.1659" x2="58.2887" y2="39.7921" gradientUnits="userSpaceOnUse">
<stop stop-color="#101C50"/>
<stop offset="0.236" stop-color="#0D267A"/>
<stop offset="0.497" stop-color="#085AA4"/>
<stop offset="0.655" stop-color="#058BBF"/>
<stop offset="1" stop-color="#B1FFFF"/>
</linearGradient>
</defs>
</svg>
