<svg width="223" height="147" viewBox="0 0 223 147" fill="none" xmlns="http://www.w3.org/2000/svg">
<g id="Nestl&#195;&#169;-Logo.wine">
<g id="Group">
<path id="Vector" d="M117.056 62.0374C116.817 62.3246 116.683 62.6454 116.683 63.203V78.5367H116.597C116.597 78.5367 108.147 63.574 107.739 62.8823C107.45 62.3917 107.127 62.0541 106.701 61.8004C106.276 61.5647 105.834 61.4127 104.984 61.4127H102.196C101.549 61.4127 101.142 61.6317 100.853 61.9704C100.614 62.2564 100.478 62.5783 100.478 63.1348V84.8698C100.478 85.4275 100.614 85.7482 100.853 86.0354C101.142 86.3729 101.549 86.5918 102.196 86.5918H103.777C104.423 86.5918 104.831 86.3729 105.121 86.0354C105.358 85.7482 105.494 85.4275 105.494 84.8698V69.1639H105.58C105.58 69.1639 114.352 84.5993 114.71 85.1737C115.203 85.9839 116.035 86.5918 117.226 86.5918H119.93C120.575 86.5918 120.984 86.3729 121.273 86.0354C121.51 85.7482 121.647 85.4275 121.647 84.8698V65.2626H157.165C157.523 65.2626 157.794 65.1621 157.999 64.9933C158.219 64.7899 158.322 64.5194 158.322 64.1149V62.6286C158.322 62.2229 158.219 61.9524 157.999 61.7502C157.794 61.5814 157.523 61.4798 157.165 61.4798H118.399C117.754 61.4798 117.345 61.7 117.056 62.0374ZM132.563 67.8463C126.662 67.8463 123.347 72.4238 123.347 77.2538C123.347 82.4045 126.901 86.9305 132.596 86.9305C135.436 86.9305 138.224 85.8666 139.822 83.9914C140.52 83.1812 141.081 82.0491 141.081 81.3574C141.081 81.1204 141.029 80.9182 140.894 80.7662C140.758 80.5974 140.553 80.4957 140.197 80.4957H137.459C136.915 80.4957 136.541 80.6979 136.269 81.1036C135.47 82.2692 134.313 82.8772 132.613 82.8772C130.063 82.8772 128.414 80.9517 128.295 78.8406H140.129C140.656 78.8406 141.029 78.7222 141.285 78.4697C141.574 78.1992 141.71 77.8103 141.71 77.0839C141.71 74.8723 141.012 72.5758 139.551 70.819C138.054 69.0454 135.776 67.8463 132.563 67.8463ZM150.806 67.8463C146.148 67.8463 143.087 70.0423 143.087 73.5547C143.087 74.8041 143.546 75.8177 144.295 76.6112C145.162 77.541 146.403 78.1824 148.205 78.6384L152.098 79.6173C153.17 79.8878 154.121 80.2085 154.121 81.1372C154.121 82.5732 152.591 83.0627 150.96 83.0627C150.16 83.0627 149.327 82.9107 148.646 82.5732C148.171 82.3363 147.763 81.9988 147.474 81.5428C147.219 81.1539 147.134 80.8667 146.743 80.6477C146.504 80.5125 146.215 80.4957 145.825 80.4957H143.716C143.257 80.4957 143.037 80.6309 142.884 80.8164C142.731 81.0019 142.679 81.2724 142.679 81.5428C142.679 82.2178 142.917 83.0627 143.479 83.8226C144.77 85.5447 147.474 86.9305 150.925 86.9305C154.326 86.9305 159.036 85.528 159.036 81.002C159.036 79.8375 158.695 78.8406 158.066 78.0304C157.267 77.0001 156.129 76.2904 154.19 75.801L150.331 74.8208C148.732 74.4163 147.984 74.1291 147.984 73.149C147.984 72.2036 148.834 71.4437 150.806 71.4437C151.962 71.4437 153.016 71.6974 153.697 72.4071C154.258 72.9982 154.156 73.3022 154.599 73.538C154.87 73.6732 155.176 73.6732 155.653 73.6732H157.573C157.879 73.6732 158.101 73.6229 158.27 73.4362C158.407 73.2842 158.491 73.0485 158.491 72.6596C158.491 71.7812 157.913 70.6503 156.894 69.7886C155.533 68.623 153.391 67.8463 150.806 67.8463ZM161.399 68.489H160.447C160.09 68.489 159.818 68.5895 159.614 68.7582C159.393 68.9617 159.29 69.2321 159.29 69.6366V70.8022C159.29 71.2079 159.393 71.4772 159.614 71.6806C159.818 71.8494 160.09 71.9511 160.447 71.9511H161.399V80.3772C161.399 82.5385 161.994 83.8896 163.099 84.9715C164.119 85.9671 165.446 86.5918 167.758 86.5918H169.203C169.561 86.5918 169.832 86.4913 170.037 86.3226C170.257 86.1191 170.393 85.8487 170.393 85.4442V83.9746C170.393 83.569 170.257 83.2997 170.037 83.0962C169.832 82.9275 169.561 82.8258 169.203 82.8258H168.999C168.081 82.8258 167.452 82.59 167.027 82.1843C166.517 81.7116 166.262 80.9852 166.262 80.0398V71.9511H169.357C169.714 71.9511 169.986 71.8494 170.19 71.6806C170.41 71.4772 170.512 71.2079 170.512 70.8022V69.6366C170.512 69.2321 170.41 68.9617 170.19 68.7582C169.986 68.5895 169.714 68.489 169.357 68.489H166.279V62.9828C166.279 62.5436 166.142 62.2229 165.939 61.9704C165.683 61.6664 165.327 61.4798 164.8 61.4798H162.878C162.351 61.4798 161.994 61.6664 161.739 61.9704C161.535 62.2229 161.399 62.5436 161.399 62.9828V68.489ZM171.805 85.0888C171.805 85.528 171.94 85.8487 172.145 86.1024C172.399 86.4063 172.757 86.5918 173.284 86.5918H175.307C175.834 86.5918 176.191 86.4063 176.446 86.1024C176.65 85.8487 176.786 85.528 176.786 85.0888V62.984C176.786 62.5448 176.65 62.2241 176.446 61.9704C176.191 61.6664 175.834 61.4798 175.307 61.4798H173.284C172.757 61.4798 172.399 61.6664 172.145 61.9704C171.94 62.2241 171.805 62.5448 171.805 62.984V85.0888ZM128.329 75.2433C128.549 73.1658 130.148 71.6124 132.58 71.6124C134.96 71.6124 136.609 73.1658 136.83 75.2433H128.329ZM195.2 65.2626C195.557 65.2626 195.829 65.1621 196.033 64.9933C196.254 64.7899 196.357 64.5194 196.357 64.1149V62.5436C196.357 61.9357 196.238 61.6317 196.033 61.4127C195.846 61.2093 195.54 61.092 195.2 61.092C194.928 61.092 194.657 61.1255 194.198 61.1758L180.629 62.5101C180.238 62.5436 180.051 62.6621 179.915 62.8141C179.762 62.9828 179.694 63.203 179.694 63.507V64.3842C179.694 64.7229 179.762 64.8748 179.881 65.01C180.033 65.1788 180.255 65.2626 180.561 65.2626H195.2ZM187.702 67.8463C181.802 67.8463 178.486 72.4238 178.486 77.2538C178.486 82.4045 182.041 86.9305 187.736 86.9305C190.576 86.9305 193.364 85.8666 194.962 83.9914C195.659 83.1812 196.221 82.0491 196.221 81.3574C196.221 81.1204 196.169 80.9182 196.033 80.7662C195.898 80.5974 195.693 80.4957 195.336 80.4957H192.599C192.054 80.4957 191.681 80.6979 191.408 81.1036C190.61 82.2692 189.453 82.8772 187.753 82.8772C185.202 82.8772 183.553 80.9517 183.435 78.8406H195.303C195.829 78.8406 196.204 78.7222 196.458 78.4697C196.747 78.1992 196.883 77.8103 196.883 77.0839C196.883 74.8723 196.186 72.5758 194.724 70.819C193.228 69.0454 190.916 67.8463 187.702 67.8463ZM183.468 75.2433C183.69 73.1658 185.288 71.6124 187.719 71.6124C190.1 71.6124 191.748 73.1658 191.97 75.2433H183.468ZM81.3021 65.4651C76.9007 58.9441 73.0331 56.7469 71.9451 55.7129C70.7499 54.5724 69.839 53.28 69.2595 52.6577C67.9703 51.2587 66.3015 49.5318 63.5568 49.5318C60.9073 49.5318 59.1567 51.2468 58.588 52.7283C58.4229 53.1508 58.2927 53.6677 58.1747 53.8556C57.9144 54.2792 56.7433 56.2646 56.2577 57.0521H58.447L57.3819 59.0494C58.6241 58.779 59.5109 58.5791 60.6941 58.5791C61.7471 58.5791 62.5038 58.8268 62.8351 59.4838C63.4508 60.7069 63.4508 64.4072 64.4918 67.1931C65.4617 69.8116 67.8281 72.3738 70.4896 74.3364C70.5245 74.3598 70.5657 74.3719 70.6077 74.3711C70.7378 74.3711 70.821 74.2778 70.821 74.1832C70.821 74.1126 70.7969 74.066 70.7378 74.0073C68.5136 71.7982 66.704 69.3544 65.734 66.6761C64.775 64.0673 64.9292 60.4005 64.0894 58.767C63.5327 57.6863 62.3508 57.4051 61.2616 57.4051C60.3868 57.4051 59.5699 57.581 59.1916 57.6624L60.1495 56.0528H58.5289C58.8723 55.4544 59.2265 54.9015 59.4048 54.5724C59.5579 54.29 59.6181 53.9382 59.8073 53.4571C60.4218 51.917 61.7821 50.9416 63.5568 50.9416C65.781 50.9416 67.0823 52.3633 68.3715 53.785C68.9631 54.4432 69.933 55.8182 71.0571 56.8402C71.8259 57.5451 73.2934 58.3326 75.5525 60.6482C76.8538 61.9874 78.3683 63.7262 79.9647 66.0527C85.6794 74.3591 89.429 81.6795 91.523 87.3903L91.4881 87.4143C85.4903 83.3717 80.2961 79.5529 76.1092 74.8414C73.1392 71.493 70.5607 67.6156 68.3124 62.6683C68.1582 62.3392 68.0293 62.0341 67.8871 61.7169C67.8281 61.5877 67.769 61.5518 67.6739 61.5518C67.5558 61.5518 67.4727 61.6343 67.4727 61.7516C67.4727 61.8809 67.5317 62.1633 67.6618 62.727C68.8571 67.8501 72.1693 72.4444 75.7067 76.2631C79.2322 80.0591 83.2179 83.325 86.4951 85.6993L89.0506 92.9599C89.1097 93.137 89.1808 93.3249 89.1808 93.5008C89.1808 93.6301 89.1446 93.7353 89.0627 93.8059C88.9916 93.8765 88.8976 93.9125 88.6844 93.9125H87.9157C87.5843 93.9125 87.453 93.8646 87.3349 93.7712C87.2168 93.6767 87.1349 93.5355 87.0747 93.3716C86.8506 92.6894 85.5011 88.8707 85.242 88.0952C85.1938 87.9552 85.1107 87.9073 85.0168 87.9073C84.9903 87.9072 84.9641 87.9122 84.9396 87.9222C84.9151 87.9322 84.8928 87.9469 84.8741 87.9655C84.8554 87.9841 84.8406 88.0062 84.8305 88.0305C84.8205 88.0548 84.8154 88.0809 84.8155 88.1072C84.8155 88.2017 84.8505 88.307 84.9107 88.6361C85.2529 90.375 85.6553 92.3256 85.8204 93.0664C85.8927 93.4063 85.9746 93.7246 85.9746 93.9592C85.9746 94.1698 85.9276 94.2883 85.7505 94.4642L84.9577 95.2636C84.7685 95.4515 84.6613 95.4981 84.5083 95.4981C84.3191 95.4981 84.1649 95.3689 84.0938 95.0398C83.195 90.868 81.8347 85.6994 81.4793 84.2645C81.3961 83.9485 81.3371 83.7714 81.1479 83.7714C80.9829 83.7714 80.9238 83.8887 80.9238 84.0299C80.9238 84.1352 80.9467 84.2644 80.9587 84.359C81.172 85.8393 82.0359 91.233 82.9697 96.1564C83.1359 97.0025 83.4552 97.4716 84.189 97.4716C84.5203 97.4716 84.8384 97.3423 85.1348 97.0611C85.6204 96.5788 85.7614 96.4496 86.3421 95.8859C86.7554 95.4862 87.0397 95.3222 87.7494 95.3222H89.5001C89.9146 95.3222 90.1386 95.2169 90.3399 95.0279C90.529 94.8519 90.6471 94.6054 90.6471 94.2524C90.6471 93.8886 90.5531 93.5954 90.423 93.2304C89.9736 92.0324 88.5301 87.9779 88.1036 86.8386L88.1398 86.8147C89.6182 87.9312 91.7712 89.353 92.7183 89.353C93.0135 89.353 93.1918 89.2237 93.1918 88.7654C93.1918 86.6041 89.5711 77.7088 81.3021 65.4651ZM40.6897 51.8113C40.9379 51.2704 41.4825 50.8945 42.1332 50.8945C43.0199 50.8945 43.7296 51.5767 43.7296 52.4814C43.7296 53.0092 43.4814 53.4687 43.0911 53.75C43.1742 54.0563 43.2332 54.3255 43.2332 54.584C43.2332 55.5713 42.6416 56.2643 41.5536 56.6293C41.4115 57.2277 41.1512 57.7685 40.7247 58.1682C40.015 58.8492 39.2933 58.8492 39.2933 59.1317C39.2933 59.2848 39.4005 59.3782 39.6957 59.3782C41.009 59.3782 42.2983 58.6506 42.4525 57.4395C43.7067 57.017 44.4634 55.7592 44.4634 54.7612C44.4634 54.5015 44.4393 54.2789 44.3333 54.0683C44.6767 53.738 45.0791 53.1743 45.0791 52.3402C45.0791 51.6114 44.7586 50.8718 44.1911 50.3309C43.6947 49.8486 42.9959 49.5315 42.1802 49.5315C40.997 49.5315 40.2283 50.167 39.7909 50.7893C38.5005 50.7893 36.833 52.2109 36.833 54.2442H36.6558C36.5366 53.5393 35.804 53.0678 35.1883 53.0331C34.6919 51.5528 33.5678 50.2842 31.7219 50.2842C31.5098 50.2842 31.2496 50.2962 31.0243 50.3309C30.4809 49.8367 29.8773 49.5315 29.0375 49.5315C27.4278 49.5315 26.1145 50.8132 26.1145 52.4335C26.1145 53.4448 26.5759 54.1377 27.4518 54.7492C27.4518 54.7492 27.4398 54.8785 27.4398 54.9371C27.4398 56.2296 28.8591 58.2508 30.9653 58.2508C30.9653 58.5787 31.3797 59.0263 31.8412 59.1077V59.2729H31.6629C28.7652 59.2729 27.535 60.6598 27.535 61.5873C26.6711 61.9403 26.1145 62.8918 26.1145 63.7726C26.1145 65.5234 27.4049 66.7691 29.1085 66.7691C29.676 66.7691 30.2556 66.5465 30.658 66.2402C30.9532 66.3455 31.3315 66.4041 31.7219 66.4041C32.5388 66.4041 33.4497 66.1229 34.0883 65.1943C34.1835 65.2062 34.2654 65.2062 34.3606 65.2062C35.4016 65.2062 36.3004 64.5241 36.7739 63.6313C36.892 63.4087 36.939 63.2328 36.939 63.1024C36.939 62.9743 36.88 62.8678 36.7498 62.8678C36.5848 62.8678 36.5607 63.021 36.2655 63.2914C35.6028 63.891 34.5847 64.1136 33.5437 64.1136C33.0352 64.8544 32.4087 65.2421 31.687 65.2421C31.1544 65.2421 30.7411 65.1009 30.3146 64.8185C29.9712 65.1942 29.5459 65.3474 29.1314 65.3474C28.1977 65.3474 27.535 64.7012 27.535 63.7606C27.535 63.1024 27.9603 62.516 28.5519 62.2922C28.6579 61.129 29.9122 60.3415 31.4737 60.3415C31.6749 60.3415 31.8761 60.3535 32.0894 60.3774C32.3255 60.0016 32.8931 59.6019 33.6979 59.4954C33.8642 59.4727 33.9931 59.4607 34.0883 59.414C34.1835 59.3662 34.2304 59.2729 34.2304 59.1664C34.2304 59.073 34.1943 58.9904 34.1003 58.9317C34.0172 58.8851 33.875 58.8624 33.7099 58.8265C32.9641 58.6853 32.0773 58.2269 31.6279 57.1104C29.8411 57.1104 28.5278 55.6886 28.5278 54.091V53.9857C27.9362 53.7499 27.535 53.1863 27.535 52.5161C27.535 51.6353 28.2326 50.9305 29.1194 50.9305C29.6519 50.9305 30.1134 51.1889 30.4098 51.5767C30.658 51.5061 30.9412 51.4821 31.2135 51.4821C32.5388 51.4821 33.9581 52.3163 34.2304 53.9378C35.9341 54.091 36.3366 55.5247 36.4426 56.1243C36.5016 56.4294 36.5486 56.6879 36.7498 56.6879C36.9631 56.6879 37.0101 56.4522 37.0812 56.135C37.2113 55.5367 37.4366 55.0544 37.886 54.6786C37.886 53.1384 39.0451 51.8113 40.6897 51.8113ZM44.1321 61.0232C43.5754 61.8106 43.1742 62.1983 41.9079 63.6787C40.2403 65.6413 39.3644 67.2282 37.9089 70.7526C38.1463 70.7286 38.4897 70.7059 38.868 70.7059C39.0571 70.7059 39.2102 70.7059 39.4596 70.7166L39.6367 70.3409C40.4536 68.6021 41.5524 66.2517 43.0911 64.4422L43.6236 63.8199C45.208 61.9757 46.19 60.882 46.8057 58.3676C47.0189 57.4749 47.196 56.6766 47.7997 56.0998C48.3431 55.5828 49.0298 55.3603 49.7275 55.3603C50.3191 55.3603 50.7576 55.5015 51.3962 55.7708C51.9758 56.0173 52.1878 56.0651 52.8035 56.0651C53.0168 56.0651 53.1698 56.0531 53.312 56.0412L52.4842 57.1458L53.6084 57.9333C52.1999 58.3437 51.4553 59.696 51.2059 60.3183C51.1589 60.4476 51.136 60.5301 51.136 60.6127C51.136 60.7072 51.183 60.8006 51.3251 60.8006C51.4782 60.8006 51.5962 60.6833 51.7974 60.4475C52.4842 59.6254 53.0288 59.0605 55.559 58.2743L53.7734 56.934L55.1217 54.9725H53.8566C53.0517 54.9725 52.5192 54.9606 51.8215 54.6434C50.8745 54.209 50.3901 54.0211 49.5503 54.0211C48.5214 54.0211 47.5864 54.3849 46.8177 55.0898C45.9297 55.9 45.6574 56.9818 45.3393 58.169C45.0899 59.0845 44.7948 60.0957 44.1321 61.0232Z" fill="#939CA1"/>
<path id="Vector_2" d="M46.8529 69.025C46.1782 69.9297 45.2553 71.1156 44.5456 72.3734C44.7709 72.4799 45.5167 72.8796 45.7769 73.0197C46.5926 71.7978 47.7288 70.2947 48.4734 69.1542C49.1482 68.1203 49.4205 67.6738 49.4675 66.2868C49.4795 66.0523 49.4795 65.8285 49.5024 65.6059C49.5614 64.8891 49.7518 64.1602 50.4374 63.4913C50.9458 62.985 51.6796 62.7278 52.4134 62.7278C53.123 62.7278 53.5363 62.9264 54.152 62.9264C54.5894 62.9264 54.9086 62.8212 55.193 62.7158L55.4183 62.6332L54.8737 63.9269L56.1509 64.4427C55.3352 64.9477 53.5483 67.1222 53.5483 69.6951C53.5483 70.6238 53.6905 71.4806 53.8917 72.2442C53.9158 72.3267 53.9628 72.4093 54.0929 72.4093C54.211 72.4093 54.2942 72.3387 54.3062 72.2095L54.3183 71.939C54.3532 71.1515 54.4122 69.907 54.7315 68.7904C55.2641 66.9104 56.6955 65.1475 58.1268 64.3014L56.0918 63.4207L56.9678 61.2941L56.0099 61.494C55.4304 61.6113 55.0038 61.7166 54.4954 61.7166C54.1641 61.7166 53.7857 61.6699 53.3363 61.5634C52.9929 61.482 52.6254 61.4114 52.1061 61.4114C51.1712 61.4114 50.1651 61.7632 49.4795 62.4214C48.2253 63.6086 48.1542 64.8891 48.071 66.0296C47.965 67.5446 47.6806 67.9204 46.8529 69.025ZM77.2088 69.7416C77.1257 69.6363 77.0546 69.5884 76.9606 69.5884C76.8185 69.5884 76.7474 69.6829 76.7474 69.7883C76.7474 69.9534 76.8654 70.1532 77.1618 70.6475C78.0607 72.1625 79.1728 73.6896 80.5451 75.1244C82.0235 76.6862 83.7621 78.1426 85.62 79.447L86.1996 79.8467C86.2827 79.9065 86.3417 79.9413 86.4128 79.9413C86.5309 79.9413 86.614 79.824 86.614 79.7295C86.614 79.6708 86.59 79.611 86.5189 79.5523C84.7923 77.9906 82.9344 76.0866 81.1958 74.2544C79.8343 72.8088 78.439 71.2818 77.2088 69.7416ZM39.1398 64.4191C39.3169 64.1259 39.8495 63.4091 40.0627 63.1853C39.1519 61.3531 37.6615 59.6023 37.0108 58.9082L36.4662 59.4371C37.0939 60.3418 38.1458 62.0927 39.1398 64.4191ZM30.4685 53.809C30.3613 53.7145 30.3384 53.6559 30.3384 53.5852C30.3384 53.5039 30.3974 53.4094 30.5275 53.4094C30.5745 53.4094 30.6215 53.4213 30.6818 53.4452C31.5565 53.7971 32.3023 54.2087 32.965 54.7138C33.5204 55.1362 34.065 55.6544 34.5964 56.2767L34.1 56.8404C33.4855 56.3342 31.4975 54.6791 30.4685 53.809ZM38.856 57.7452L38.2173 57.3575C38.6306 56.3821 39.1403 55.4894 39.7427 54.8192C40.1693 54.3381 40.5717 53.9492 41.0211 53.5627C41.1271 53.4801 41.1861 53.4094 41.2922 53.4094C41.4115 53.4094 41.4946 53.504 41.4946 53.5974C41.4946 53.644 41.4705 53.7027 41.4235 53.7733C40.7018 54.8898 39.2933 57.099 38.856 57.7452ZM30.8354 63.197C30.6811 63.2557 30.6101 63.2916 30.5281 63.2916C30.398 63.2916 30.3378 63.185 30.3378 63.1025C30.3378 63.0211 30.3739 62.9744 30.457 62.9026C31.9113 61.7753 33.1897 61.3289 34.9524 61.0346L35.1645 61.7406L30.8354 63.197ZM61.179 54.0795C61.179 53.6679 61.3923 52.9271 62.161 52.9271C62.4212 52.9271 62.6695 52.9857 62.8707 53.0802C63.155 53.2095 63.3442 53.3974 63.3442 53.5972C63.3442 53.809 63.1309 54.0209 62.8116 54.2794C62.4803 54.5486 62.055 54.7964 61.7116 54.7964C61.2983 54.7964 61.179 54.4074 61.179 54.0795ZM49.1717 57.5103C49.1717 57.0052 49.4789 56.4524 50.0705 56.4524C50.3307 56.4524 50.638 56.5577 50.8633 56.7707C50.9934 56.888 51.0525 57.0161 51.0525 57.1465C51.0525 57.4289 50.7802 57.6982 50.4609 57.8861C50.2127 58.0273 49.9524 58.1218 49.7283 58.1218C49.3608 58.1218 49.1717 57.8968 49.1717 57.5103Z" fill="#939CA1"/>
<path id="Vector_3" d="M51.9518 64.7601C51.9518 64.6428 51.9638 64.5016 52.0108 64.3603C52.106 64.0552 52.306 63.7608 52.8036 63.7608C53.0289 63.7608 53.2759 63.8195 53.4771 63.9619C53.6555 64.0792 53.7265 64.2311 53.7265 64.3843C53.7265 64.8893 52.8747 65.4769 52.4482 65.4769C52.141 65.4769 51.9518 65.1826 51.9518 64.7601ZM47.2907 79.5882C45.6943 79.5882 44.9834 78.8367 44.9834 77.8853C44.9834 76.2159 47.9293 74.5836 50.5788 73.5723L51.2656 74.4543C49.633 75.0993 46.3449 76.4876 46.3449 77.6855C46.3449 78.1079 46.5931 78.4143 47.5859 78.4143C49.3137 78.4143 51.1716 77.579 52.8862 76.7448C53.0163 76.6862 53.1705 76.6275 53.3127 76.6275C53.5368 76.6275 53.679 76.6982 53.844 76.9327L54.1284 77.3205C52.1295 78.4143 49.633 79.5882 47.2907 79.5882Z" fill="#939CA1"/>
<path id="Vector_4" d="M51.6917 80.0352C50.1302 80.9041 48.5096 81.4809 47.0782 81.4809C45.4806 81.4809 44.0612 80.7987 42.8781 79.024C42.3816 78.2724 41.9913 77.333 41.5178 76.4989C40.9503 75.5116 40.3346 74.9827 39.2586 74.9827C38.2767 74.9827 37.3176 75.3823 36.3007 75.8167L36.3477 76.0405C36.4308 76.4044 36.573 76.6629 36.9152 76.6629C37.0694 76.6629 37.2236 76.5935 37.3067 76.5695C37.8742 76.3924 38.2875 76.2392 38.8682 76.2392C39.755 76.2392 40.1803 76.7574 40.784 78.0259L41.0093 78.4962C40.3936 78.7081 38.9502 78.8134 37.8742 78.8134H37.3658L37.4489 79.3184C37.4838 79.5302 37.567 79.7061 37.7441 79.7887C37.9561 79.894 38.2646 79.906 38.7971 79.906C40.1454 79.906 41.1274 79.742 41.6948 79.5996C43.1503 81.7513 45.1492 82.5735 47.0782 82.5735C48.7217 82.5735 50.3904 81.9739 51.988 81.1051L51.6917 80.0352ZM53.3002 80.5639L53.017 79.4821C55.4532 78.1789 57.6775 77.1329 61.227 76.7919C61.2981 78.143 61.2029 79.8471 62.2089 79.8471C63.1307 79.8471 65.1416 77.4847 67.461 74.524C67.6742 74.7239 68.0164 74.9358 68.3249 75.1703L67.7333 75.9338C65.473 78.8251 63.5451 81.2927 61.9595 81.2927C60.4812 81.2927 59.9245 79.5647 59.9016 78.2722C57.6425 78.496 55.5123 79.2475 53.3002 80.5639ZM84.6028 56.9814C83.6798 56.9814 83.4196 56.4752 83.4196 55.7596C83.4196 54.2792 84.3546 52.1526 84.9462 50.9416H83.5135C82.7689 52.3752 79.8351 56.9695 78.2495 58.8735L79.1604 59.8476C80.0122 58.9082 80.9472 57.3106 81.9641 55.7357H82.1533C82.1533 55.8183 82.1424 55.9116 82.1424 55.9942C82.1424 57.3226 82.828 58.3086 84.5196 58.3086C85.5606 58.3086 87.1932 57.7916 88.7319 57.2746C90.009 56.8402 91.1802 56.3939 91.7597 56.2299V54.8202C91.097 55.0188 89.7488 55.5358 88.3523 56.0181C86.886 56.5231 85.4426 56.9814 84.6028 56.9814ZM87.7611 61.2465C89.1804 60.6481 91.7239 59.6369 93.1914 59.1079V57.6742C90.2455 58.7561 85.0754 60.8827 81.55 62.7867C81.6452 62.9028 82.2609 63.7608 82.3307 63.8673C83.8212 63.2558 85.1586 62.8561 86.3646 62.8561C88.0575 62.8561 89.4407 62.8561 91.7601 62.3151V61.2345C90.4588 61.4702 89.0744 61.7515 88.1756 61.7515C87.643 61.7515 87.4888 61.6809 87.4888 61.505C87.4888 61.3996 87.5599 61.329 87.7611 61.2465Z" fill="#939CA1"/>
</g>
<path id="Vector_5" d="M57.4535 67.8485L56.8848 68.9303H62.9308L62.4814 67.8485H57.4535Z" fill="#939CA1"/>
<g id="Group_2">
<path id="Vector_6" d="M35.6735 74.301C36.3121 74.301 36.8326 74.0891 37.3302 73.8905C37.8025 73.7014 38.276 73.5135 38.9146 73.5135C40.4291 73.5135 42.2979 74.2423 43.9425 74.9352C44.0406 74.9729 44.1447 74.9928 44.2498 74.9938C44.5113 74.9938 44.7125 74.8765 44.8414 74.63L45.0546 74.2423C43.2449 73.1964 40.3581 72.0798 38.8556 72.0798C38.17 72.0798 37.6724 72.2569 37.2001 72.4436C36.6675 72.6567 36.2061 72.8792 35.7205 72.8792C34.5265 72.8792 31.4625 71.704 31.4625 70.5648C31.4625 69.2256 36.3362 68.7086 36.8688 68.7086L37.3531 67.6148C33.8168 67.6148 29.6046 68.8486 29.6046 70.4822C29.6046 70.9525 29.8769 71.1871 29.8769 71.6215C29.8769 72.2091 29.6046 72.6088 29.6046 73.267C29.6046 73.7014 29.8649 74.2542 30.1721 74.7365C30.5035 75.2415 30.8938 75.5695 30.8938 75.9931C30.8938 76.3103 30.6818 76.686 30.6818 77.4268C30.6818 79.0125 31.5927 79.977 33.3662 81.8679L33.7216 82.2436C32.2553 82.8084 29.5215 83.9837 28.8829 84.2529C26.6708 85.1696 26.1153 86.2862 26.1153 88.0489C26.1153 88.7299 26.1153 89.5054 26.1623 90.1983H26.5876C27.4756 90.1983 27.5817 89.6705 27.5817 89.1655C27.5817 88.8244 27.5696 88.4366 27.5696 88.013C27.5817 87.0389 27.6178 86.1688 29.2022 85.464C29.842 85.1815 32.9758 83.913 35.3073 82.9257C35.9928 82.6313 36.6314 82.3848 37.3411 82.3848C38.1339 82.3848 39.0447 82.7259 40.1809 83.3961C41.1388 83.9597 42.1449 84.7232 42.9377 85.604L43.9425 84.8405C43.0787 83.8304 41.8847 82.9257 40.6894 82.2209C39.4942 81.516 38.4303 81.1043 37.5315 81.1043C37.1411 81.1043 36.8218 81.1749 36.5495 81.2455C36.2302 81.3281 35.9338 81.4214 35.5555 81.4214C35.1181 81.4214 34.7506 81.3161 34.2181 80.7046C34.0169 80.482 32.7397 79.0363 32.4674 78.6139C32.3373 78.414 32.1011 78.0144 32.1011 77.544C32.1011 77.3442 32.1361 77.1097 32.2553 76.8978C33.3542 77.7439 34.7157 78.2609 36.3712 78.4607L36.147 77.3442C33.7686 76.7219 31.2372 74.642 31.2372 73.3028C31.2372 73.0204 31.3083 72.8205 31.4155 72.574C32.3373 73.4201 34.5024 74.301 35.6735 74.301ZM52.6973 74.5129C54.1877 73.4669 55.7251 73.3497 56.9673 73.3497C57.7131 73.3497 58.5879 73.4549 59.5108 73.5722C60.2566 73.6668 60.9301 73.7374 61.735 73.7374C63.3555 73.7374 64.9881 73.1498 65.6978 72.8434C65.899 73.0911 66.2424 73.4203 66.5147 73.6548C66.1713 73.8666 63.9953 75.0406 61.7711 75.0406C60.7892 75.0406 59.8542 74.9245 59.0493 74.818C58.3397 74.7247 57.5709 74.6421 56.8251 74.6421C56.0094 74.6421 54.3648 74.8767 53.3479 75.359L52.6973 74.5129Z" fill="#939CA1"/>
<path id="Vector_7" d="M74.6654 78.7074C72.8906 82.4209 70.1929 85.1231 67.4253 86.686C66.112 87.4256 64.9288 87.9079 62.3745 87.9079H56.849C54.8742 87.9079 53.632 88.1664 52.6621 88.4129C51.6199 88.6833 50.9584 88.9526 49.9053 88.9526C48.3438 88.9526 46.9004 88.1891 46.2028 87.4615L47.504 86.4395L46.8534 85.5802C46.4751 85.8519 41.8496 89.247 40.8785 90.0105L40.8194 89.9758C40.8435 89.7412 40.8435 89.5294 40.8435 89.3176C40.8435 86.7327 39.6362 86.1092 37.8036 85.3816L36.5614 86.1092C39.0808 86.9445 39.7073 87.6135 39.7073 89.4816C39.7073 90.9631 39.1748 91.5495 38.4061 91.9971C37.6133 92.4554 36.6313 92.6661 35.7686 92.6661C35.4011 92.6661 35.236 92.7367 35.1059 92.8659C34.9637 93.0071 34.8927 93.2189 34.8927 93.5121V93.9238H35.1891C36.7735 93.9238 38.241 93.6773 39.8495 92.4196L45.0907 88.3542C45.8353 89.2003 47.7173 90.3755 49.9403 90.3755C51.1945 90.3755 51.9994 90.0691 53.1585 89.7759C54.0573 89.5521 54.9333 89.3523 56.849 89.3523H62.3974C65.2373 89.3523 66.6096 88.7647 68.123 87.9199C71.4122 86.0865 74.216 82.9845 75.8016 79.423C75.3871 79.1657 74.9967 78.93 74.6654 78.7074Z" fill="#939CA1"/>
<path id="Vector_8" d="M65.7574 83.1257C67.1888 80.8459 68.466 78.8246 71.601 77.1803C71.2697 76.9804 70.7974 76.6753 70.548 76.5101C69.3299 77.0391 68.1238 78.0958 67.0948 79.1657C64.7285 81.6094 64.9405 83.0191 62.4452 83.9717C61.8175 84.2063 61.0488 84.4648 60.0668 84.6886C59.4873 82.9138 58.033 81.151 56.4944 81.151C55.4293 81.151 54.1991 81.7027 52.7798 82.3262C51.1122 83.055 49.5857 83.8892 49.1013 84.2063L49.752 85.0763C50.2484 84.8047 51.6798 84.0998 53.1112 83.4895C54.3534 82.9605 55.4775 82.5261 56.2341 82.5261C57.4523 82.5261 58.2451 83.9012 58.6837 85.0045C57.086 85.3815 54.4594 85.4749 53.6678 85.4749C53.3003 85.4749 53.1702 85.5335 53.04 85.64C52.922 85.7453 52.8268 85.9332 52.7678 86.1917L52.6738 86.5914H53.5244C57.9499 86.5914 62.126 85.8985 64.8104 84.2769C65.19 84.3834 65.5213 84.4528 65.9466 84.4528C67.484 84.4528 69.0696 83.6187 70.0636 82.8552C70.4179 82.5847 70.501 82.337 70.501 82.0677C70.501 81.9385 70.489 81.8212 70.4769 81.7027L70.4299 81.2456C69.0106 82.361 67.8274 83.1962 66.3611 83.1962C66.1008 83.1962 65.9116 83.1723 65.7574 83.1257Z" fill="#939CA1"/>
</g>
</g>
</svg>
