<svg width="223" height="147" viewBox="0 0 223 147" fill="none" xmlns="http://www.w3.org/2000/svg">
<g id="Subway_(restaurant)-Logo.wine">
<path id="Vector" d="M45.7795 60.1944C39.849 60.1654 39.5065 60.2039 37.5411 61.1367C37.0985 61.3469 36.5813 61.6286 36.3915 61.7619C35.8236 62.1616 34.7823 63.1736 34.7823 63.3259C34.7823 63.4039 34.7513 63.4673 34.7136 63.4673C34.5316 63.4673 33.712 64.9878 33.7106 65.328C33.71 65.4551 33.6798 65.5913 33.6436 65.6309C33.4018 65.8953 33.3254 68.2004 33.5257 69.1889C33.5933 69.5223 33.6791 69.9481 33.7168 70.1356C33.7886 70.4917 34.1009 71.1357 34.4581 71.6661C34.5734 71.8371 34.7021 72.0312 34.7439 72.0979C34.9336 72.3996 36.2028 73.5572 36.7392 73.9171C37.4869 74.4187 38.3946 74.9638 38.6272 75.052C38.7254 75.089 39.1161 75.286 39.4953 75.489C39.8747 75.6921 40.3399 75.922 40.5296 76.0004C40.7193 76.0788 41.3578 76.3723 41.9479 76.6521C45.1022 78.1481 45.3728 78.3023 45.6409 78.7548C45.917 79.2206 45.9253 79.7072 45.6642 80.0865C45.5588 80.2396 45.4148 80.3644 45.3436 80.3648C45.2723 80.365 45.1889 80.4055 45.1587 80.4539C45.102 80.5442 38.5994 80.5023 35.3761 80.3913L33.939 80.3418V78.6868C33.939 77.2661 33.9226 77.031 33.8238 77.031C33.7607 77.031 33.7095 77.0652 33.7095 77.1069C33.7095 77.1485 33.6702 77.1829 33.622 77.1829C33.5268 77.1829 32.7134 77.8382 32.6137 77.9953C32.5799 78.0484 32.4477 78.1454 32.3198 78.2108C32.192 78.2762 31.8909 78.5083 31.6517 78.7257C31.4126 78.9431 31.0566 79.2299 30.8604 79.3633C30.6643 79.4968 30.4924 79.6327 30.4782 79.6653C30.4394 79.7542 29.6852 80.3657 29.6145 80.3657C29.5807 80.3657 29.4448 80.4788 29.3126 80.6173C29.18 80.7566 28.7098 81.1568 28.2673 81.5081C27.8247 81.8594 27.3945 82.2153 27.3107 82.2985C27.2268 82.3816 27.0314 82.5349 26.8766 82.6394C26.7219 82.7434 26.4009 83.0115 26.163 83.2344L25.7308 83.6409L26.2139 84.0849C26.4796 84.3293 26.7215 84.5305 26.7516 84.5317C26.7818 84.5329 27.0746 84.7725 27.4027 85.0643C27.7307 85.3559 28.0399 85.5951 28.0904 85.5951C28.1408 85.5951 28.2273 85.6542 28.2825 85.7275C28.3375 85.8007 28.5719 86.0145 28.8031 86.2017C29.0343 86.3889 29.2924 86.5976 29.3775 86.6662C29.4624 86.735 29.7528 86.9739 30.0223 87.197C30.2918 87.4201 30.6595 87.7119 30.8395 87.8452C31.0195 87.9785 31.2858 88.2051 31.4317 88.3494C31.5776 88.4937 31.831 88.6979 31.9943 88.8025C32.1577 88.9071 32.498 89.1817 32.7508 89.4136C33.0037 89.6456 33.2515 89.8359 33.3009 89.8367C33.3504 89.8373 33.4709 89.9382 33.5689 90.0609C33.9152 90.4944 33.9344 90.4206 33.9565 88.5685L33.9771 86.8447L34.3219 86.8543C34.5115 86.8593 36.5027 86.8701 38.7472 86.8791C41.5886 86.8905 42.8279 86.9205 42.8279 86.9771C42.8279 87.0698 45.2132 87.0067 46.4299 86.8817C47.3843 86.7837 48.5862 86.5506 48.7671 86.4287C48.8093 86.4003 49.051 86.297 49.304 86.199C49.5568 86.1011 49.7812 86 49.8022 85.9747C49.8763 85.8858 50.4251 85.5941 50.5185 85.5941C50.5707 85.5941 50.7334 85.484 50.8802 85.3486C51.0272 85.2132 51.279 84.9994 51.4402 84.8744C51.7724 84.6168 52.6045 83.5883 52.8496 83.132C53.0981 82.6693 53.4748 81.4976 53.5989 80.8006C53.8473 79.4049 53.6879 77.5632 53.2211 76.4319C53.1108 76.1643 53.0202 75.9162 53.0202 75.8808C53.0202 75.8027 52.6414 75.2051 52.5245 75.0993C52.4784 75.0577 52.2762 74.8111 52.0753 74.5508C51.8743 74.2906 51.6393 74.0407 51.5537 73.9954C51.403 73.9156 51.2722 73.8105 50.7829 73.3798C50.6556 73.2678 50.4253 73.1183 50.2721 73.0469C50.1188 72.9755 49.8739 72.8194 49.7273 72.7008C49.5806 72.582 49.4328 72.4853 49.3986 72.4853C49.3644 72.4853 49.1568 72.3662 48.9377 72.2203C48.7187 72.0745 48.492 71.9545 48.434 71.9545C48.311 71.9545 47.7062 71.6407 47.6686 71.5571C47.6546 71.5259 47.5943 71.5006 47.5347 71.5006C47.475 71.5006 47.4266 71.4663 47.4266 71.4246C47.4266 71.383 47.3699 71.3487 47.3016 71.3487C47.2332 71.3487 46.9832 71.2522 46.7461 71.1341C45.4917 70.5099 44.8527 70.2071 44.7946 70.2095C44.7589 70.211 44.6357 70.1462 44.5212 70.0655C44.4068 69.9851 44.212 69.8948 44.0881 69.8651C43.9642 69.8354 43.5093 69.62 43.0771 69.3864C42.6449 69.1528 42.145 68.8876 41.966 68.7974C41.7871 68.7072 41.5387 68.5277 41.4141 68.3983C41.2066 68.1827 41.1873 68.1176 41.1873 67.6229C41.1873 67.1047 41.1974 67.0743 41.44 66.8741C41.579 66.7592 41.8017 66.6501 41.9348 66.6304C42.0678 66.6105 44.4527 66.6121 47.2346 66.6339L52.2926 66.6736L52.2783 63.4979L52.2631 60.3231L51.3585 60.271C50.8596 60.2425 48.3486 60.2082 45.7778 60.1956L45.7795 60.1944ZM55.1633 60.2094L55.1892 70.4959C55.2118 79.6493 55.2281 80.824 55.3366 81.1613C55.5642 81.8678 55.8026 82.4428 56.0216 82.8101C56.1416 83.0114 56.2404 83.2097 56.2404 83.2508C56.2404 83.5154 58.2442 85.5946 58.4992 85.5946C58.527 85.5946 58.6947 85.6883 58.8716 85.803C59.7344 86.362 60.0657 86.5213 61.0034 86.8309C62.0326 87.1707 62.9724 87.3956 63.9035 87.5242C64.9005 87.6618 67.3568 87.6632 68.2717 87.5269C69.6131 87.3267 70.6001 87.0787 71.3101 86.7629C71.4429 86.7038 71.6099 86.6551 71.6807 86.6551C71.8334 86.6551 73.0708 86.0143 73.2911 85.8214C73.3754 85.7477 73.571 85.6237 73.7251 85.5459C74.0921 85.3608 75.3786 84.1805 75.531 83.8892C75.5964 83.7641 75.7242 83.5879 75.815 83.4971C76.0355 83.2765 76.5613 82.3203 76.6768 81.9296C76.7278 81.7572 76.8563 81.3094 76.9626 80.9343L77.1565 80.2516L77.1593 70.2309L77.162 60.2094H69.115V69.7896C69.115 75.6953 69.0868 79.444 69.0417 79.5612C68.947 79.8075 68.4369 80.3657 68.3067 80.3657C68.2514 80.3657 68.1597 80.4113 68.103 80.4672C67.8358 80.7315 67.1839 80.8585 66.0883 80.8585H65.0155L64.4073 80.5662C63.7685 80.2605 63.5924 80.0964 63.3075 79.5398L63.1351 79.2034V60.2093H55.1613L55.1633 60.2094ZM79.6895 60.2103V87.0347L86.9122 87.032C94.2561 87.0297 94.9535 87.0071 95.8584 86.7363C96.0057 86.6922 96.2202 86.6558 96.3354 86.6558C96.5381 86.6558 97.2609 86.3671 97.8894 86.035L98.6156 85.6518C98.9747 85.4623 99.4134 85.0978 100.105 84.4146C100.314 84.2087 100.782 83.5628 101.019 83.1535C101.223 82.8002 101.687 81.4859 101.841 80.8213C101.973 80.2579 102.041 78.7906 101.969 78.0932C101.914 77.5605 101.587 76.3292 101.456 76.161C101.423 76.1194 101.353 75.9489 101.299 75.7821C101.154 75.3269 100.239 74.233 99.5864 73.7342C99.4238 73.6101 99.2099 73.4355 99.1112 73.3456C99.0124 73.2558 98.7924 73.1216 98.6218 73.0472C98.451 72.9727 98.3109 72.8902 98.3109 72.8644C98.3109 72.8177 98.7361 72.4855 98.7959 72.4855C98.8531 72.4855 100.074 71.2936 100.074 71.2377C100.074 71.2075 100.138 71.0921 100.218 70.9816C100.444 70.6656 100.887 69.8131 100.993 69.4865C101.046 69.3232 101.129 69.1413 101.176 69.0829C101.233 69.0122 101.259 68.4915 101.256 67.5295C101.25 66.1824 101.236 66.0391 101.047 65.4516C100.815 64.7271 100.278 63.6205 99.9972 63.2853C99.5031 62.6957 98.9208 62.1325 98.4842 61.8238C97.8776 61.3948 96.8136 60.8817 96.0129 60.6315C94.7783 60.2468 93.946 60.2103 86.5015 60.2103H79.6889H79.6895ZM87.583 66.0345L89.748 66.0593C92.0966 66.0855 92.079 66.0828 92.6346 66.5449C93.2309 67.0411 93.464 68.1849 93.2115 69.3797C93.1234 69.7974 92.6045 70.4916 92.2353 70.6867C91.9259 70.8502 91.8226 70.8578 89.748 70.881L87.583 70.9057V66.0345ZM87.6402 76.033C87.6719 76.0201 88.8042 76.0263 90.1562 76.0471L92.614 76.0851L92.9365 76.2961C93.1139 76.4124 93.3871 76.7028 93.5429 76.9409L93.826 77.3735L93.8269 78.4783C93.8278 79.4899 93.8128 79.6153 93.643 79.9743C93.5409 80.19 93.411 80.3664 93.3536 80.3664C93.2963 80.3664 93.23 80.4151 93.2071 80.4742C93.141 80.6446 92.6348 80.9392 92.2425 81.0358C92.011 81.0928 91.117 81.1241 89.7328 81.1241H87.583V78.5905C87.583 77.1967 87.6087 76.0458 87.6402 76.0331V76.033Z" fill="#FFCB08"/>
<path id="Vector_2" opacity="0.6" d="M189.191 56.7945C189.135 56.8242 189.131 57.1646 189.13 58.3717L189.128 60.0576L186.044 60.0594C183.076 60.0607 182.682 60.0825 181.369 60.3146C180.285 60.5063 179.092 61.2157 178.371 62.0976C177.783 62.8171 177.424 63.6236 177.134 64.8697C177.105 64.9947 177.059 66.4947 177.031 68.2034C176.976 71.6247 177 71.4589 176.464 72.1182C176.03 72.6527 174.97 73.0147 173.839 73.0146C173.286 73.0146 172.321 72.7936 171.992 72.5924C171.575 72.3368 171.108 71.874 171.017 71.6264C170.956 71.4582 170.918 69.7169 170.89 65.8162L170.851 60.2475L166.923 60.228L162.996 60.2077L162.997 66.1377C162.998 69.3993 163.03 72.2838 163.068 72.5474C163.153 73.1251 163.475 74.2003 163.72 74.7207C164.181 75.703 165.265 76.9303 166.261 77.5997C166.509 77.7664 166.781 77.9641 166.864 78.0386C166.948 78.1131 167.103 78.1937 167.209 78.2179C167.315 78.242 167.542 78.3408 167.714 78.4378C168.073 78.6399 169.07 79.0434 169.605 79.2026L169.97 79.3112V87.034H177.94V79.3404L178.572 79.124C179.494 78.8086 181.284 77.925 181.766 77.5476C182.376 77.0694 183.358 76.065 183.641 75.6295C183.99 75.0911 184.487 73.9724 184.633 73.3943C184.841 72.569 184.911 71.5605 184.913 69.3028C184.915 68.115 184.936 67.0667 184.962 66.9733C185.036 66.6969 185.434 66.6454 187.341 66.6677L189.089 66.688L189.111 68.3368C189.124 69.3493 189.16 69.9847 189.207 69.9847C189.227 69.9844 189.246 69.9762 189.26 69.962C189.274 69.9478 189.282 69.9286 189.282 69.9087C189.282 69.867 189.324 69.8329 189.377 69.8328C189.43 69.8326 189.737 69.5936 190.06 69.3019C190.383 69.0104 190.677 68.7721 190.713 68.7721C190.75 68.7721 190.985 68.5795 191.237 68.3447C191.488 68.1099 191.814 67.8403 191.963 67.7451C192.111 67.6499 192.439 67.3818 192.691 67.1499C192.944 66.9179 193.177 66.7285 193.209 66.7277C193.24 66.727 193.449 66.5645 193.673 66.3666C194.172 65.9262 195.63 64.7282 196.058 64.4078C196.23 64.2788 196.56 63.9963 196.792 63.7799L197.213 63.3861L196.687 62.8968C196.398 62.6274 196.116 62.4067 196.06 62.4067C196.005 62.4067 195.897 62.3291 195.82 62.2345C195.743 62.1398 195.474 61.9016 195.221 61.7046C194.968 61.5075 194.692 61.2826 194.607 61.2048C194.523 61.1268 194.085 60.7671 193.633 60.4056C193.181 60.0438 192.71 59.6473 192.585 59.5242C192.461 59.401 192.328 59.2999 192.29 59.2999C192.253 59.2999 191.96 59.0618 191.64 58.77C191.32 58.4796 191.023 58.2406 190.986 58.2406C190.947 58.2406 190.711 58.0512 190.462 57.8193C190.213 57.5874 189.872 57.3101 189.703 57.2038C189.534 57.0975 189.336 56.9378 189.263 56.8488C189.232 56.8102 189.209 56.7859 189.19 56.7958L189.191 56.7945ZM150.319 59.4094C149.849 59.4015 149.38 59.4154 148.912 59.4509C147.406 59.5668 145.911 59.8717 145.046 60.2394C144.889 60.3062 144.703 60.3613 144.631 60.3613C144.465 60.3613 143.372 60.9149 142.97 61.203C142.802 61.3232 142.623 61.4219 142.572 61.4219C142.522 61.4219 142.364 61.5326 142.22 61.6683C142.077 61.8041 141.743 62.0997 141.48 62.3245C141.216 62.5492 141.001 62.7658 141.001 62.8058C141.001 62.8458 140.869 63.0364 140.706 63.2297C140.211 63.8195 140.025 64.1534 139.707 65.0215C139.134 66.5832 139.162 65.9614 139.162 77.0777V87.0341H147.055V79.3051H153.109V87.0341H161.003V77.1266C161.002 68.5312 160.987 67.1304 160.884 66.5494C160.701 65.5155 160.071 63.9108 159.707 63.5504C159.629 63.4733 159.425 63.2068 159.255 62.9587C159.084 62.7106 158.864 62.4548 158.764 62.39C158.664 62.3252 158.396 62.0981 158.17 61.8857C157.943 61.6735 157.689 61.4785 157.605 61.4522C157.521 61.4258 157.295 61.2924 157.101 61.1563C156.653 60.84 155.867 60.4504 155.419 60.321C155.084 60.223 154.75 60.1226 154.417 60.0199C153.192 59.6439 151.747 59.4322 150.325 59.4096L150.319 59.4094ZM136.715 60.2077L132.747 60.2279L128.778 60.2474L128.739 69.8706L128.701 79.4946L128.495 79.8408C128.238 80.2717 128.195 80.306 127.628 80.5155C126.723 80.8501 125.234 80.6883 124.694 80.1967C124.59 80.1022 124.441 79.8884 124.363 79.7216C124.228 79.4322 124.222 78.9922 124.22 69.9334C124.219 64.7169 124.198 60.3957 124.172 60.3297C124.13 60.2225 123.711 60.2096 120.225 60.2096H116.325V69.7012C116.325 75.6248 116.296 79.2895 116.25 79.4501C116.054 80.1259 115.434 80.5543 114.481 80.674C113.907 80.746 113.144 80.6616 112.788 80.4859C112.655 80.4202 112.505 80.3667 112.456 80.3667C112.316 80.3667 112.071 80.059 111.911 79.684C111.771 79.3559 111.764 78.9868 111.746 69.8709C111.735 64.6612 111.726 60.3572 111.726 60.3052C111.726 60.2307 110.886 60.2099 107.779 60.2099H103.833V70.0514C103.833 80.8742 103.818 80.4862 104.306 81.9575C104.726 83.2234 105.265 84.07 106.257 85.0166C106.589 85.3336 106.884 85.5936 106.913 85.5941C106.942 85.5947 107.188 85.7457 107.46 85.9297C108.121 86.3776 108.258 86.4424 109.217 86.7626C110.188 87.0861 110.834 87.244 111.726 87.3762H111.727C112.66 87.5146 114.761 87.5139 115.562 87.3753C116.522 87.2094 118.156 86.6932 118.692 86.3872C118.834 86.3057 119.11 86.1306 119.304 85.9977C120.009 85.5169 120.213 85.4307 120.405 85.5368C120.5 85.5895 120.595 85.6537 120.616 85.6789C120.71 85.7912 122.13 86.5887 122.303 86.6256C122.408 86.6482 122.58 86.7026 122.686 86.7466C123.1 86.9194 123.981 87.1793 124.601 87.3118C125.525 87.5092 128.243 87.511 129.238 87.3145C129.969 87.1699 130.849 86.9311 131.23 86.774C131.357 86.7219 131.599 86.6366 131.767 86.5841C131.936 86.5317 132.194 86.4123 132.341 86.3192C132.489 86.226 132.85 85.9997 133.143 85.8158C133.437 85.632 133.925 85.243 134.228 84.9513C134.843 84.3588 135.637 83.3595 135.638 83.1762C135.638 83.1105 135.725 82.9067 135.831 82.724C136.055 82.3367 136.344 81.5354 136.53 80.7829C136.65 80.2979 136.664 79.3881 136.688 70.2306L136.715 60.2081L136.715 60.2077ZM149.723 66.1327C149.924 66.1252 150.143 66.1263 150.389 66.1354C151.145 66.1635 151.291 66.1927 151.807 66.4224C152.563 66.7589 152.677 66.871 152.912 67.4962L153.109 68.0234V73.0916H147.05L147.072 70.4203L147.094 67.7497L147.299 67.3303C147.544 66.8308 147.647 66.7352 148.226 66.4692C148.687 66.2572 149.121 66.1553 149.723 66.1328L149.723 66.1327Z" fill="#009743" stroke="#009743" stroke-width="0.412413"/>
</g>
</svg>
