<svg width="222" height="147" viewBox="0 0 222 147" fill="none" xmlns="http://www.w3.org/2000/svg">
<g id="Unilever-Logo.wine">
<g id="Group" opacity="0.6">
<path id="Vector" d="M102.224 120.061C102.991 120.061 104.31 119.814 105.348 118.163C104.754 116.853 104.332 114.207 104.271 113.244C103.966 108.317 105.877 103.681 107.97 103.554C109.503 103.462 110.73 104.904 110.872 107.239C111.248 113.379 109.19 115.943 108.16 118.152C108.334 119.01 109.797 120.469 111.179 120.469C111.689 120.469 112.306 120.215 112.461 120.01C112.357 119.656 112.254 119.198 112.254 118.535C112.254 114.978 114.557 111.978 116.553 111.978C118.14 111.978 119.06 114.062 119.06 115.437C119.06 117.061 117.678 118.386 115.632 119.657C115.992 120.01 116.654 120.267 117.219 120.267C120.137 120.267 121.665 116.759 122.797 113.555C123.001 112.944 123.36 112.08 124.075 112.08C125.305 112.08 125.817 120.111 127.859 120.111C128.731 120.111 129.447 118.331 129.447 116.962C129.447 115.945 129.089 115.843 129.089 114.368C129.089 112.744 129.96 111.373 131.138 111.373C131.854 111.373 132.112 112.08 132.112 112.943C132.112 116.196 129.756 122.246 126.28 122.246C123.666 122.246 123.87 117.774 122.95 117.774C121.922 117.774 120.489 122.298 115.428 122.298C114.605 122.298 113.738 121.891 113.023 121.076C111.796 121.891 110.769 122.246 109.592 122.246C107.701 122.246 106.882 120.314 106.115 120.314C105.192 120.314 104.172 122.298 101.098 122.298C98.6423 122.298 98.2321 119.047 97.3652 119.047C96.5957 119.047 95.4195 122.298 94.1411 122.298C91.9885 122.298 91.5318 116.656 89.636 116.656C88.1517 116.656 83.4631 122.386 82.1908 122.255C81.6781 122.202 81.4635 121.821 81.5174 121.313C81.5889 120.611 82.1981 118.729 82.4463 117.838C82.8599 116.292 83.2399 114.598 83.4519 114.057C83.6626 113.513 84.2314 113.124 84.6868 113.166C84.9168 113.187 84.9862 113.613 85.0569 113.964C85.315 115.221 85.6765 116.502 86.0832 116.502C86.8014 116.502 89.1759 111.978 90.5564 111.978C92.2479 111.978 92.4508 119.095 94.7512 119.095C95.5207 119.095 96.0856 118.182 96.5953 117.061C96.6478 115.177 97.1584 112.49 98.6936 112.49C99.7698 112.49 100.283 114.876 99.5118 116.962C99.5118 119.451 101.148 120.06 102.224 120.06V120.061ZM143.16 113.963C142.526 116.575 140.604 120.418 137.735 120.418C137.071 120.418 135.893 120.163 135.893 119.502C135.893 118.789 140.399 118.691 140.399 115.284C140.399 114.015 139.223 112.234 137.482 112.234C135.18 112.234 132.933 114.726 132.933 118.182C132.933 121.28 134.871 122.298 136.815 122.298C140.195 122.298 142.24 119.55 143.314 117.264C143.828 118.789 144.131 122.298 145.414 122.298C145.924 122.298 146.285 122.043 146.901 120.672C148.43 117.264 149.916 113.352 151.965 113.352C152.731 113.352 152.272 114.726 154.114 114.726C154.982 114.726 155.593 114.015 155.593 113.197C155.593 112.028 154.52 111.116 152.884 111.116C148.075 111.116 147.053 118.283 146.285 118.283C145.004 118.283 145.415 112.54 144.491 112.54C143.672 112.54 143.27 113.509 143.16 113.963ZM109.215 108.61C109.126 107.191 108.78 106.55 108.012 106.6C106.992 106.662 106.521 109.847 106.73 113.194C106.862 115.378 107.19 115.714 107.494 115.693C108.058 115.661 109.411 111.758 109.215 108.611V108.61ZM100.893 105.626C100.821 104.812 100.177 104.255 99.3071 104.255C98.3355 104.255 97.4212 105.268 97.5186 106.54C97.5807 107.377 98.0787 108.067 99.0551 108.067C100.178 108.067 100.996 106.796 100.893 105.626ZM116.81 115.993C116.81 115.131 116.347 114.42 115.788 114.42C115.323 114.42 114.252 114.925 114.252 116.553C114.252 117.828 114.709 118.433 114.917 118.691C116.398 118.233 116.81 117.01 116.81 115.993ZM136.815 114.27C137.891 114.27 138.199 115.535 137.944 116.299C137.685 117.061 136.766 117.928 135.333 118.182C135.025 117.418 134.871 114.27 136.815 114.27ZM77.8934 110.661C77.7461 110.199 77.3212 109.16 77.204 108.394C76.9485 106.696 77.8421 105.577 78.6629 105.321C79.5845 105.066 79.9439 105.524 80.2993 106.593C80.7604 108.219 80.8121 110.352 80.6569 113.402C80.4553 117.57 78.3562 122.603 73.1376 122.498C68.633 122.4 66.6394 119.502 66.4326 115.08C66.3352 112.997 66.4843 110.914 67.3546 107.966C67.8148 106.389 68.2262 105.828 69.6567 105.524C70.7821 105.321 70.6808 106.488 70.4253 107.865C69.8639 110.914 69.6046 112.386 69.8114 115.843C70.0126 119.502 71.705 120.926 73.5469 120.926C76.3096 120.978 77.5367 118.691 78.0507 115.385C78.4574 112.744 78.1519 111.473 77.8939 110.661H77.8934ZM138.248 44.5374C138.602 47.0986 142.509 50.5513 143.569 50.4704C144.276 50.4101 144.547 47.1256 144.547 44.5374C144.547 43.055 144.629 41.8939 143.841 41.623C142.591 44.1321 139.308 44.6452 138.248 44.5374ZM138.464 43.4042C141.286 43.4042 143.868 41.166 143.868 39.197C143.868 38.2791 143.432 37.5246 142.319 37.3902C142.509 37.6333 142.591 37.822 142.591 38.2525C142.591 39.7362 140.314 41.3821 137.841 41.3821C136.943 41.3821 136.672 42.0013 136.672 42.3257C136.672 43.0815 137.406 43.4042 138.464 43.4042ZM137.868 40.3567C137.488 40.3567 136.943 40.3567 136.644 39.764C136.399 39.2779 136.481 38.4956 136.019 38.1447C136.481 38.2791 136.97 38.2791 137.352 38.2791C138.575 38.2791 139.744 37.4433 140.64 37.4433C141.232 37.4433 141.422 37.822 141.422 38.1982C141.422 39.387 139.01 40.3567 137.868 40.3567ZM77.1295 61.5008C78.0515 61.5008 77.8611 55.8904 79.3553 55.8904C79.7086 55.8904 79.8163 56.2413 79.8163 56.6735C79.8163 57.9403 79.192 59.8018 79.192 60.8259C79.192 61.339 79.3273 61.5008 79.572 61.5008C80.2244 61.5008 81.3644 55.3238 82.4782 55.3238C82.8315 55.3238 82.9935 55.6743 82.9935 56.026C82.9935 57.3202 81.3373 61.0416 81.3373 62.0935C81.3373 62.2544 81.392 62.3896 81.5273 62.3896C82.2067 62.3896 83.5644 59.4779 83.9978 58.0216C84.2426 57.2658 84.5687 56.8605 84.8673 56.8605C85.1387 56.8605 85.3835 57.158 85.3835 57.7785C85.3835 59.2348 84.0245 62.6597 82.8315 64.9535C81.9086 66.7324 80.4691 69.2941 80.4691 70.7235C80.4691 71.4514 80.6031 72.2059 81.6639 73.1243C79.9249 73.0164 79.2187 72.8547 78.5686 71.5058C75.6637 77.2501 83.9173 76.6839 81.0925 81.7808C80.5764 80.865 76.5039 79.9205 76.5039 74.5801C76.5039 69.9686 80.5764 67.2721 80.5764 65.3562C80.5764 64.9804 80.4428 64.656 80.0882 64.3586C79.192 63.6029 79.164 62.9849 78.4604 62.9849C77.943 62.9849 77.3182 64.1703 77.9693 65.2222C78.1877 65.5731 78.3777 65.788 78.3777 66.1123C78.3777 66.8668 77.1816 68.8889 76.3419 68.8889C75.5004 68.8889 74.849 66.8146 74.849 63.4685C74.849 60.5019 75.5271 57.5089 76.3686 57.5089C76.6133 57.5089 76.6948 57.6711 76.6948 57.8863C76.6948 58.2372 76.5866 58.9382 76.5866 60.1236C76.5866 61.3921 76.8848 61.5008 77.1295 61.5008Z" fill="#0F0E9A"/>
<path id="Vector_2" d="M84.0521 69.402C85.1939 69.402 86.1426 68.5649 86.1426 66.7059V63.9538C86.1426 62.9027 86.2245 61.7165 86.9316 60.8794C86.8501 61.2303 86.8501 61.6086 86.8501 61.9583C86.8501 64.2777 88.153 65.8697 88.153 68.1079C88.153 68.9424 87.9083 69.402 87.2581 69.402C86.6321 69.402 86.6868 68.8345 86.5507 68.8345C86.4421 68.8345 86.2792 69.1854 86.2792 69.5637C86.2792 70.1299 86.6868 71.02 87.8264 71.02C88.8054 71.02 89.5921 70.1299 89.5921 69.1319C89.5921 66.7063 87.6916 64.0081 87.6916 61.4203C87.6916 60.2858 87.9897 59.5309 88.2345 58.9374C88.2345 64.3055 92.8231 68.2153 92.8231 70.4526C92.8231 70.9657 92.444 71.3705 91.8739 71.3705C91.2479 71.3705 90.9497 70.8844 90.9497 70.5061C90.9497 70.3174 90.9217 70.2643 90.8412 70.2643C90.6792 70.2643 90.1897 70.8035 90.1897 71.5062C90.1897 72.395 90.9217 73.4748 92.2807 73.4748C93.827 73.4748 94.6693 72.1785 94.6693 71.02C94.6693 68.1887 89.1026 63.9007 89.1026 59.3157C89.1026 58.5334 89.2379 57.2658 89.8088 56.2948C86.2241 58.5865 85.1125 61.6356 85.1125 64.306C85.1125 66.6255 85.031 67.7826 83.8367 67.7826C83.2107 67.7826 83.0487 67.2177 82.8311 67.2177C82.6673 67.2177 82.5863 67.7026 82.5863 67.837C82.5863 68.8345 83.3205 69.402 84.0521 69.402ZM131.109 42.4605C132.304 42.4605 133.202 41.9213 133.202 41.5969C133.202 41.4904 133.039 41.4086 132.684 41.4086C132.331 41.4086 131.625 41.3817 130.293 41.1664C129.151 40.9764 128.282 40.5459 127.955 40.5459C127.847 40.5459 127.792 40.5994 127.792 40.6803C127.792 41.3817 129.098 42.4605 131.109 42.4605ZM125.19 39.0357C125.535 38.8059 127.064 39.1696 129.044 38.1986C129.259 38.0773 129.502 38.0125 129.749 38.0103C130.701 38.0103 130.455 39.0887 131.327 39.0887C132.005 39.0887 132.876 38.5217 133.392 38.5217C134.202 38.5217 135.37 41.0577 135.37 42.244C135.37 43.6203 133.283 44.4556 130.809 44.4556C127.202 44.4556 125.026 41.3286 125.026 39.3053C125.026 39.1431 125.109 39.0887 125.19 39.0357ZM84.623 79.5687C83.7277 79.7853 82.2878 81.1855 82.2878 83.4001C82.2878 86.0423 85.1392 90.1155 89.8364 90.1155C93.7994 90.1155 94.7775 87.392 94.7775 85.5561C94.7775 81.4834 92.2535 78.6242 88.9682 78.6242C87.1758 78.6242 85.5739 79.9209 85.5739 81.8339C85.5739 83.6154 86.9311 86.2845 90.1626 86.2845C91.6835 86.2845 92.5784 85.2057 92.5784 83.9659C92.5784 82.7518 91.4655 81.0807 89.8364 81.0807C89.3469 81.0807 88.9949 81.4021 88.9949 81.9152C88.9949 82.5618 89.8911 83.2101 91.004 83.2101C91.2755 83.2101 91.4922 83.1571 91.6021 83.1027C91.6555 83.1836 91.6835 83.3188 91.6835 83.4267C91.6835 84.0472 91.0846 84.4255 90.1626 84.4255C88.7782 84.4255 87.4464 83.4001 87.4464 81.7795C87.4464 80.8106 88.2888 80.1092 89.5102 80.1092C91.9274 80.1092 93.3664 82.2391 93.3664 84.3712C93.3664 86.2841 92.3082 87.3925 90.1359 87.3925C85.7906 87.3925 83.673 83.5076 84.623 79.5687ZM113.513 89.9803C113.513 90.2661 113.628 90.5401 113.832 90.7423C114.035 90.9444 114.311 91.0583 114.599 91.0591C114.886 91.0583 115.162 90.9445 115.366 90.7424C115.569 90.5403 115.684 90.2665 115.684 89.9807C115.684 89.6947 115.569 89.4206 115.366 89.2183C115.162 89.0159 114.887 88.9017 114.599 88.9006C114.311 88.9017 114.035 89.0159 113.832 89.2183C113.628 89.4206 113.514 89.6947 113.513 89.9807L113.513 89.9803ZM115.618 95.3707C116.919 95.3707 116.853 95.2628 117.26 95.2628C117.667 95.2628 117.695 95.5059 117.695 95.6681C117.695 96.2617 116.363 96.9913 114.002 96.9913C112.616 96.9913 111.775 96.2617 111.531 95.4529C110.174 96.3152 108.11 97.0975 106.073 97.0975C100.508 97.0975 99.0956 94.6958 97.3579 93.9157C96.0257 93.3221 93.9899 94.4831 91.1398 91.3266C91.5198 91.4079 92.0359 91.4353 92.444 91.4353C94.9399 91.4353 96.2704 90.2225 96.2704 88.2792C96.2704 88.0361 96.2437 87.7699 96.2157 87.5281C96.9766 87.8243 98.7155 89.1171 99.1223 91.4075C99.177 91.6784 100.29 91.9201 100.995 91.9201C101.974 91.9201 103.223 91.5153 103.412 89.9259C106.671 89.6563 108.871 87.7421 109.333 85.3126C110.499 85.6909 111.829 86.7433 112.155 87.2838C112.616 87.1216 113.16 87.0407 113.784 87.0407C114.652 87.0407 115.631 87.2029 116.798 87.5542C116.853 87.2029 116.907 86.7711 117.45 86.7711C118.264 86.7711 118.047 87.6612 118.318 88.1713C118.455 88.4409 119.135 88.6031 119.135 89.1428C119.135 89.6563 118.698 89.845 118.428 89.845C118.318 89.845 118.183 89.8185 118.101 89.792C117.559 89.9803 117.532 93.8626 115.25 93.8626C113.567 93.8626 112.02 92.4876 111.341 90.763C111.149 90.2503 110.744 89.9259 110.363 89.9259C109.93 89.9259 109.685 90.0072 109.169 90.5743C107.704 92.1632 105.259 93.5387 102.246 93.5387C101.321 93.5387 100.589 93.4573 100.398 93.4573C100.29 93.4573 100.29 93.4839 100.29 93.5108C100.29 93.7004 101.213 94.4296 103.223 94.4296C108.001 94.4296 109.169 91.7584 109.93 91.7584C110.038 91.7584 110.363 91.7584 110.553 92.1902C111.665 94.7767 114.097 95.3707 115.618 95.3707ZM132.087 78.1929C131.517 78.1929 128.363 82.3735 126.331 82.3735C125.842 82.3735 125.435 81.4555 125.435 80.7576C125.435 80.3793 125.678 80.1096 126.549 79.9209C131.218 78.8673 130.185 75.3881 134.174 75.3881C136.373 75.3881 138.819 76.8722 138.819 80.2171C138.819 83.7776 133.718 88.1987 132.956 88.1987C132.331 88.1987 131.653 87.3099 131.653 86.7163C131.653 86.5289 131.734 86.2841 132.277 86.0693C134.88 85.0422 136.373 82.6709 136.373 81.4555C136.373 81.1859 136.238 80.9198 135.884 80.9198C135.423 80.9198 133.446 85.3944 131.245 85.3944C129.723 85.3944 128.174 84.0207 128.174 83.3723C128.174 82.2939 132.575 80.2979 132.575 78.7864C132.575 78.2194 132.305 78.1929 132.087 78.1929H132.087ZM135.015 76.5213C134.635 76.5213 134.229 76.8187 134.229 77.5484C134.229 78.3546 134.853 78.8673 135.207 79.0295C135.396 79.1374 135.696 79.2461 135.992 79.2461C136.781 79.2461 137.405 79.0295 137.405 78.3816C137.405 77.548 136.183 76.5213 135.015 76.5213ZM84.2969 45.2914C84.2978 45.5776 84.4126 45.8518 84.6164 46.0542C84.8201 46.2566 85.0962 46.3706 85.3843 46.3715C85.6721 46.3702 85.9476 46.2559 86.1507 46.0535C86.3539 45.8511 86.4682 45.5772 86.4688 45.2914C86.4679 45.0059 86.3534 44.7323 86.1503 44.5303C85.9471 44.3283 85.6718 44.2142 85.3843 44.213C85.0964 44.2137 84.8205 44.3274 84.6167 44.5295C84.413 44.7315 84.298 45.0054 84.2969 45.2914ZM82.8858 42.8645C82.8867 43.1501 83.0013 43.4238 83.2045 43.6258C83.4077 43.8278 83.6832 43.9418 83.9707 43.9429C84.2585 43.9422 84.5344 43.8283 84.738 43.6263C84.9417 43.4242 85.0566 43.1504 85.0577 42.8645C85.0567 42.5785 84.9418 42.3046 84.7382 42.1025C84.5345 41.9003 84.2586 41.7864 83.9707 41.7857C83.6832 41.7868 83.4077 41.9008 83.2045 42.1028C83.0013 42.3048 82.8867 42.5785 82.8858 42.8641V42.8645ZM81.9077 50.2535C81.2821 50.4157 79.9805 51.1714 79.9805 52.5186C79.9805 53.49 80.7388 54.1101 81.691 54.1101C82.1796 54.1101 82.5325 54.0023 82.7492 53.8405C81.9896 53.1126 81.7182 52.3033 81.7182 51.4954C81.7182 50.9283 81.8 50.5774 81.9077 50.2535ZM75.2566 50.6322C75.2294 50.7674 75.2294 50.9018 75.2294 51.0362C75.2294 52.3033 75.9076 53.0047 76.8038 53.0047C77.4811 53.0047 78.27 52.5995 78.9749 51.7098C78.6517 51.7638 78.3245 51.7905 77.9968 51.7894C76.9938 51.7894 75.9076 51.5223 75.2566 50.6322ZM74.3057 53.0313C74.3057 55.0811 74.9304 56.0526 76.0429 56.0526C76.9124 56.0526 78.08 55.4321 79.463 54.2454C78.4049 54.4889 77.5905 54.6493 76.8576 54.6493C75.8796 54.6493 75.1213 54.2723 74.3057 53.0317V53.0313ZM81.3381 42.244C81.4976 41.7378 81.5796 41.2107 81.5816 40.6803C81.5816 39.3862 80.984 37.4163 79.1382 37.4163C78.08 37.4163 77.3178 38.2521 77.3178 39.2509C77.3178 41.3821 79.4635 42.244 81.3381 42.244ZM79.0287 49.0407C78.1334 49.0407 77.1558 47.9353 77.1558 46.9373C77.1558 46.3981 77.5625 45.7232 77.862 45.7232C77.9705 45.7232 78.0253 45.8045 78.0516 45.9941C78.2153 47.3147 79.083 48.0705 79.8991 48.4467C79.9809 48.501 80.0339 48.528 80.0339 48.5823C80.0339 48.7706 79.5178 49.0402 79.0283 49.0402L79.0287 49.0407ZM81.5282 45.7497C81.7156 46.0039 82.2343 46.3172 82.2343 46.5059C82.2343 46.8829 82.0163 47.3691 81.5816 47.3691C80.6307 47.3691 79.8711 45.9397 79.8711 45.1296C79.8711 44.6178 80.1705 44.5648 80.576 44.5648C80.7673 44.5648 80.8474 44.5913 80.984 44.6726C81.2287 44.8065 81.2287 45.3462 81.5282 45.7497ZM75.148 49.095C75.0967 49.1785 75.0661 49.2833 75.0661 49.3924C75.0661 49.6342 75.3376 49.9038 75.5814 49.9038C75.7995 49.9038 75.9347 49.8508 76.0429 49.8508C76.6943 49.8508 77.4272 50.3078 78.4867 50.3078C79.1102 50.3078 79.8439 50.1195 80.7673 49.662C82.7212 48.6897 83.4834 46.2907 83.4834 45.8854C83.4834 45.3727 83.0685 45.439 82.7212 44.9674C82.3757 44.4984 82.5084 44.0812 82.2878 43.8621C82.1611 43.7362 81.7729 43.7277 81.2821 43.6738C81.0838 43.6545 80.8846 43.6455 80.6854 43.6468C79.7892 43.6468 78.7276 43.7555 77.5358 44.5104C75.1799 46.0027 75.5267 48.4745 75.148 49.095ZM84.1616 48.0166C83.564 48.7163 82.9392 49.9038 82.9392 51.1171C82.9392 52.5729 83.8367 53.7862 85.221 53.7862C86.5507 53.7862 87.175 52.6542 87.175 51.4954C87.175 49.6886 85.5192 48.4201 84.1616 48.0161V48.0166ZM78.3514 42.838C78.3514 42.838 77.5625 43.4303 76.5858 43.4303C75.4194 43.4303 74.4952 42.5679 74.4952 41.3551C74.4952 40.5181 74.9304 39.6562 75.9343 39.224C75.9076 39.3866 75.9076 39.5205 75.9076 39.6827C75.9076 41.2195 76.7758 42.3797 78.3514 42.838ZM126.222 51.7902C126.222 52.4116 126.739 52.9243 127.357 52.9243C127.659 52.9227 127.949 52.8027 128.163 52.5904C128.376 52.3781 128.497 52.0905 128.499 51.7902C128.497 51.4904 128.376 51.2035 128.162 50.9917C127.948 50.78 127.659 50.6605 127.357 50.6592C126.74 50.6592 126.222 51.171 126.222 51.7898V51.7902ZM126.304 55.1881C126.304 55.5239 126.438 55.8459 126.677 56.0834C126.916 56.3208 127.24 56.4542 127.579 56.4542C127.917 56.4542 128.241 56.3208 128.48 56.0834C128.719 55.8459 128.853 55.5239 128.853 55.1881C128.847 54.8564 128.71 54.5403 128.472 54.3078C128.233 54.0753 127.913 53.9451 127.579 53.9451C127.244 53.9451 126.924 54.0753 126.685 54.3078C126.447 54.5403 126.31 54.8564 126.304 55.1881ZM122.392 57.4811C122.393 57.9746 122.591 58.4477 122.942 58.7966C123.294 59.1455 123.77 59.3418 124.267 59.3426C124.764 59.3415 125.24 59.145 125.591 58.7962C125.942 58.4474 126.14 57.9745 126.142 57.4811C126.14 56.9877 125.942 56.515 125.591 56.1662C125.24 55.8175 124.763 55.621 124.267 55.6199C123.77 55.6207 123.294 55.8171 122.942 56.166C122.591 56.5149 122.393 56.9879 122.392 57.4815V57.4811ZM123.396 53.6792C123.397 53.9652 123.512 54.2392 123.716 54.4413C123.92 54.6434 124.196 54.7572 124.483 54.7576C124.771 54.7569 125.047 54.6431 125.251 54.441C125.454 54.2389 125.569 53.965 125.57 53.6792C125.569 53.3934 125.454 53.1195 125.251 52.9173C125.047 52.7152 124.772 52.6012 124.484 52.6003C124.196 52.601 123.92 52.7148 123.716 52.9168C123.513 53.1189 123.398 53.3928 123.396 53.6788V53.6792ZM119.841 55.8365C119.842 56.1215 119.956 56.3946 120.158 56.5965C120.361 56.7983 120.636 56.9125 120.922 56.914C121.521 56.914 122.011 56.4305 122.011 55.8365C122.01 55.5503 121.894 55.2762 121.69 55.0741C121.486 54.872 121.21 54.7584 120.922 54.758C120.635 54.76 120.361 54.8743 120.158 55.0763C119.956 55.2783 119.842 55.5515 119.841 55.8365ZM122.636 49.5272C122.636 50.4704 123.423 51.2519 124.374 51.2519C125.326 51.2519 126.114 50.4704 126.114 49.5272C126.114 48.5815 125.326 47.8005 124.374 47.8005C123.423 47.8005 122.636 48.5815 122.636 49.5272ZM124.673 46.2089C124.673 46.3435 124.7 46.4768 124.752 46.6011C124.804 46.7255 124.88 46.8384 124.976 46.9335C125.072 47.0286 125.186 47.104 125.311 47.1554C125.436 47.2068 125.57 47.2332 125.706 47.233C125.844 47.237 125.981 47.2134 126.11 47.1637C126.239 47.1139 126.356 47.0391 126.455 46.9435C126.554 46.8479 126.633 46.7336 126.687 46.6073C126.74 46.481 126.768 46.3452 126.768 46.2081C126.768 46.0709 126.74 45.9352 126.687 45.8088C126.633 45.6825 126.554 45.5682 126.455 45.4726C126.356 45.3771 126.239 45.3022 126.11 45.2525C125.981 45.2028 125.844 45.1792 125.706 45.1831C125.57 45.1831 125.436 45.2097 125.311 45.2612C125.185 45.3128 125.072 45.3883 124.976 45.4836C124.88 45.5789 124.804 45.692 124.752 45.8164C124.7 45.9409 124.673 46.0742 124.673 46.2089ZM119.761 48.798C119.76 49.0692 119.868 49.3295 120.06 49.5218C120.253 49.7142 120.514 49.8228 120.787 49.8238C121.061 49.8238 121.323 49.7158 121.517 49.5236C121.71 49.3314 121.819 49.0707 121.819 48.7989C121.819 48.527 121.71 48.2663 121.517 48.0741C121.323 47.8819 121.061 47.7739 120.787 47.7739C120.514 47.7748 120.253 47.8832 120.061 48.0752C119.868 48.2672 119.761 48.5271 119.761 48.798ZM119.624 52.3029C119.623 52.519 119.664 52.7332 119.747 52.9332C119.829 53.1332 119.951 53.3149 120.104 53.468C120.258 53.6211 120.44 53.7424 120.641 53.8249C120.842 53.9074 121.058 53.9495 121.275 53.9488C121.493 53.9503 121.71 53.9088 121.912 53.8267C122.114 53.7445 122.297 53.6234 122.451 53.4703C122.606 53.3172 122.728 53.1352 122.811 52.9348C122.894 52.7344 122.936 52.5196 122.935 52.3029C122.935 51.3871 122.2 50.6596 121.275 50.6596C121.058 50.6587 120.843 50.7007 120.642 50.783C120.441 50.8653 120.258 50.9864 120.105 51.1392C119.951 51.292 119.83 51.4735 119.747 51.6733C119.665 51.873 119.623 52.087 119.624 52.3029ZM116.202 54.0297C116.202 54.8667 116.907 55.5656 117.749 55.5656C118.591 55.5656 119.298 54.8667 119.298 54.0297C119.298 53.1939 118.591 52.4925 117.749 52.4925C116.907 52.4925 116.202 53.1943 116.202 54.0297ZM117.124 50.2274C117.125 50.5129 117.24 50.7866 117.443 50.9886C117.646 51.1907 117.922 51.3049 118.209 51.3062C118.497 51.3056 118.774 51.1919 118.978 50.9899C119.181 50.7879 119.297 50.5139 119.298 50.2278C119.297 49.9416 119.182 49.6675 118.978 49.4654C118.774 49.2633 118.497 49.1495 118.209 49.1489C117.922 49.1503 117.647 49.2644 117.443 49.4663C117.24 49.6683 117.126 49.9418 117.124 50.2274ZM126.657 58.5334C126.657 57.9942 127.147 57.5354 127.683 57.5354C128.282 57.5354 128.744 57.9937 128.744 58.5334C128.744 59.1539 128.283 59.5853 127.683 59.5853C127.147 59.5853 126.657 59.1539 126.657 58.5334ZM127.358 89.5485C127.494 89.5485 127.657 89.6281 127.657 90.1155C127.657 90.7082 127.386 91.4892 126.413 92.1097C125.733 92.5681 124.809 92.9468 123.45 92.9708C123.667 92.325 123.83 91.6501 123.83 91.0056C123.83 90.7891 123.804 90.6273 123.777 90.3851H124.131C126.277 90.3851 127.202 89.5485 127.358 89.5485ZM127.575 86.8781C127.796 86.6932 127.847 86.3932 127.847 86.0958V85.4753C127.847 84.693 126.658 84.2359 125.026 84.2359C123.042 84.2359 121.983 85.1235 121.983 85.5018V86.7441C121.983 87.2568 123.179 87.7695 124.646 87.7695C125.815 87.7695 126.875 87.4733 127.576 86.8781H127.575ZM128.988 87.1755C128.282 87.7164 126.631 88.9267 123.885 88.9267C122.418 88.9267 121.765 88.4688 121.547 88.4688C121.276 88.4688 120.976 88.7384 120.678 89.0901C120.033 89.8459 119.19 91.2487 119.19 92.7846C119.19 93.863 120.033 94.9385 121.602 94.9385C126.684 94.9385 130.483 91.7845 130.483 89.2245C130.483 87.7695 129.615 87.1755 128.988 87.1755H128.988ZM129.939 64.4943C129.939 65.1679 130.157 65.9501 130.837 65.9501C131.407 65.9501 131.896 65.0883 131.896 64.1438C131.896 63.0649 131.706 62.2279 131.706 61.7961C131.706 61.6086 131.788 61.5277 131.896 61.5277C132.304 61.5543 132.685 62.6597 133.12 62.6597C133.61 62.6597 134.337 61.7695 134.636 61.7695C134.718 61.7695 134.744 61.8774 134.744 61.9039C134.744 62.3092 134.119 63.2006 134.119 63.5498C134.119 63.8459 135.695 63.9007 135.695 64.1703C135.695 64.5752 134.044 64.5752 133.256 64.9261C132.495 65.2487 132.033 65.654 132.033 66.1932C132.033 66.7324 132.575 66.8394 133.338 66.8394C135.152 66.8394 136.428 65.8693 136.834 65.8693C136.916 65.8693 136.97 65.9236 136.97 66.0049C136.97 66.2745 136.047 67.1634 136.047 67.5686C136.047 68.0266 137.732 68.5649 137.705 68.8345C137.679 68.9158 137.569 68.9424 137.379 68.9424C137.079 68.9424 136.618 68.8623 136.264 68.8623C136.047 68.8623 135.857 68.8889 135.774 68.9967C135.587 69.2132 135.829 70.6413 135.451 70.6413C135.097 70.6413 134.173 67.4608 132.087 67.4608C131.788 67.4608 131.571 67.7026 131.571 68.1079C131.571 69.1854 132.63 70.4261 133.636 71.02C134.092 71.3162 134.854 71.6136 134.854 71.7758C134.854 72.0976 133.12 71.8023 133.12 72.3407C133.12 72.8268 133.338 73.5561 133.338 73.9866C133.338 74.1218 133.31 74.2827 133.147 74.2827C132.821 74.2827 132.033 72.7999 131.652 72.7999C131.326 72.7999 130.62 73.6892 130.319 73.6892C130.239 73.6892 130.185 73.6078 130.185 73.5295C130.185 72.9077 131.19 71.5062 131.19 70.1299C131.19 69.4829 131.108 68.08 130.319 68.08C129.668 68.08 128.934 69.1041 128.608 70.1299C128.418 70.7226 128.554 73.0151 128.119 73.0151C127.711 73.0151 127.82 71.4784 127.275 71.4784C126.875 71.4784 126.006 72.2063 125.706 72.2063C125.652 72.2063 125.598 72.1785 125.598 72.125C125.598 71.8023 126.385 70.7504 126.385 70.5339C126.385 70.1299 124.592 70.0768 124.592 69.7525C124.592 69.5642 125.298 69.4285 125.951 69.3207C127.331 69.0776 129.37 68.0796 129.37 66.6794C129.37 65.1148 127.846 64.4399 126.848 63.7916C126.331 63.4689 125.761 63.2002 125.761 62.9836C125.761 62.7675 126.413 62.7675 126.685 62.7675C127.091 62.7675 127.495 62.7405 127.495 62.4179C127.495 62.1739 127.439 61.6899 127.439 61.3125C127.439 61.0416 127.467 60.8251 127.577 60.8251C127.983 60.8251 128.554 62.147 128.825 62.147C129.26 62.147 129.858 61.0685 130.267 61.0685C130.401 61.0685 130.456 61.1503 130.456 61.3925C130.456 62.3896 129.939 63.522 129.939 64.4943ZM116.988 56.5922C117.288 58.8843 120.385 57.7246 120.385 60.5024C120.385 60.9072 120.277 61.5012 120.277 62.0113C120.277 62.6062 120.33 63.1193 120.787 63.1193C121.248 63.1193 121.358 62.7953 121.358 62.3635C121.358 61.9304 121.249 61.3921 121.249 61.0959C121.249 60.1515 121.928 59.9362 122.336 59.9362C123.37 59.9362 124.157 60.9885 125.706 60.9885C125.353 62.714 121.765 62.2544 121.765 64.1438C121.765 65.0883 122.717 65.3022 123.342 65.3022C123.913 65.3022 124.104 65.2209 124.104 64.7373C124.104 64.4665 124.048 64.1703 124.048 63.9816C124.048 63.953 124.053 63.9246 124.064 63.8981C124.075 63.8716 124.091 63.8476 124.111 63.8274C124.132 63.8072 124.156 63.7913 124.183 63.7806C124.209 63.7699 124.238 63.7646 124.267 63.765C124.865 63.765 127.793 65.9771 127.793 66.6516C127.793 67.2708 124.7 67.8913 123.804 67.8913C123.533 67.8913 123.478 67.703 123.478 67.5952C123.478 67.4065 123.939 66.8394 123.939 66.5163C123.939 66.2745 123.533 66.1123 122.444 66.1123C121.928 66.1123 121.548 66.1654 121.548 66.572C121.548 67.2986 122.744 68.1887 122.744 68.8623C122.744 69.4015 122.418 69.7259 121.548 69.7259C120.814 69.7259 119.706 69.1589 119.706 68.2153C119.706 67.4608 120.489 66.7063 120.489 66.248C120.489 66.1123 120.385 65.8958 120.059 65.8958C119.053 65.8958 118.782 68.5384 115.223 68.8345C115.794 68.3231 116.282 67.7569 116.282 66.5985C116.282 66.0315 116.147 65.5714 116.147 64.9526C116.147 64.1438 116.527 63.7385 117.07 63.7385C118.074 63.7385 118.563 65.14 119.216 65.14C119.571 65.14 119.95 64.8182 119.95 64.3321C119.95 62.2822 115.984 62.5788 115.984 59.6931C115.984 58.9108 116.254 57.9407 116.988 56.5922" fill="#0F0E9A"/>
<path id="Vector_3" d="M122.146 74.1214C122.146 74.4984 122.418 74.7963 122.798 74.7963C123.234 74.7963 123.506 74.4175 123.506 73.9857C123.506 73.4208 122.989 72.6377 122.499 72.6377C122.281 72.6377 122.364 72.9616 122.308 73.3121C122.281 73.5809 122.146 73.9048 122.146 74.121V74.1214ZM120.734 70.5348C123.586 71.074 125.135 73.2047 125.135 75.2002C125.135 76.5761 124.266 77.8411 122.744 77.8411C121.358 77.8411 120.358 76.8992 120.358 75.3877C120.358 74.2553 121.249 73.0691 121.249 71.9093C121.249 71.4514 121.113 70.9927 120.734 70.5343V70.5348ZM117.125 75.1202C117.395 75.3877 117.478 75.6586 117.478 75.9282C117.478 76.333 117.288 76.7648 117.288 77.2231C117.288 77.8693 117.776 78.4364 118.481 78.4364C119.243 78.4364 119.761 77.8415 119.761 77.1435C119.761 76.1178 118.698 75.1202 117.125 75.1202ZM126.114 73.3943C126.304 73.6883 126.385 73.9857 126.385 74.2553C126.385 75.0115 125.869 75.7116 125.869 76.4952C125.869 77.3853 126.549 78.112 127.576 78.112C128.69 78.112 129.451 77.2231 129.451 76.1713C129.451 74.7419 128.148 73.5287 126.114 73.3943ZM117.776 71.9628C119.027 72.1246 119.326 72.5564 119.326 72.9086C119.326 73.5009 118.782 73.6883 118.264 73.6883C117.884 73.6883 117.45 73.6087 116.988 73.6087C116.391 73.6087 115.794 73.7426 115.304 74.3101C115.658 74.3645 116.174 74.6062 116.174 75.1467C116.174 76.7105 111.802 75.4155 111.802 79.4348C111.802 81.5647 114.028 83.8854 117.395 83.8854C119.135 83.8854 120.249 83.3184 120.249 82.6701C120.249 82.1587 119.326 82.5083 119.326 82.0765C119.326 81.8878 119.651 81.536 119.651 81.2394C119.651 81.1076 119.543 80.8646 119.326 80.8646C118.835 80.8646 117.912 81.6447 116.037 81.6447C114.572 81.6447 113.132 80.8102 113.132 79.677C113.132 79.4352 113.241 79.2987 113.404 79.2987C113.567 79.2987 113.784 79.4074 113.974 79.4074C114.138 79.4074 114.165 79.2987 114.165 79.0021C114.165 78.706 114.165 77.8689 114.68 77.8689C115.196 77.8689 116.174 79.7579 119.924 79.7579C121.168 79.7579 123.586 79.5148 124.484 78.706C124.456 81.6725 122.119 85.5822 117.233 85.5822C112.156 85.5822 109.439 81.536 109.439 77.815C109.439 73.6883 112.833 69.9416 117.478 69.9416C118.671 69.9416 119.678 70.3443 119.678 70.8574C119.678 71.5601 117.912 71.1283 117.776 71.9628ZM100.208 41.166C102.001 41.166 102.814 42.7032 102.814 44.4291C102.814 45.1836 102.598 46.2902 102.245 46.2902C101.892 46.2902 101.946 45.6697 101.892 45.1027C101.838 44.3756 101.703 44.2138 101.458 44.2138C100.995 44.2138 100.698 45.2914 100.698 46.2902C100.698 46.9095 100.807 47.6117 101.295 47.6117C101.566 47.6117 101.811 47.4765 101.973 47.3143C101.864 48.5554 100.94 49.6351 99.6376 49.6351C97.2485 49.6351 96.3523 46.856 96.0809 45.2379C94.6418 46.7486 93.3122 47.8548 90.9222 47.8548C88.6964 47.8548 87.6907 46.2372 87.6907 44.7C87.6907 44.2404 87.8536 43.0541 88.4249 43.0541C89.1031 43.0541 88.5068 45.2644 89.836 45.2644C90.1621 45.2644 90.7589 44.9948 91.0855 44.106C91.2751 43.5655 91.3849 43.0006 91.3849 42.5145C91.3849 41.7852 91.2212 41.3282 90.6796 41.3282C90.2169 41.3282 89.646 41.6778 89.456 41.8665C90.1087 39.9241 91.6831 38.9265 93.4194 38.9265C95.566 38.9265 96.7056 40.8155 96.7056 42.9184C96.7056 43.2146 96.6776 43.539 96.6237 43.8351C97.5471 42.3244 98.8241 41.166 100.208 41.166ZM98.1167 44.3478C98.1167 43.8899 98.0085 43.782 97.8999 43.782C97.6285 43.782 97.3303 44.106 96.8956 44.8339C96.9503 45.8054 97.1136 46.2367 97.3851 46.2367C97.6824 46.2367 98.1167 45.291 98.1167 44.3478ZM94.3971 45.4532C94.6952 45.4532 95.0765 45.1292 95.7827 44.3478C95.8374 43.9969 95.8374 43.6729 95.8374 43.2694C95.8374 42.7301 95.6194 42.1361 95.2945 42.1361C94.4785 42.1361 94.0718 44.2947 94.0718 44.8622C94.0718 45.1836 94.2338 45.4532 94.3971 45.4532ZM98.8241 47.8548C99.5023 47.8548 100.262 45.2644 100.262 43.6464C100.262 43.2955 100.208 42.9189 100.045 42.9189C99.4743 42.9189 98.5243 45.5888 98.5243 47.0447C98.5243 47.6117 98.6608 47.8548 98.8241 47.8548ZM92.1721 46.3711C93.095 46.3711 94.1519 41.4091 94.1519 40.5724C94.1519 40.3559 94.0713 40.1937 93.8817 40.1937C93.0403 40.1937 91.8727 44.914 91.8727 45.9659C91.8727 46.1559 91.9274 46.3711 92.1721 46.3711Z" fill="#0F0E9A"/>
<path id="Vector_4" d="M95.1304 48.4197C93.9627 48.4197 93.9093 49.8238 93.9093 52.6538C93.0411 50.7935 91.6016 48.798 89.9178 48.798C88.7782 48.798 88.3435 49.5542 88.3435 50.8736C88.3435 51.1444 88.3702 51.5497 88.4253 51.7902C88.5602 51.3332 88.9962 51.1444 89.5378 51.1444C90.7055 51.1444 92.1182 52.0333 93.0407 53.2474C91.9817 53.0591 90.9493 52.8704 90.0807 52.8704C89.5378 52.8704 89.0484 52.9247 88.6416 53.1134C87.854 53.4626 86.795 54.6224 86.795 56.3761C86.795 56.6457 86.823 56.9419 86.8777 57.2662C87.8273 55.162 90.3526 54.2184 91.9817 54.2184C92.3078 54.2184 92.5517 54.2454 92.7413 54.2719C91.9002 55.0264 91.7102 56.3496 91.6555 57.2384C91.6288 57.6702 91.4655 57.698 91.1673 57.698C91.1673 58.5869 91.8735 59.9097 91.8735 60.5833C91.8735 60.8251 91.7369 61.0416 91.6021 61.0959C91.6021 62.2826 92.7964 63.1458 92.7964 63.9007C92.7964 64.089 92.7413 64.2516 92.6598 64.3325C92.7417 64.8187 94.0554 65.6348 94.2256 66.0434C94.4341 66.5407 94.6689 66.6255 94.8051 66.6255C95.2665 66.6255 95.9986 66.0845 95.9986 65.5997C95.9986 65.4379 95.8633 65.2487 95.756 65.1679C95.2398 64.7908 94.9675 63.9816 94.7504 63.4424C94.5595 63.4424 94.3135 63.3624 94.2282 63.0457C94.0795 62.4868 94.0722 61.4469 93.8542 60.8251C93.5009 60.7455 93.338 60.6098 93.338 59.8836C93.338 59.5314 93.556 58.1564 93.556 57.6702C93.3927 57.6702 93.176 57.5624 93.176 57.238C93.176 56.3761 94.0455 55.7017 94.2889 54.5958C95.8378 55.7278 96.2166 56.8875 96.2166 57.9133C96.2166 58.4512 96.1347 58.9652 96.0266 59.4513C97.1675 58.8843 98.878 58.0485 98.878 56.3496C98.878 55.3507 98.417 54.2454 95.3484 53.8136C96.298 53.4626 97.4941 53.2752 98.498 53.2752C100.236 53.2752 101.24 53.8136 101.457 55.0264C101.81 54.4884 102.083 53.8666 102.083 53.3017C102.083 51.9789 100.967 51.1166 99.5562 51.1166C97.9004 51.1166 96.4342 51.9789 94.8589 53.0321C95.5664 51.5762 96.0533 50.7126 96.9227 50.7126C97.0589 50.7126 97.1955 50.7405 97.3303 50.767C97.0042 49.5807 95.7831 48.4197 95.1304 48.4197ZM140.879 67.8639C142.238 67.8639 143.324 69.6177 143.324 71.6675C143.324 73.8501 142.292 76.2243 140.451 77.8411C140.423 74.2023 135.937 75.362 135.937 72.7186C135.937 71.5862 136.753 70.8305 137.732 70.8305C138.602 70.8305 139.28 71.0735 139.77 71.5597C139.28 71.1018 139.036 70.453 139.036 69.8342C139.036 68.8071 139.688 67.8639 140.879 67.8639ZM120.734 40.275C120.515 39.9241 119.706 39.7371 119.326 39.7371C118.129 39.7371 117.314 40.5729 117.151 41.3286C117.043 41.0577 116.96 40.7346 116.96 40.4107C116.96 39.2244 117.776 37.7681 119.761 37.7681C121.494 37.7681 122.172 38.6848 122.418 38.6848C122.689 38.6848 122.961 38.4139 123.179 38.4139C123.478 38.4139 123.478 38.8735 123.478 39.1979C123.478 40.275 122.99 42.1366 121.766 42.811C121.548 42.3518 121.113 41.84 120.412 41.5173C120.331 41.4852 120.261 41.4292 120.212 41.3568C120.164 41.2844 120.139 41.199 120.14 41.1121C120.14 40.8159 120.412 40.4372 120.733 40.275H120.734ZM116.635 42.244C117.342 42.9189 117.965 43.2154 118.725 43.2154C119.026 43.2154 119.38 43.1354 119.57 43.1354C119.814 43.1354 119.977 43.2415 119.977 43.4307C119.977 43.7277 119.706 44.213 119.38 44.4834C119.706 44.6178 120.059 44.6726 120.44 44.6726C121.982 44.6726 123.749 43.6999 123.749 41.2743C124.075 41.7048 124.267 42.5958 124.267 42.9997C124.267 45.9397 122.092 47.0717 120.087 47.0717C118.782 47.0717 118.129 46.6399 117.965 46.6399C117.451 46.6399 117.478 47.6657 117.124 47.6387C116.499 47.5313 115.93 46.155 115.93 44.6987C115.93 43.8355 116.147 42.9184 116.635 42.244ZM93.3927 25.0923C93.3927 24.9301 92.5784 24.7683 91.4655 24.7683C89.7011 24.7683 89.9446 26.2255 88.5882 26.2255C87.1759 26.2255 87.5279 24.7135 85.7359 24.7135C84.6493 24.7135 83.6463 24.9036 83.6463 25.1458C83.6463 25.4697 84.922 25.3354 84.922 26.2255C84.922 27.1687 82.18 27.4396 82.18 28.0057C82.18 28.1932 82.3955 28.2741 82.6669 28.2741C83.2649 28.2741 84.215 28.0053 84.8945 28.0053C85.2753 28.0053 85.6282 28.0853 85.6282 28.4363C85.6282 29.1107 84.1611 30.3252 84.1611 30.8644C84.1611 31.0266 84.2964 31.081 84.4326 31.081C84.9755 31.081 85.8988 29.7047 86.7678 29.7047C88.2069 29.7047 87.2577 32.7521 88.044 32.7521C88.8597 32.7521 88.5068 29.7578 89.6731 29.7578C90.6253 29.7578 91.3302 31.8342 91.9817 31.8342C92.145 31.8342 92.2811 31.7002 92.2811 31.5102C92.2811 30.9453 91.4655 29.7843 91.4655 29.0298C91.4655 28.5715 91.7916 28.355 92.2264 28.355C92.8498 28.355 93.6926 28.7324 94.1523 28.7324C94.316 28.7324 94.4789 28.6793 94.4789 28.4906C94.4789 27.8436 92.0631 27.1421 92.0631 26.3064C92.0631 25.4697 93.3927 25.4697 93.3927 25.0923ZM99.7742 27.8436C99.7742 28.3284 101.485 29.3807 102.273 29.3807C102.733 29.3807 102.869 28.7602 102.869 28.1119C102.869 27.3039 102.517 27.2774 101.81 27.2774C100.915 27.2774 99.7742 27.5205 99.7742 27.8436ZM102.599 33.1826C102.599 31.565 98.1925 28.6258 98.1451 27.3583C98.1404 27.2427 98.2037 27.1272 98.3019 27.0236C99.0572 26.234 102.191 25.6572 102.191 24.9836C102.191 24.6339 101.539 24.6339 101.212 24.6339C98.688 24.6339 94.9951 25.5506 94.9951 26.4407C94.9951 27.3587 98.3071 29.5969 98.3071 30.7022C98.3071 30.9997 98.1171 31.1075 97.8176 31.1075C96.8956 31.1075 94.8856 30.0008 93.9356 30.0008C93.5013 30.0008 93.338 30.2974 93.338 30.7288C93.338 32.0242 94.8856 34.4776 94.8856 35.2051C94.8856 35.286 94.8589 35.3934 94.7504 35.3934C94.2609 35.3934 91.9549 32.6978 91.1393 32.6978C90.8407 32.6978 90.814 33.1017 90.814 33.6953V34.6124C90.814 35.2329 90.786 35.6095 90.4892 35.6095C89.7825 35.6095 89.4551 33.641 88.7786 33.641C88.072 33.641 87.9359 37.1471 87.2577 37.1471C86.4697 37.1471 87.1491 33.2905 86.3882 33.2905C85.5468 33.2905 84.5959 35.853 83.9983 35.853C83.7815 35.853 83.7277 35.6365 83.7277 35.4478C83.7277 34.6668 84.1878 33.3992 84.1878 32.6447C84.1878 32.266 84.0797 32.0507 83.7544 32.0507C82.9121 32.0507 81.065 33.3992 80.3601 33.3992C80.2515 33.3992 80.1162 33.3448 80.1162 33.237C80.1162 32.5903 83.0749 30.5405 83.0749 29.6238C83.0749 28.7324 79.0012 29.3272 79.0012 28.3015C79.0012 27.4396 81.9086 26.5482 81.9086 25.6593C81.909 24.8757 78.4592 24.5261 77.13 24.5261C75.5263 24.5261 74.6594 24.7135 74.6594 25.1732C74.6594 25.875 78.2976 26.0911 78.2976 26.7103C78.2976 27.3039 74.5233 28.8946 74.5233 29.8113C74.5233 30.6214 79.8435 29.8656 79.8435 30.7022C79.8435 31.6189 75.2023 35.5821 75.2023 36.9041C75.2023 37.2015 75.4203 37.3354 75.7172 37.3354C77.13 37.3354 80.7935 34.6668 81.7992 34.6668C82.1525 34.6668 82.18 35.0973 82.18 35.4743C82.18 36.177 81.9353 37.2545 81.9353 38.0373C81.9353 38.6578 82.099 39.0892 82.6406 39.0892C83.6463 39.0892 84.5692 37.3902 85.2473 37.3902C86.1155 37.3902 85.6015 42.3788 86.9044 42.3788C88.0173 42.3788 88.4788 36.9849 89.1837 36.9849C89.8911 36.9849 90.462 38.5499 91.1122 38.5499C91.9265 38.5499 91.5473 35.8265 92.4164 35.8265C93.366 35.8265 96.08 39.0626 97.3036 39.0626C97.6828 39.0626 97.8176 38.7652 97.8176 38.3865C97.8176 36.9584 95.8098 33.7231 95.8098 32.6978C95.8098 32.4282 95.89 32.3468 96.1886 32.3468C97.2489 32.3468 100.344 33.8032 101.81 33.8032C102.299 33.8032 102.599 33.5335 102.599 33.1826ZM77.8073 31.6189C77.8073 32.1581 75.7447 33.9641 75.0127 33.9641C74.7413 33.9641 74.6594 33.641 74.6594 33.3448C74.6594 32.8065 74.9033 32.0507 75.2027 31.8076C75.5547 31.4837 76.3691 31.3241 76.9938 31.3241C77.3725 31.3241 77.8073 31.4028 77.8073 31.6193V31.6189ZM97.7646 34.3967C97.7646 35.3403 101.159 39.9515 101.81 39.9515C102.355 39.9515 102.76 39.0083 102.76 38.1977C102.76 37.9838 102.707 37.7685 102.599 37.6055C102.11 36.9319 98.6617 34.235 97.9008 34.235C97.8181 34.235 97.7642 34.3163 97.7642 34.3967H97.7646ZM141.368 26.2259C141.368 26.6021 141.667 26.8982 142.047 26.8982C142.137 26.8992 142.225 26.8825 142.308 26.8491C142.391 26.8157 142.466 26.7663 142.529 26.7038C142.592 26.6412 142.642 26.5668 142.676 26.4848C142.71 26.4029 142.727 26.315 142.727 26.2263C142.727 25.8476 142.427 25.551 142.047 25.551C141.958 25.5501 141.869 25.5669 141.786 25.6004C141.703 25.634 141.628 25.6837 141.565 25.7465C141.502 25.8094 141.452 25.8842 141.418 25.9665C141.384 26.0488 141.367 26.137 141.368 26.2259ZM136.943 32.1855C136.943 30.27 132.331 29.7847 132.331 29.3534C132.331 29.0037 134.908 28.4089 136.237 28.3819C134.202 25.7941 131.299 26.0637 131.299 25.6054C131.299 25.3345 133.472 24.7953 135.479 24.7953C137.162 24.7953 138.737 25.1727 138.737 26.4399C138.737 27.1426 138.167 27.8705 138.167 28.9494C138.167 29.5434 138.464 30.0548 139.254 30.0548C140.097 30.0548 140.287 29.1646 140.287 28.2201C140.287 27.4391 140.15 26.8452 140.15 26.4677C140.15 25.3345 140.933 24.5805 142.047 24.5805C142.972 24.5805 143.188 24.984 144.547 24.984C143.813 25.4158 143.543 26.1994 143.543 26.5755C143.543 27.7088 144.277 28.491 144.277 30.8105C144.277 35.0699 140.259 36.5805 135.342 36.5805C133.99 36.5805 132.549 36.4727 131.136 36.2574C130.919 36.2309 130.864 36.1761 130.864 36.0422C130.864 35.6904 132.794 35.5017 132.794 33.777C132.794 33.1022 132.576 32.4551 132.576 32.212C132.576 32.0781 132.684 31.9968 132.794 31.9968C133.202 31.9968 134.018 33.5605 135.533 33.5605C135.938 33.5605 136.944 33.4253 136.944 32.1855H136.943ZM141.53 29.4621C141.53 31.8616 139.771 33.6962 136.589 34.208C136.944 34.2341 137.27 34.2341 137.596 34.2341C141.313 34.2341 142.672 32.563 142.672 31.1614C142.672 30.3787 142.237 29.6773 141.53 29.4625V29.4621ZM139.661 64.2238C140.097 62.8758 140.641 61.9309 141.531 60.475C140.641 60.0179 138.276 59.0456 138.276 57.4537C138.276 55.5938 140.613 54.1379 141.096 54.1379C141.313 54.1379 141.368 54.3262 141.368 54.6772C141.368 55.6473 140.906 57.2119 140.906 58.0477C140.906 58.8026 141.396 59.5318 141.83 59.5318C142.291 59.5318 143.569 57.9137 143.569 56.3222C143.569 53.4618 141.041 52.5995 140.26 52.5995C139.525 52.5995 138.195 53.7862 135.07 53.7862C129.235 53.7862 127.902 48.044 127.902 45.5345C127.902 45.4271 127.929 45.3993 127.956 45.3993C128.092 45.3993 128.663 46.1019 130.51 46.1019C131.461 46.1019 132.331 45.8589 133.718 45.8589C136.971 45.8589 138.411 48.0983 140.423 50.9549C141.639 51.7098 144.548 52.9234 144.548 56.3487C144.548 59.3696 141.313 61.042 140.531 64.2773C141.776 64.1442 142.51 61.9309 143.786 61.9309C144.438 61.9309 144.738 62.4436 144.738 63.2541C144.738 64.4395 144.058 66.2206 142.753 67.326C142.781 67.2169 142.781 67.0829 142.781 66.9207C142.781 66.1663 142.483 65.0887 141.612 65.0887C140.259 65.0887 139.824 66.5437 139.064 67.7565C138.276 65.0074 137.215 62.5249 135.316 61.0142C133.392 59.477 130.076 60.3128 130.076 57.5085C130.076 56.7527 130.565 55.6751 130.565 54.8115C130.565 54.5154 130.51 54.2454 130.347 54.0292C132.957 55.0015 132.032 56.7257 133.636 58.506C134.635 59.6392 137.406 60.7181 139.01 65.3835C139.036 65.2483 139.064 64.8987 139.064 64.6556C139.064 60.6637 133.744 56.7527 133.283 55.1346C136.373 55.4855 136.916 56.2409 138.384 60.2863C138.683 61.1233 139.662 63.1997 139.662 64.2238H139.661ZM138.955 51.1436C138.955 50.5774 137.514 50.5243 137.379 48.9328C137.351 48.6897 137.271 48.2592 136.971 48.2592C136.482 48.2592 136.861 49.7421 136.318 49.7421C135.07 49.7421 134.664 47.3147 134.201 47.3147C134.091 47.3147 133.962 47.3961 133.962 47.72C133.962 48.0161 134.017 48.2062 134.017 48.5545C134.017 48.9063 133.935 49.1481 133.609 49.1481C132.875 49.1481 132.223 47.4504 131.598 47.4504C131.461 47.4504 131.326 47.5313 131.326 47.6657C131.326 47.9896 131.869 48.5823 131.869 48.8797C131.869 49.5268 130.104 49.1759 130.104 49.7155C130.104 49.9586 130.347 50.0382 130.674 50.0382C131.245 50.0382 132.142 49.7964 132.603 49.7964C132.875 49.7964 133.283 49.8508 133.283 50.2004C133.283 50.5774 132.305 51.0627 132.305 51.4132C132.305 51.5754 132.469 51.655 132.603 51.655C133.338 51.655 134.636 50.3891 135.56 50.3891C135.722 50.3891 136.128 50.47 136.128 50.7131C136.128 51.0627 135.206 51.6819 135.206 52.1946C135.206 52.3299 135.288 52.4921 135.451 52.4921C135.937 52.4921 136.59 51.2245 137.514 51.2245C137.868 51.2245 138.384 51.3601 138.656 51.3601C138.874 51.3601 138.956 51.2245 138.956 51.1436" fill="#0F0E9A"/>
<path id="Vector_5" d="M118.726 34.989C119.162 34.989 119.243 36.0417 119.326 36.661C119.38 36.9854 119.435 37.0119 119.571 37.0119C119.897 37.0119 120.412 35.7709 120.76 35.7709C121.276 35.7709 122.663 37.2002 124.972 37.2002C128.256 37.2002 131.354 34.9077 131.354 30.8636C131.354 26.9539 128.581 24.6609 124.754 24.6609C122.935 24.6609 121.602 25.551 120.896 25.551C120.467 25.5776 119.814 24.5 119.488 24.5C119.353 24.5 119.217 24.7683 119.217 25.2267C119.217 25.5245 119.217 26.4677 118.891 26.4677C118.236 26.4677 115.713 24.6078 115.713 25.2814C115.713 25.902 117.395 27.7892 117.395 28.2745C117.395 28.7606 115.739 29.219 115.739 29.5429C115.739 30.1356 117.505 30.2431 117.505 30.9992C117.505 31.7537 115.658 32.3473 115.658 32.9147C115.658 33.3718 117.505 33.0487 117.505 33.6149C117.505 34.181 116.147 36.0687 116.147 36.6066C116.147 36.7423 116.174 36.7423 116.283 36.7423C116.797 36.7423 118.345 34.9886 118.726 34.9886V34.989ZM119.516 30.5674C119.516 30.2709 118.454 29.7051 118.454 29.3807C118.454 29.3277 118.508 29.2999 118.591 29.2999C118.891 29.2999 119.407 29.4086 119.815 29.4086C120.169 29.4086 120.222 27.8979 120.489 27.8979C120.678 27.8979 121.004 29.3277 121.305 29.3277C121.657 29.3277 122.308 28.9224 122.581 28.9224C122.636 28.9224 122.689 28.9494 122.689 29.0037C122.689 29.192 122.01 29.9191 122.01 30.1356C122.01 30.3787 123.532 30.6749 123.532 30.8914C123.532 31.161 121.983 31.1345 121.983 31.3775C121.983 31.565 122.554 32.3207 122.554 32.563C122.554 32.6173 122.526 32.6451 122.472 32.6451C122.255 32.6451 121.412 32.2664 121.167 32.2664C120.869 32.2664 120.386 33.3718 120.141 33.3718C120.059 33.3718 120.006 33.2639 120.006 33.1287L119.95 32.0503C119.95 31.9424 119.897 31.8346 119.761 31.8346C119.435 31.8346 118.809 31.8068 118.618 31.8068C118.481 31.8068 118.428 31.7802 118.428 31.7272C118.428 31.5106 119.516 30.7557 119.516 30.5674ZM124.81 35.6908C122.908 35.6908 121.657 34.7476 121.657 34.2615C121.657 34.0184 121.82 33.8575 122.038 33.8575C122.636 33.8575 123.94 34.7733 124.375 34.7733C124.483 34.7733 124.564 34.7198 124.564 34.5576C124.564 34.0715 124.103 33.2635 124.103 32.86C124.103 32.7521 124.185 32.6712 124.348 32.6712C125.081 32.6712 126.169 32.9687 126.741 32.9687C126.929 32.9687 126.983 32.86 126.983 32.7521C126.983 32.1586 125.217 30.9988 125.217 30.6479C125.217 30.3239 127.412 29.8378 127.412 29.3272C127.412 28.7868 124.428 29.1642 124.428 28.6524C124.428 28.2741 124.999 27.627 124.999 27.3304C124.999 27.1952 124.891 27.1421 124.701 27.1421C124.456 27.1421 123.153 27.6548 122.609 27.6548C122.337 27.6548 122.01 27.6005 122.01 27.223C122.01 26.6012 123.071 25.9276 124.728 25.9276C127.412 25.9276 129.017 27.7622 129.017 30.8362C129.017 34.7198 126.277 35.6908 124.81 35.6908ZM106.427 82.3465C106.427 82.5896 106.345 82.8605 106.127 83.1292C105.83 82.59 104.987 82.3187 104.606 82.3204C101.811 82.3204 102.869 86.3389 99.8819 86.3389C98.6341 86.3389 98.5247 86.1767 98.0628 86.1767C97.8732 86.1767 97.7646 86.258 97.7646 86.4197C97.7646 87.1224 98.769 88.8471 101.566 88.8471C104.362 88.8471 107.051 87.149 107.051 85.0426C107.051 84.693 106.97 84.3181 106.806 83.9394C106.915 83.7772 107.188 83.6697 107.432 83.6697C107.866 83.6697 108.11 84.1559 108.517 84.1559C108.953 84.1559 109.278 83.8319 109.278 83.4001C109.278 83.0492 109.088 82.8061 108.762 82.6427C108.98 82.4822 109.142 82.2113 109.142 81.9152C109.142 81.4564 108.817 81.0272 108.272 81.0272C108.028 81.0272 107.866 81.1085 107.676 81.2946C107.622 80.8111 107.351 80.3523 106.834 80.3523C106.427 80.3523 106.127 80.6489 106.127 81.1085C106.127 81.5364 106.427 81.8882 106.427 82.3465Z" fill="#0F0E9A"/>
<path id="Vector_6" d="M99.1227 83.3728C98.3084 83.3728 97.0856 82.5092 97.0856 82.023C97.0856 81.6177 97.4669 81.4016 97.7638 81.4016C98.4432 81.4016 99.6643 82.2383 99.6643 82.9397C99.6643 83.1297 99.5281 83.3728 99.1227 83.3728ZM91.5469 77.3318C93.7189 77.8689 94.805 79.0287 95.0218 80.4062C95.2398 81.7256 95.5112 82.8053 96.0265 83.3449C96.7056 84.102 98.0352 84.773 99.2041 84.773C100.182 84.773 100.967 84.4525 100.967 83.5615C100.967 82.59 99.6376 80.4062 97.6823 80.4062C97.4936 80.4062 97.2489 80.434 96.9774 80.434C96.7327 80.434 96.3794 80.3797 96.1614 80.191C95.7279 79.8122 95.5927 77.7893 94.777 76.5761C93.8822 75.2281 92.9045 74.8493 91.5749 74.8493C90.6253 74.8493 89.5645 75.362 89.5645 76.1178C89.5645 76.5761 89.8092 76.8992 91.5469 77.3318Z" fill="#0F0E9A"/>
<path id="Vector_7" d="M105.178 74.0401C105.178 72.8268 102.651 72.8003 102.651 70.9657C102.651 70.5061 102.95 69.7246 103.548 68.888C103.793 70.2908 104.363 71.0192 105.586 71.4784C108.001 72.3672 108.328 73.7157 108.328 75.1463C108.328 77.5749 106.617 80.5945 102.219 80.5945C98.688 80.5945 96.1627 77.4662 96.1627 74.8236C96.1627 74.0944 96.3523 73.2852 96.8142 73.2852C97.2218 73.2852 97.3583 73.6083 97.6824 73.9322C98.906 75.1463 100.235 75.4694 102.164 75.4694C103.901 75.4694 105.178 74.7693 105.178 74.0401ZM105.286 75.9821C104.355 76.4058 103.983 76.333 103.983 77.2788C103.983 77.628 103.901 78.085 103.901 78.3281C103.901 78.6512 103.956 78.8412 104.335 78.8412C105.314 78.8412 106.861 77.1962 106.861 75.7934C106.861 75.4151 106.643 75.2554 106.399 75.2554C106.181 75.2554 105.938 75.686 105.286 75.9821ZM96.6242 62.3635C96.6242 60.6367 100.752 59.7201 100.752 57.5893C100.752 57.2384 100.617 56.6192 100.372 56.16C101.811 56.9423 102.869 58.2655 102.869 59.3426C102.869 61.2042 100.915 62.0661 100.915 63.2271C100.915 64.5756 103.005 64.7908 103.005 66.4633C103.005 67.837 101.022 69.4289 101.022 71.2092C101.022 72.5838 102.001 73.7157 103.494 73.9044C103.005 74.0131 102.571 74.0944 102.109 74.0944C99.3661 74.0944 96.5427 71.8571 96.5427 69.1859C96.5427 67.8635 97.1136 66.7063 97.9818 65.8693C98.7427 66.5168 99.5027 66.9481 99.9905 66.9481C100.426 66.9481 100.617 66.7329 100.617 66.4089C100.617 65.4101 96.6242 64.4947 96.6242 62.3635ZM80.875 75.6855C80.9896 76.6069 81.8539 77.3045 82.8302 77.197C83.1822 77.1585 83.5097 77.0614 83.7277 76.9274C83.9444 77.7897 84.6739 78.3448 85.6588 78.2164C86.6584 78.0872 87.3392 77.3049 87.2306 76.3056C87.2112 76.0913 87.1562 75.8816 87.0677 75.6851C87.0677 75.6851 87.2004 75.6723 87.3004 75.6526C88.2802 75.4686 88.9415 74.6876 88.8601 73.7431C88.7515 72.7733 87.8747 72.0527 86.9604 72.1639C86.6071 72.2072 86.2797 72.3403 86.0617 72.5303C85.8169 71.7223 85.0513 71.0183 84.0052 71.1912C83.0616 71.3461 82.4368 72.1421 82.5321 73.1504C82.5467 73.3138 82.5855 73.5013 82.6674 73.6887L82.3981 73.7285C81.6053 73.8458 80.7457 74.6379 80.875 75.6855ZM85.9488 74.6246C85.9672 74.7597 85.9584 74.897 85.9228 75.0287C85.8871 75.1603 85.8255 75.2835 85.7413 75.3912C85.6572 75.4989 85.5523 75.5888 85.4328 75.6557C85.3132 75.7227 85.1815 75.7652 85.0452 75.781C84.9089 75.7968 84.7708 75.7854 84.639 75.7475C84.5072 75.7096 84.3843 75.646 84.2775 75.5605C84.1707 75.4749 84.0822 75.369 84.0171 75.249C83.952 75.129 83.9116 74.9974 83.8983 74.8617C83.8826 74.728 83.8936 74.5925 83.9307 74.463C83.9677 74.3335 84.0301 74.2125 84.1142 74.107C84.1983 74.0014 84.3026 73.9133 84.4209 73.8478C84.5393 73.7822 84.6696 73.7405 84.8042 73.7249C84.9388 73.7093 85.0752 73.7202 85.2056 73.757C85.336 73.7938 85.4578 73.8558 85.5641 73.9393C85.6704 74.0229 85.7591 74.1264 85.8251 74.244C85.8911 74.3616 85.9331 74.4909 85.9488 74.6246Z" fill="#0F0E9A"/>
</g>
</g>
</svg>
