<svg width="222" height="147" viewBox="0 0 222 147" fill="none" xmlns="http://www.w3.org/2000/svg">
<g id="Yakult-Logo.wine">
<g id="Group" opacity="0.6">
<path id="Vector" fill-rule="evenodd" clip-rule="evenodd" d="M67.0896 64.1275C67.8654 65.2628 68.5303 66.5398 69.306 67.8176L70.524 69.8052L70.7465 69.6627L72.8539 66.1139L74.0708 63.9862H82.9398V64.1275L81.1663 66.8252C80.8345 67.2516 80.3894 67.8176 80.1669 68.2425L78.3944 70.7993L77.7308 71.7932L76.2913 73.9221L74.6252 76.1932C74.4057 76.4766 74.1841 76.9025 73.9614 77.3264V84.0014H67.4215V77.3264L67.201 77.0459L65.206 74.2047L62.8781 70.7993L61.4366 68.8117L60.3299 67.107L58.2226 64.1275H67.0896ZM91.2515 79.6007C91.2515 79.8813 91.0298 80.0234 90.8092 80.1659C89.921 80.736 88.8142 80.736 87.7047 80.736C86.8173 80.736 85.9332 80.5939 85.1555 80.0234C85.043 79.8813 85.0429 79.7408 85.0429 79.6007C85.1554 78.8881 85.7106 78.8881 86.0424 78.6063C86.9298 78.3216 87.9273 78.3216 88.8142 78.3216C89.1461 78.4622 89.3666 78.4622 89.6997 78.4622C90.1427 78.6063 90.6959 78.7475 91.141 79.1715C91.2515 79.3168 91.3628 79.4574 91.2515 79.6007ZM95.6852 71.2252C95.2434 70.7993 94.7983 70.5146 94.3531 70.2308C92.8033 69.2376 91.0298 68.953 89.2574 68.8117C88.7021 68.8117 88.2591 68.6703 87.7047 68.8117C87.0411 68.8117 86.1537 68.8117 85.4881 68.953C84.2679 69.0947 83.1612 69.3793 82.0526 69.8052C80.8345 70.5146 79.3919 71.6511 79.1694 73.4971C79.0592 73.6383 79.0592 73.7796 79.1694 73.9221H86.0423C86.3755 73.3528 86.9299 73.2104 87.3716 73.0711C88.3704 72.9277 89.3666 72.9277 90.2541 73.3528C90.6958 73.497 91.141 74.0623 91.141 74.6315C91.141 74.774 91.0298 74.774 91.0298 74.774C90.4753 74.6315 89.9209 74.4883 89.2574 74.3461C88.4804 74.3461 87.7047 74.2047 86.9298 74.2047H86.1537C85.9332 74.3461 85.5993 74.2047 85.3768 74.2047C83.2706 74.3461 81.1663 75.0546 79.6146 76.7604C79.1694 77.3264 78.8376 78.0363 78.7283 78.8881C78.3944 80.8765 79.2826 82.5792 80.612 83.5722C80.8345 83.7176 81.0551 84.0014 81.2768 84.1419C82.7161 85.1367 84.4898 85.2772 86.2641 85.2772C87.4841 85.1367 88.7022 84.9914 89.8117 84.282C90.2541 84.0014 90.6959 83.7176 91.141 83.2868V84.0014H97.2371V74.774C97.2371 73.3529 96.5735 72.0771 95.6852 71.2252ZM99.4526 64.1275H105.661V75.4826L105.882 75.3433L107.101 73.3528L109.318 69.5202H116.522V69.6627C115.968 70.5146 115.416 71.3665 114.971 72.077L112.976 75.4826L112.201 76.6158C112.201 76.7604 112.31 76.7604 112.31 76.9025L112.864 77.6103L114.416 79.4575C114.897 80.0716 115.377 80.6869 115.855 81.3033L117.963 83.8581V84.0014H110.094L108.764 82.1532L107.432 80.3072L106.105 78.3216L105.77 77.7524C105.661 77.7524 105.661 77.8957 105.661 77.8957L105.77 84.0014H99.5658V83.8581L99.4526 66.3973V64.1275V64.1275ZM117.743 69.5202H123.616V76.4766C123.728 77.7524 124.5 78.8881 125.391 79.4574C126.056 79.7408 126.831 80.0234 127.608 79.7408C128.604 79.4574 129.604 78.4622 129.824 77.1864C129.935 76.6158 129.935 75.9077 129.935 75.1988V69.5202H135.92V70.6567L136.029 83.8581L134.921 84.0014H130.045V82.8648H129.935C128.604 84.2821 126.942 85.1367 125.057 85.4193C123.284 85.4193 121.621 84.8513 120.181 83.7176C118.738 82.437 117.852 80.3072 117.743 78.0363V69.5202ZM138.027 64.1275H144.122V67.8176L144.232 83.8581C143.678 84.0014 143.123 83.8581 142.568 83.8581H138.027L137.915 64.8369V64.1275H138.027ZM146.117 69.5202H149.884V64.1275H155.648C155.758 64.1275 155.758 64.2696 155.758 64.2696V69.3793L155.869 69.5202H159.524V74.2047H155.758V75.6258L155.869 78.1816V78.6062C155.869 79.3168 156.201 80.0235 156.758 80.3072C156.978 80.4533 157.2 80.5939 157.423 80.5939C157.532 80.736 157.643 80.5939 157.866 80.5939C158.42 80.4533 158.864 79.8812 158.97 79.1715C159.084 78.7475 159.084 78.3215 159.084 77.8957H165.621C165.621 78.3215 165.512 78.7475 165.402 79.1715C164.958 81.3032 163.517 83.2868 161.965 84.282C160.193 85.2772 158.197 85.5578 156.201 85.2772C155.869 85.2772 155.648 85.2772 155.317 85.1367C153.654 84.8513 152.213 83.8581 151.105 82.1532C150.326 80.736 149.884 79.1715 149.884 77.4697V74.2047H146.117V69.5202ZM168.322 72.5919V73.5265H168.9C169.405 73.5265 170.097 73.6081 170.097 73.0997C170.097 72.6201 169.708 72.5919 169.259 72.5919H168.322ZM170.59 75.7934H169.977L169.012 74.0622H168.322V75.7934H167.78V72.0456H169.352C170.044 72.0456 170.645 72.2559 170.645 73.0408C170.645 73.7809 170.151 74.0493 169.649 74.0622L170.59 75.7934ZM166.262 73.898C166.262 75.4664 167.541 76.6886 169.064 76.6886C170.59 76.6886 171.87 75.4664 171.87 73.898C171.87 72.3206 170.59 71.1049 169.064 71.1049C167.541 71.1049 166.262 72.3206 166.262 73.898H166.262ZM165.718 73.898C165.718 72.0436 167.193 70.565 169.064 70.565C170.936 70.565 172.419 72.0435 172.419 73.898C172.419 75.7491 170.936 77.2308 169.064 77.2308C167.193 77.2308 165.718 75.7491 165.718 73.898Z" fill="#E8282C"/>
<path id="Vector_2" fill-rule="evenodd" clip-rule="evenodd" d="M49.1049 74.7861H48.9924C48.9772 74.4364 48.9695 74.0864 48.9693 73.7364C48.9693 73.6314 48.9782 73.5305 48.9822 73.4263C48.978 73.3226 48.9693 73.2217 48.9693 73.1167C48.9693 72.7654 48.9775 72.4162 48.9925 72.069H49.1049C51.8087 55.0656 95.9007 54.6115 106.56 54.6417V51.8021H88.4131C81.526 51.8021 27.9521 50.6447 26.0563 72.3092H26.0328C26.0114 72.7036 26 73.0996 26 73.5002C26 73.9012 26.0114 74.2976 26.0324 74.692H26.0559C27.9517 96.3544 81.5256 95.1978 88.4127 95.1978H106.559V92.2142C95.9012 92.2437 51.8091 91.7876 49.1052 74.7861H49.1049ZM195.968 72.3092H195.944C194.049 50.6447 140.472 51.8021 133.586 51.8021H115.086V54.6437C123.836 54.5981 170.653 54.5307 173.443 72.0689H173.554C173.573 72.4162 173.579 72.7654 173.579 73.1166C173.579 73.2216 173.568 73.3225 173.566 73.4262C173.568 73.5304 173.579 73.6313 173.579 73.7363C173.579 74.0884 173.573 74.4368 173.554 74.786H173.443C170.653 92.3223 123.836 92.2566 115.086 92.2093V95.1978H133.586C140.472 95.1978 194.048 96.3544 195.944 74.692H195.968C195.989 74.2976 196 73.9011 196 73.5002C196 73.0996 195.989 72.7036 195.968 72.3091" fill="#E8282C"/>
</g>
</g>
</svg>
